<svg width="100" height="100" viewBox="0 0 100 100" fill="none" xmlns="http://www.w3.org/2000/svg">
<g clip-path="url(#clip0_1708_2397)">
<mask id="mask0_1708_2397" style="mask-type:luminance" maskUnits="userSpaceOnUse" x="0" y="0" width="100" height="100">
<path d="M0 0.000297546H99.9997V100H0V0.000297546Z" fill="white"/>
</mask>
<g mask="url(#mask0_1708_2397)">
<path d="M95.3652 49.5779C95.3652 66.63 85.9699 81.4786 72.0736 89.2463V92.6235C72.0736 95.8732 69.4106 98.5361 66.161 98.5361H33.7564C30.5064 98.5361 27.8433 95.8732 27.8433 92.6235V89.2463C13.947 81.4786 4.55176 66.63 4.55176 49.5779H95.3652Z" stroke="#1E1E1E" stroke-width="3" stroke-miterlimit="10" stroke-linecap="round" stroke-linejoin="round"/>
<path d="M14.3843 77.5918H46.6393H53.2774H85.5326M5.60352 58.3915H94.3134" stroke="#1E1E1E" stroke-width="3" stroke-miterlimit="10" stroke-linecap="round" stroke-linejoin="round"/>
<path d="M28.5848 25.9432C31.2479 28.1579 33.7559 30.9481 35.699 34.3198C38.6111 39.358 39.7738 44.85 39.8625 49.5781H14.8046C14.2669 48.826 13.7663 48.0481 13.3044 47.2473C6.71592 35.8368 9.09111 22.1286 12.5733 20.119C14.3286 19.1058 18.5196 19.8255 23.0872 22.245" stroke="#1E1E1E" stroke-width="3" stroke-miterlimit="10" stroke-linecap="round" stroke-linejoin="round"/>
<path d="M33.5732 31.1309C40.5215 22.0233 51.439 18.3085 54.5728 20.1188C55.6136 20.7169 56.5492 22.3612 57.1859 24.6698C57.1859 24.6698 57.6517 26.6433 57.812 27.9297C57.9722 29.2153 58.0052 31.2415 58.0052 31.2415C58.0275 36.1358 56.9036 41.9379 53.8419 47.2473C53.38 48.0482 52.8793 48.826 52.3415 49.5781" stroke="#1E1E1E" stroke-width="3" stroke-miterlimit="10" stroke-linecap="round" stroke-linejoin="round"/>
<path d="M34.797 64.4537C36.7513 64.4537 38.3347 66.0371 38.3347 67.9914C38.3347 69.9459 36.7513 71.5293 34.797 71.5293C32.8427 71.5293 31.2593 69.9459 31.2593 67.9914C31.2593 66.0371 32.8427 64.4537 34.797 64.4537ZM80.2785 64.4537C82.2328 64.4537 83.8162 66.0371 83.8162 67.9914C83.8162 69.9459 82.2328 71.5293 80.2785 71.5293C78.3299 71.5293 76.7408 69.9459 76.7408 67.9914C76.7408 66.0371 78.3299 64.4537 80.2785 64.4537ZM19.6385 64.4537C21.5928 64.4537 23.1762 66.0371 23.1762 67.9914C23.1762 69.9459 21.5928 71.5293 19.6385 71.5293C17.684 71.5293 16.1006 69.9459 16.1006 67.9914C16.1006 66.0371 17.684 64.4537 19.6385 64.4537ZM65.12 64.4537C67.0743 64.4537 68.6577 66.0371 68.6577 67.9914C68.6577 69.9459 67.0743 71.5293 65.12 71.5293C63.1655 71.5293 61.5823 69.9459 61.5823 67.9914C61.5823 66.0371 63.1655 64.4537 65.12 64.4537ZM49.9612 64.4537C51.9101 64.4537 53.4989 66.0371 53.4989 67.9914C53.4989 69.9459 51.9101 71.5293 49.9612 71.5293C48.0069 71.5293 46.4233 69.9459 46.4233 67.9914C46.4233 66.0371 48.0069 64.4537 49.9612 64.4537Z" stroke="#1E1E1E" stroke-width="3" stroke-miterlimit="10" stroke-linecap="round" stroke-linejoin="round"/>
<path d="M84.9954 31.0145C85.7318 26.9176 86.2798 23.1196 86.6286 19.7368L88.0572 20.1188C90.5486 20.7889 93.1394 19.294 93.8093 16.7972L95.2874 11.2661C95.9573 8.76926 94.4628 6.18372 91.9714 5.51399L77.4548 1.62182C74.9578 0.95737 72.3724 2.45229 71.7023 4.94369L70.2187 10.48C69.5543 12.9714 71.0492 15.5624 73.5406 16.2269L74.9689 16.6144C71.564 24.2104 67.9598 34.5633 64.8539 46.1567C64.5467 47.295 64.2477 48.4355 63.957 49.5781H80.8322C81.8914 45.5849 82.8514 41.5661 83.7111 37.5252" stroke="#1E1E1E" stroke-width="3" stroke-miterlimit="10" stroke-linecap="round" stroke-linejoin="round"/>
<path d="M17.1855 28.1965L29.3822 49.5781" stroke="#1E1E1E" stroke-width="3" stroke-miterlimit="10" stroke-linecap="round" stroke-linejoin="round"/>
<path d="M21.083 35.0342L23.5189 29.9518" stroke="#1E1E1E" stroke-width="3" stroke-miterlimit="10" stroke-linecap="round" stroke-linejoin="round"/>
<path d="M24.8486 41.6279H17.8174" stroke="#1E1E1E" stroke-width="3" stroke-miterlimit="10" stroke-linecap="round" stroke-linejoin="round"/>
</g>
</g>
<defs>
<clipPath id="clip0_1708_2397">
<rect width="100" height="100" fill="white"/>
</clipPath>
</defs>
</svg>
