<svg width="100" height="100" viewBox="0 0 100 100" fill="none" xmlns="http://www.w3.org/2000/svg">
<g clip-path="url(#clip0_1708_2383)">
<path d="M65.8125 29.0137C65.2974 30.2658 64.5386 31.4031 63.5801 32.3594L60.8496 35.0898C58.7809 37.1587 57.2129 39.6734 56.2656 42.4414C56.2637 42.4492 56.2598 42.4551 56.2578 42.4629C56.2109 42.5996 56.166 42.7363 56.123 42.873C56.0957 42.9551 56.0703 43.0371 56.0469 43.1191C56.0117 43.2285 55.9805 43.3398 55.9492 43.4512C55.791 44.0059 55.6582 44.5684 55.5527 45.1367L51.6426 66.0195C49.7813 75.9648 38.168 80.1289 30.4531 74.2891C29.6426 73.6758 28.9395 72.9316 28.3516 72.1035C25.3293 67.8482 21.9548 63.8543 18.2637 60.1641C14.5735 56.4729 10.5797 53.0983 6.32422 50.0762C5.49414 49.4883 4.75195 48.7852 4.13867 47.9746C2.3125 45.5625 1.46484 42.7715 1.46484 40.0137C1.46484 33.9512 5.56836 28.0645 12.4063 26.7832L33.2891 22.875C37.096 22.1614 40.5986 20.3145 43.3379 17.5762L46.0664 14.8457C47.0547 13.8574 48.1953 13.1133 49.4121 12.6152M65.8125 29.0137C65.3761 28.7536 64.9738 28.44 64.6152 28.0801L50.3457 13.8105C49.9785 13.4434 49.666 13.041 49.4121 12.6152M65.8125 29.0137C68.1855 30.4375 71.3105 30.127 73.3574 28.0801L73.8418 27.5957C76.2559 25.1816 76.2559 21.2676 73.8418 18.8535L71.3459 16.3576M49.4121 12.6152C47.9883 10.2422 48.2988 7.11719 50.3457 5.07031L50.832 4.58398C53.2461 2.16992 57.1602 2.16992 59.5723 4.58398L66.4916 11.5033L71.3459 16.3576M71.3457 16.3576H71.3459M94.9844 44.209V87.9375C94.9844 93.0684 90.8262 97.2266 85.6973 97.2266H84.9004C79.7715 97.2266 75.6133 93.0684 75.6133 87.9375V57.8418V51.0059V44.209M95.3213 44.2084H75.2764C73.5014 44.2084 72.0625 42.7695 72.0625 40.9945V38.6602C72.0625 36.8852 73.5014 35.4463 75.2764 35.4463H95.3213C97.0963 35.4463 98.5352 36.8852 98.5352 38.6602V40.9945C98.5352 42.7695 97.0963 44.2084 95.3213 44.2084Z" stroke="#1E1E1E" stroke-width="3" stroke-miterlimit="10" stroke-linecap="round" stroke-linejoin="round"/>
<path d="M91.9639 62.1762C90.9959 62.03 90.0072 62.1111 89.0759 62.413C88.1447 62.7148 87.2964 63.2292 86.5982 63.9154L84.3449 66.1299C83.619 66.8434 82.7017 67.331 81.7042 67.5337C80.7067 67.7364 79.6719 67.6456 78.725 67.2721C77.2313 66.6828 75.6133 67.7838 75.6133 69.3896V88.2344C75.6133 93.2004 79.6391 97.2262 84.6051 97.2262H85.9932C90.9592 97.2262 94.985 93.2004 94.985 88.2344V64.5908C94.9849 64.0459 94.7895 63.5191 94.4341 63.1061C94.0787 62.6931 93.587 62.4212 93.0482 62.3398L91.9639 62.1762Z" stroke="#1E1E1E" stroke-width="3" stroke-miterlimit="10" stroke-linecap="round" stroke-linejoin="round"/>
<path d="M85.2988 13.4219C87.4443 13.4219 89.1836 11.6826 89.1836 9.53711C89.1836 7.39161 87.4443 5.65234 85.2988 5.65234C83.1533 5.65234 81.4141 7.39161 81.4141 9.53711C81.4141 11.6826 83.1533 13.4219 85.2988 13.4219Z" stroke="#1E1E1E" stroke-width="3" stroke-miterlimit="10" stroke-linecap="round" stroke-linejoin="round"/>
<path d="M34.8105 53.0478C32.9524 54.1205 32.3158 56.4964 33.3886 58.3544C34.4613 60.2125 36.8372 60.8491 38.6953 59.7764C40.5533 58.7036 41.1899 56.3277 40.1172 54.4697C39.0444 52.6116 36.6686 51.975 34.8105 53.0478Z" stroke="#1E1E1E" stroke-width="3" stroke-miterlimit="10" stroke-linecap="round" stroke-linejoin="round"/>
<path d="M93.1545 28.017C94.7688 28.017 96.0775 26.7083 96.0775 25.0939C96.0775 23.4796 94.7688 22.1709 93.1545 22.1709C91.5401 22.1709 90.2314 23.4796 90.2314 25.0939C90.2314 26.7083 91.5401 28.017 93.1545 28.017Z" stroke="#1E1E1E" stroke-width="3" stroke-miterlimit="10" stroke-linecap="round" stroke-linejoin="round"/>
<path d="M21.6083 32.7489C20.4406 33.4231 20.0405 34.9162 20.7147 36.0839C21.3889 37.2516 22.882 37.6517 24.0497 36.9775C25.2174 36.3034 25.6175 34.8102 24.9434 33.6425C24.2692 32.4748 22.776 32.0747 21.6083 32.7489Z" stroke="#1E1E1E" stroke-width="3" stroke-miterlimit="10" stroke-linecap="round" stroke-linejoin="round"/>
<path d="M56.2765 39.9071C55.0404 36.1639 51.1627 33.9725 47.3183 34.8448C44.2921 35.5315 41.1523 35.5479 38.1191 34.893C35.0858 34.2381 32.2325 32.9277 29.7592 31.0536L29.4219 30.7979C27.0222 28.9796 24.2689 27.6832 21.3386 26.992C18.4084 26.3007 15.3659 26.2298 12.4066 26.7838C2.46151 28.6455 -1.70255 40.2584 4.13866 47.9746C4.75194 48.7846 5.49491 49.4879 6.32323 50.0762C14.8492 56.1312 22.2955 63.5776 28.3506 72.1036C28.9389 72.9319 29.6422 73.675 30.4521 74.2881C38.1681 80.1293 49.781 75.9653 51.6428 66.0203L55.5521 45.1375C55.7224 44.2298 55.9584 43.3356 56.2582 42.462C56.5432 41.6352 56.5497 40.7378 56.2765 39.9071Z" stroke="#1E1E1E" stroke-width="3" stroke-miterlimit="10" stroke-linecap="round" stroke-linejoin="round"/>
</g>
<defs>
<clipPath id="clip0_1708_2383">
<rect width="100" height="100" fill="white"/>
</clipPath>
</defs>
</svg>
