<svg width="122" height="122" viewBox="0 0 122 122" fill="none" xmlns="http://www.w3.org/2000/svg">
<path d="M103.083 74.0835C101.436 74.0459 99.8179 73.6364 98.3509 72.8857C96.8839 72.135 95.6055 71.0625 94.6113 69.7483C92.9411 67.9855 91.6228 66.5934 88.8878 66.5934C86.1527 66.5934 84.8382 67.9855 83.1699 69.7464C82.9991 69.9274 82.7944 70.0729 82.5674 70.1747C82.3404 70.2766 82.0955 70.3327 81.8468 70.3399C81.5981 70.3471 81.3504 70.3052 81.1179 70.2167C80.8854 70.1282 80.6726 69.9947 80.4916 69.824C80.3107 69.6532 80.1651 69.4485 80.0633 69.2214C79.9615 68.9944 79.9054 68.7496 79.8982 68.5009C79.891 68.2522 79.9328 68.0045 80.0213 67.772C80.1098 67.5394 80.2433 67.3266 80.4141 67.1457C81.381 65.8037 82.653 64.7107 84.1253 63.9568C85.5976 63.2029 87.228 62.8098 88.8821 62.8098C90.5362 62.8098 92.1665 63.2029 93.6388 63.9568C95.1111 64.7107 96.3832 65.8037 97.3501 67.1457C99.0202 68.9085 100.339 70.3006 103.076 70.3006C105.812 70.3006 107.129 68.9104 108.797 67.1457C109.791 65.8316 111.07 64.7592 112.537 64.0085C114.004 63.2578 115.621 62.8483 117.269 62.8105C117.771 62.8105 118.252 63.0098 118.606 63.3645C118.961 63.7192 119.16 64.2003 119.16 64.7019C119.16 65.2036 118.961 65.6847 118.606 66.0394C118.252 66.3941 117.771 66.5934 117.269 66.5934C114.534 66.5934 113.214 67.9855 111.545 69.7483C110.552 71.0614 109.275 72.1332 107.81 72.8839C106.345 73.6345 104.729 74.0446 103.083 74.0835ZM17.9679 74.0835C16.3213 74.0459 14.7045 73.6362 13.2387 72.8851C11.7729 72.134 10.496 71.061 9.5037 69.7464C7.83166 67.9855 6.51332 66.5934 3.78207 66.5934C3.28043 66.5934 2.79933 66.3941 2.44462 66.0394C2.0899 65.6847 1.89063 65.2036 1.89062 64.7019C1.89062 64.2003 2.0899 63.7192 2.44462 63.3645C2.79933 63.0098 3.28043 62.8105 3.78207 62.8105C5.42854 62.8479 7.0452 63.2573 8.51102 64.0081C9.97683 64.7588 11.2538 65.8315 12.2463 67.1457C13.9127 68.9085 15.231 70.2987 17.9623 70.2987C20.6935 70.2987 22.0118 68.9085 23.6801 67.1457C24.6718 65.8309 25.9483 64.7578 27.4139 64.0067C28.8794 63.2555 30.496 62.8459 32.1424 62.8086C33.7889 62.8468 35.4055 63.2567 36.8713 64.0077C38.337 64.7588 39.614 65.8315 40.6067 67.1457C40.7822 67.3251 40.9203 67.5376 41.0129 67.7709C41.1054 68.0042 41.1506 68.2536 41.1459 68.5046C41.1411 68.7555 41.0864 69.003 40.985 69.2326C40.8836 69.4622 40.7375 69.6693 40.5553 69.8419C40.3731 70.0145 40.1583 70.1491 39.9235 70.2378C39.6887 70.3265 39.4386 70.3677 39.1878 70.3588C38.937 70.3499 38.6904 70.2912 38.4625 70.186C38.2346 70.0809 38.0299 69.9315 37.8603 69.7464C36.1901 67.9855 34.8737 66.5934 32.1424 66.5934C29.4112 66.5934 28.0947 67.9855 26.4265 69.7464C25.4348 71.0603 24.1588 72.1328 22.694 72.8839C21.2292 73.6349 19.6136 74.045 17.9679 74.0835ZM117.269 85.3206H113.486C112.984 85.3206 112.503 85.1213 112.149 84.7666C111.794 84.4119 111.595 83.9308 111.595 83.4292C111.595 82.9275 111.794 82.4464 112.149 82.0917C112.503 81.737 112.984 81.5377 113.486 81.5377H117.269C117.771 81.5377 118.252 81.737 118.606 82.0917C118.961 82.4464 119.16 82.9275 119.16 83.4292C119.16 83.9308 118.961 84.4119 118.606 84.7666C118.252 85.1213 117.771 85.3206 117.269 85.3206ZM100.246 85.3206H96.463C95.9614 85.3206 95.4803 85.1213 95.1255 84.7666C94.7708 84.4119 94.5716 83.9308 94.5716 83.4292C94.5716 82.9275 94.7708 82.4464 95.1255 82.0917C95.4803 81.737 95.9614 81.5377 96.463 81.5377H100.246C100.748 81.5377 101.229 81.737 101.583 82.0917C101.938 82.4464 102.137 82.9275 102.137 83.4292C102.137 83.9308 101.938 84.4119 101.583 84.7666C101.229 85.1213 100.748 85.3206 100.246 85.3206ZM81.3314 85.3206H79.44C78.9383 85.3206 78.4572 85.1213 78.1025 84.7666C77.7478 84.4119 77.5485 83.9308 77.5485 83.4292C77.5485 82.9275 77.7478 82.4464 78.1025 82.0917C78.4572 81.737 78.9383 81.5377 79.44 81.5377H81.3314C81.8331 81.5377 82.3142 81.737 82.6689 82.0917C83.0236 82.4464 83.2229 82.9275 83.2229 83.4292C83.2229 83.9308 83.0236 84.4119 82.6689 84.7666C82.3142 85.1213 81.8331 85.3206 81.3314 85.3206ZM41.611 85.3206H39.7196C39.2179 85.3206 38.7368 85.1213 38.3821 84.7666C38.0274 84.4119 37.8281 83.9308 37.8281 83.4292C37.8281 82.9275 38.0274 82.4464 38.3821 82.0917C38.7368 81.737 39.2179 81.5377 39.7196 81.5377H41.611C42.1127 81.5377 42.5938 81.737 42.9485 82.0917C43.3032 82.4464 43.5025 82.9275 43.5025 83.4292C43.5025 83.9308 43.3032 84.4119 42.9485 84.7666C42.5938 85.1213 42.1127 85.3206 41.611 85.3206ZM24.588 85.3206H20.8051C20.3035 85.3206 19.8224 85.1213 19.4676 84.7666C19.1129 84.4119 18.9137 83.9308 18.9137 83.4292C18.9137 82.9275 19.1129 82.4464 19.4676 82.0917C19.8224 81.737 20.3035 81.5377 20.8051 81.5377H24.588C25.0896 81.5377 25.5707 81.737 25.9255 82.0917C26.2802 82.4464 26.4794 82.9275 26.4794 83.4292C26.4794 83.9308 26.2802 84.4119 25.9255 84.7666C25.5707 85.1213 25.0896 85.3206 24.588 85.3206ZM7.56497 85.3206H3.78207C3.28043 85.3206 2.79933 85.1213 2.44462 84.7666C2.0899 84.4119 1.89063 83.9308 1.89062 83.4292C1.89062 82.9275 2.0899 82.4464 2.44462 82.0917C2.79933 81.737 3.28043 81.5377 3.78207 81.5377H7.56497C8.06661 81.5377 8.54771 81.737 8.90242 82.0917C9.25714 82.4464 9.45642 82.9275 9.45642 83.4292C9.45642 83.9308 9.25714 84.4119 8.90242 84.7666C8.54771 85.1213 8.06661 85.3206 7.56497 85.3206ZM15.1308 96.5558H11.3479C10.8462 96.5558 10.3651 96.3565 10.0104 96.0018C9.65569 95.6471 9.45642 95.166 9.45642 94.6643C9.45642 94.1627 9.65569 93.6816 10.0104 93.3269C10.3651 92.9722 10.8462 92.7729 11.3479 92.7729H15.1308C15.6324 92.7729 16.1135 92.9722 16.4682 93.3269C16.8229 93.6816 17.0222 94.1627 17.0222 94.6643C17.0222 95.166 16.8229 95.6471 16.4682 96.0018C16.1135 96.3565 15.6324 96.5558 15.1308 96.5558ZM34.0452 96.5558H30.2623C29.7607 96.5558 29.2796 96.3565 28.9249 96.0018C28.5702 95.6471 28.3709 95.166 28.3709 94.6643C28.3709 94.1627 28.5702 93.6816 28.9249 93.3269C29.2796 92.9722 29.7607 92.7729 30.2623 92.7729H34.0452C34.5469 92.7729 35.028 92.9722 35.3827 93.3269C35.7374 93.6816 35.9367 94.1627 35.9367 94.6643C35.9367 95.166 35.7374 95.6471 35.3827 96.0018C35.028 96.3565 34.5469 96.5558 34.0452 96.5558ZM52.9597 96.5558H49.1768C48.6752 96.5558 48.1941 96.3565 47.8394 96.0018C47.4846 95.6471 47.2854 95.166 47.2854 94.6643C47.2854 94.1627 47.4846 93.6816 47.8394 93.3269C48.1941 92.9722 48.6752 92.7729 49.1768 92.7729H52.9597C53.4614 92.7729 53.9425 92.9722 54.2972 93.3269C54.6519 93.6816 54.8512 94.1627 54.8512 94.6643C54.8512 95.166 54.6519 95.6471 54.2972 96.0018C53.9425 96.3565 53.4614 96.5558 52.9597 96.5558ZM71.8742 96.5558H68.0913C67.5896 96.5558 67.1086 96.3565 66.7538 96.0018C66.3991 95.6471 66.1998 95.166 66.1998 94.6643C66.1998 94.1627 66.3991 93.6816 66.7538 93.3269C67.1086 92.9722 67.5896 92.7729 68.0913 92.7729H71.8742C72.3758 92.7729 72.8569 92.9722 73.2116 93.3269C73.5664 93.6816 73.7656 94.1627 73.7656 94.6643C73.7656 95.166 73.5664 95.6471 73.2116 96.0018C72.8569 96.3565 72.3758 96.5558 71.8742 96.5558ZM90.7887 96.5558H87.0058C86.5041 96.5558 86.023 96.3565 85.6683 96.0018C85.3136 95.6471 85.1143 95.166 85.1143 94.6643C85.1143 94.1627 85.3136 93.6816 85.6683 93.3269C86.023 92.9722 86.5041 92.7729 87.0058 92.7729H90.7887C91.2903 92.7729 91.7714 92.9722 92.1261 93.3269C92.4808 93.6816 92.6801 94.1627 92.6801 94.6643C92.6801 95.166 92.4808 95.6471 92.1261 96.0018C91.7714 96.3565 91.2903 96.5558 90.7887 96.5558ZM109.703 96.5558H105.92C105.419 96.5558 104.938 96.3565 104.583 96.0018C104.228 95.6471 104.029 95.166 104.029 94.6643C104.029 94.1627 104.228 93.6816 104.583 93.3269C104.938 92.9722 105.419 92.7729 105.92 92.7729H109.703C110.205 92.7729 110.686 92.9722 111.041 93.3269C111.395 93.6816 111.595 94.1627 111.595 94.6643C111.595 95.166 111.395 95.6471 111.041 96.0018C110.686 96.3565 110.205 96.5558 109.703 96.5558ZM100.246 105.92H96.463C95.9614 105.92 95.4803 105.721 95.1255 105.366C94.7708 105.012 94.5716 104.531 94.5716 104.029C94.5716 103.527 94.7708 103.046 95.1255 102.691C95.4803 102.337 95.9614 102.137 96.463 102.137H100.246C100.748 102.137 101.229 102.337 101.583 102.691C101.938 103.046 102.137 103.527 102.137 104.029C102.137 104.531 101.938 105.012 101.583 105.366C101.229 105.721 100.748 105.92 100.246 105.92ZM81.3314 105.92H77.5485C77.0469 105.92 76.5658 105.721 76.2111 105.366C75.8564 105.012 75.6571 104.531 75.6571 104.029C75.6571 103.527 75.8564 103.046 76.2111 102.691C76.5658 102.337 77.0469 102.137 77.5485 102.137H81.3314C81.8331 102.137 82.3142 102.337 82.6689 102.691C83.0236 103.046 83.2229 103.527 83.2229 104.029C83.2229 104.531 83.0236 105.012 82.6689 105.366C82.3142 105.721 81.8331 105.92 81.3314 105.92ZM62.4169 105.92H58.6341C58.1324 105.92 57.6513 105.721 57.2966 105.366C56.9419 105.012 56.7426 104.531 56.7426 104.029C56.7426 103.527 56.9419 103.046 57.2966 102.691C57.6513 102.337 58.1324 102.137 58.6341 102.137H62.4169C62.9186 102.137 63.3997 102.337 63.7544 102.691C64.1091 103.046 64.3084 103.527 64.3084 104.029C64.3084 104.531 64.1091 105.012 63.7544 105.366C63.3997 105.721 62.9186 105.92 62.4169 105.92ZM43.5025 105.92H39.7196C39.2179 105.92 38.7368 105.721 38.3821 105.366C38.0274 105.012 37.8281 104.531 37.8281 104.029C37.8281 103.527 38.0274 103.046 38.3821 102.691C38.7368 102.337 39.2179 102.137 39.7196 102.137H43.5025C44.0041 102.137 44.4852 102.337 44.8399 102.691C45.1946 103.046 45.3939 103.527 45.3939 104.029C45.3939 104.531 45.1946 105.012 44.8399 105.366C44.4852 105.721 44.0041 105.92 43.5025 105.92ZM24.588 105.92H20.8051C20.3035 105.92 19.8224 105.721 19.4676 105.366C19.1129 105.012 18.9137 104.531 18.9137 104.029C18.9137 103.527 19.1129 103.046 19.4676 102.691C19.8224 102.337 20.3035 102.137 20.8051 102.137H24.588C25.0896 102.137 25.5707 102.337 25.9255 102.691C26.2802 103.046 26.4794 103.527 26.4794 104.029C26.4794 104.531 26.2802 105.012 25.9255 105.366C25.5707 105.721 25.0896 105.92 24.588 105.92Z" fill="black"/>
<path d="M60.4271 92.8121C53.9452 92.8121 48.5924 90.461 46.1089 86.523C44.4879 83.9487 43.2585 79.4055 46.6196 72.3693C48.6365 68.1991 49.633 63.609 49.5267 58.9778C49.4971 58.499 49.2839 58.0501 48.9316 57.7246C48.5793 57.399 48.1149 57.2219 47.6353 57.2301H3.78207C3.28043 57.2301 2.79933 57.0309 2.44462 56.6762C2.0899 56.3214 1.89063 55.8403 1.89062 55.3387C1.89062 54.8371 2.0899 54.356 2.44462 54.0012C2.79933 53.6465 3.28043 53.4473 3.78207 53.4473H47.6334C49.0951 53.4458 50.501 54.0084 51.5581 55.018C52.6152 56.0275 53.242 57.406 53.3077 58.8662C53.4308 64.0983 52.3086 69.2846 50.0336 73.9978C47.9322 78.3954 47.6882 81.9306 49.3092 84.501C51.0966 87.3382 55.2521 89.0254 60.4271 89.0254C65.6021 89.0254 69.8276 87.3098 71.7872 84.4348C73.5538 81.8398 73.5708 78.2857 71.8345 73.8749C69.9065 69.3233 68.6255 64.5241 68.0289 59.6171C67.9596 58.8327 68.0543 58.0424 68.3071 57.2965C68.5599 56.5507 68.9651 55.8656 69.4971 55.2849C70.029 54.7042 70.676 54.2406 71.3969 53.9236C72.1178 53.6065 72.8968 53.443 73.6843 53.4435H117.269C117.771 53.4435 118.252 53.6427 118.606 53.9975C118.961 54.3522 119.16 54.8333 119.16 55.3349C119.16 55.8366 118.961 56.3177 118.606 56.6724C118.252 57.0271 117.771 57.2264 117.269 57.2264H73.6843C73.4227 57.2242 73.1635 57.2772 72.9236 57.3818C72.6838 57.4864 72.4687 57.6403 72.2922 57.8335C72.112 58.0286 71.9749 58.2595 71.8899 58.511C71.8048 58.7626 71.7737 59.0293 71.7985 59.2937C72.365 63.8358 73.5618 68.2768 75.3544 72.4885C78.1235 79.5228 76.6425 84.0263 74.9118 86.5646C72.209 90.5366 66.9299 92.8121 60.4271 92.8121ZM30.2623 43.1824C29.8527 43.1816 29.4543 43.0479 29.1272 42.8012C28.8001 42.5546 28.5619 42.2085 28.4484 41.8148C28.4276 41.7468 26.2581 34.546 20.2812 32.8116C19.8875 32.6975 19.5416 32.4587 19.2954 32.131C19.0492 31.8034 18.9161 31.4047 18.9161 30.9948C18.9161 30.585 19.0492 30.1862 19.2954 29.8586C19.5416 29.531 19.8875 29.2921 20.2812 29.1781C26.2581 27.4417 28.4276 20.241 28.4503 20.1672C28.5762 19.7818 28.8176 19.4444 29.1417 19.2008C29.4659 18.9571 29.8571 18.8191 30.2623 18.8054C30.6709 18.8062 31.0683 18.9393 31.3949 19.1848C31.7216 19.4303 31.9599 19.775 32.0743 20.1672C32.097 20.241 34.2665 27.4417 40.2435 29.1781C40.6372 29.2921 40.9831 29.531 41.2293 29.8586C41.4755 30.1862 41.6086 30.585 41.6086 30.9948C41.6086 31.4047 41.4755 31.8034 41.2293 32.131C40.9831 32.4587 40.6372 32.6975 40.2435 32.8116C34.2665 34.546 32.097 41.7468 32.0743 41.8205C31.9599 42.2128 31.7216 42.5574 31.3949 42.8029C31.0683 43.0484 30.6709 43.1815 30.2623 43.1824ZM25.1649 30.9939C27.2674 32.4826 29.012 34.421 30.2718 36.6682C31.5316 34.421 33.2762 32.4826 35.3787 30.9939C33.2796 29.5041 31.5383 27.5658 30.2813 25.3195C29.0187 27.5677 27.2709 29.5062 25.1649 30.9939ZM88.8972 28.2021C88.4642 28.2021 88.0443 28.0536 87.7076 27.7813C87.3709 27.509 87.1379 27.1294 87.0474 26.706C86.7031 25.1039 85.2221 20.712 82.5268 19.6433C82.1746 19.5035 81.8725 19.2612 81.6596 18.9478C81.4468 18.6343 81.333 18.2641 81.333 17.8852C81.333 17.5063 81.4468 17.1361 81.6596 16.8226C81.8725 16.5092 82.1746 16.2668 82.5268 16.1271C85.2297 15.0565 86.7315 10.5606 87.0455 9.06822C87.1349 8.6434 87.3678 8.26228 87.7049 7.98882C88.0421 7.71536 88.4631 7.56621 88.8972 7.56641C89.3302 7.56637 89.7501 7.71491 90.0868 7.98721C90.4235 8.25951 90.6565 8.63909 90.747 9.06254C91.0913 10.6646 92.5723 15.0565 95.2676 16.1252C95.6198 16.265 95.9219 16.5073 96.1348 16.8207C96.3476 17.1342 96.4614 17.5044 96.4614 17.8833C96.4614 18.2622 96.3476 18.6324 96.1348 18.9459C95.9219 19.2593 95.6198 19.5017 95.2676 19.6414C92.5647 20.712 91.0629 25.2098 90.7489 26.7003C90.6595 27.1251 90.4267 27.5062 90.0895 27.7797C89.7523 28.0531 89.3313 28.2023 88.8972 28.2021ZM86.6048 17.8861C87.52 18.7902 88.2929 19.8278 88.8972 20.9635C89.5015 19.8278 90.2744 18.7902 91.1897 17.8861C90.2748 16.981 89.5019 15.9429 88.8972 14.8069C88.2925 15.9429 87.5196 16.981 86.6048 17.8861Z" fill="black"/>
<path d="M60.5249 61.9113C60.0992 61.9113 59.686 61.7677 59.352 61.5038C59.018 61.2398 58.7829 60.8709 58.6845 60.4568C58.6599 60.3546 56.1613 50.1843 49.3011 47.7595C48.932 47.6293 48.6125 47.3878 48.3865 47.0683C48.1604 46.7489 48.0391 46.3672 48.0391 45.9759C48.0391 45.5845 48.1604 45.2028 48.3865 44.8834C48.6125 44.5639 48.932 44.3224 49.3011 44.1922C56.1613 41.7674 58.6599 31.5971 58.6845 31.4949C58.7828 31.0807 59.0179 30.7117 59.3519 30.4477C59.6859 30.1837 60.0992 30.04 60.5249 30.04C60.9506 30.04 61.3639 30.1837 61.6979 30.4477C62.0319 30.7117 62.267 31.0807 62.3653 31.4949C62.3899 31.5971 64.8885 41.7674 71.7487 44.1922C72.1178 44.3224 72.4373 44.5639 72.6633 44.8834C72.8894 45.2028 73.0107 45.5845 73.0107 45.9759C73.0107 46.3672 72.8894 46.7489 72.6633 47.0683C72.4373 47.3878 72.1178 47.6293 71.7487 47.7595C64.8563 50.1957 62.3899 60.3527 62.3653 60.4549C62.2674 60.8691 62.0327 61.2382 61.699 61.5025C61.3654 61.7667 60.9505 61.9108 60.5249 61.9113ZM53.9521 45.9759C56.825 48.2087 59.0861 51.1322 60.5249 54.4741C61.9648 51.1349 64.2258 48.2141 67.0977 45.9834C64.2248 43.7506 61.9637 40.8271 60.5249 37.4851C59.085 40.8243 56.824 43.7451 53.9521 45.9759Z" fill="black"/>
</svg>
