<svg width="122" height="122" viewBox="0 0 122 122" fill="none" xmlns="http://www.w3.org/2000/svg">
<path d="M84.0765 75.8034C83.2947 74.8253 82.9308 73.7864 82.9308 72.5338V47.3076H83.21C85.0327 47.3076 86.5156 45.8247 86.5156 44.0018V39.7283C86.5156 37.9056 85.0327 36.4228 83.21 36.4228H62.9739C61.1513 36.4228 59.6684 37.9056 59.6684 39.7283V44.0018C59.6684 45.8244 61.1513 47.3076 62.9739 47.3076H63.2531V72.5338C63.2531 73.7862 62.889 74.8251 62.1072 75.8034L48.2646 93.1274V69.4058C48.2646 65.2297 49.368 61.1496 51.4607 57.5422C51.982 57.0426 52.2267 56.4733 52.2267 55.8153C52.2267 53.777 49.8957 52.5859 44.1805 51.7038C39.8153 51.0299 34.0293 50.659 27.8887 50.659C21.7482 50.659 15.9622 51.0302 11.597 51.7038C5.88175 52.5859 3.55078 53.7773 3.55078 55.8153C3.55078 56.4733 3.79549 57.0426 4.31682 57.5422C6.40947 61.1494 7.51289 65.2295 7.51289 69.4058V111.855C7.51289 116.406 11.2149 120.108 15.7655 120.108H40.0122C41.4381 120.108 42.8068 119.743 44.0311 119.054C45.4407 119.737 47.0212 120.108 48.7027 120.108H97.4812C101.646 120.108 105.21 117.867 107.016 114.114C108.821 110.36 108.346 106.177 105.747 102.924L84.0765 75.8036V75.8034ZM62.9808 39.7328L83.2055 39.7283L83.21 43.9975L62.9784 44.0018L62.981 39.7328H62.9808ZM64.693 77.8698C65.9513 76.2952 66.5629 74.5498 66.5629 72.534V47.3078H79.6208V72.534C79.6208 74.5501 80.2324 76.2954 81.4905 77.8698L86.8972 84.6362H59.2865L64.693 77.8698ZM27.889 53.969C38.204 53.969 44.8562 54.9679 47.6834 55.8155C44.8562 56.6629 38.204 57.6618 27.889 57.6618C17.574 57.6618 10.9218 56.6629 8.09451 55.8155C10.9218 54.9682 17.574 53.969 27.889 53.969ZM15.7657 116.797C13.0404 116.797 10.8232 114.58 10.8232 111.855V69.4056C10.8232 65.97 10.1661 62.5921 8.9057 59.4322C9.7039 59.6084 10.5976 59.7724 11.5972 59.9266C15.9625 60.6004 21.7484 60.9714 27.889 60.9714C34.0296 60.9714 39.8155 60.6002 44.1807 59.9266C45.1804 59.7722 46.0741 59.6084 46.8723 59.4322C45.6056 62.6048 44.9549 65.9895 44.9548 69.4056V97.2697L40.4375 102.923C37.838 106.177 37.3635 110.36 39.1689 114.113C39.6216 115.059 40.2079 115.934 40.9099 116.713C40.614 116.768 40.3136 116.796 40.0124 116.797H15.7655L15.7657 116.797ZM104.033 112.679C102.792 115.258 100.343 116.797 97.4815 116.797H48.7027C45.8409 116.797 43.3918 115.258 42.1514 112.679C40.9109 110.1 41.2369 107.225 43.0234 104.99L56.6418 87.9463H89.5421L103.161 104.99C104.947 107.226 105.273 110.1 104.033 112.679V112.679ZM76.7037 88.9374C73.2944 88.9374 70.5205 91.7112 70.5205 95.1205C70.5205 98.5299 73.2944 101.304 76.7037 101.304C80.113 101.304 82.8868 98.5299 82.8868 95.1205C82.8868 91.7112 80.113 88.9374 76.7037 88.9374ZM76.7037 97.9936C75.1194 97.9936 73.8306 96.7048 73.8306 95.1205C73.8306 93.5362 75.1194 92.2474 76.7037 92.2474C78.288 92.2474 79.5768 93.5364 79.5768 95.1205C79.5768 96.7046 78.288 97.9936 76.7037 97.9936ZM73.1154 74.2082C75.7965 74.2082 77.9776 72.0269 77.9776 69.3458C77.9776 66.6646 75.7963 64.4833 73.1154 64.4833C70.4345 64.4833 68.2529 66.6646 68.2529 69.3458C68.2529 72.0269 70.4345 74.2082 73.1154 74.2082ZM73.1154 67.7934C73.9713 67.7934 74.6675 68.4896 74.6675 69.3458C74.6675 70.2019 73.9713 70.8982 73.1154 70.8982C72.2595 70.8982 71.563 70.2019 71.563 69.3458C71.563 68.4896 72.2593 67.7934 73.1154 67.7934ZM117.504 6.074C117.504 3.24653 115.204 0.946289 112.377 0.946289H95.4295C92.602 0.946289 90.3018 3.24653 90.3018 6.074C90.3018 7.83801 91.1971 9.39657 92.5571 10.3196V73.767C92.5571 80.0232 97.647 85.1131 103.903 85.1131C110.159 85.1131 115.249 80.0232 115.249 73.767V10.3196C116.609 9.39657 117.504 7.83801 117.504 6.074ZM95.4295 4.25632H112.377C113.379 4.25632 114.194 5.07177 114.194 6.074C114.194 7.07623 113.379 7.89168 112.377 7.89168H95.4295C94.4273 7.89168 93.6118 7.07623 93.6118 6.07377C93.6118 5.0713 94.4273 4.25632 95.4295 4.25632ZM103.903 81.8028C100.255 81.8028 97.1684 79.3581 96.1913 76.0214H99.2429C99.4602 76.0214 99.6754 75.9786 99.8762 75.8954C100.077 75.8122 100.259 75.6903 100.413 75.5366C100.567 75.383 100.689 75.2005 100.772 74.9997C100.855 74.7989 100.898 74.5837 100.898 74.3664C100.898 74.149 100.855 73.9338 100.772 73.733C100.689 73.5322 100.567 73.3498 100.413 73.1961C100.259 73.0424 100.077 72.9205 99.8762 72.8373C99.6754 72.7542 99.4602 72.7114 99.2429 72.7114H95.8671V68.6358H99.2429C99.6818 68.6358 100.103 68.4614 100.413 68.151C100.724 67.8406 100.898 67.4197 100.898 66.9807C100.898 66.5418 100.724 66.1208 100.413 65.8105C100.103 65.5001 99.6818 65.3257 99.2429 65.3257H95.8671V61.2499H99.2426C99.6816 61.2499 100.103 61.0755 100.413 60.7652C100.723 60.4548 100.898 60.0338 100.898 59.5949C100.898 59.1559 100.723 58.735 100.413 58.4246C100.103 58.1142 99.6816 57.9399 99.2426 57.9399H95.8671V53.8643H99.2426C99.6816 53.8643 100.103 53.6899 100.413 53.3795C100.723 53.0691 100.898 52.6482 100.898 52.2092C100.898 51.7703 100.723 51.3493 100.413 51.039C100.103 50.7286 99.6816 50.5542 99.2426 50.5542H95.8671V46.4786H99.2426C99.6816 46.4786 100.103 46.3043 100.413 45.9939C100.723 45.6835 100.898 45.2626 100.898 44.8236C100.898 44.3847 100.723 43.9637 100.413 43.6533C100.103 43.343 99.6816 43.1686 99.2426 43.1686H95.8671V39.0928H99.2426C99.6816 39.0928 100.103 38.9184 100.413 38.608C100.723 38.2976 100.898 37.8767 100.898 37.4378C100.898 36.9988 100.723 36.5779 100.413 36.2675C100.103 35.9571 99.6816 35.7827 99.2426 35.7827H95.8671V11.202H111.939V73.767C111.939 78.1982 108.334 81.8031 103.903 81.8031L103.903 81.8028ZM91.4035 102.572C88.7896 102.572 86.6631 104.699 86.6631 107.313C86.6631 109.926 88.7896 112.053 91.4035 112.053C94.0175 112.053 96.1442 109.926 96.1442 107.313C96.1442 104.699 94.0175 102.572 91.4035 102.572ZM91.4035 108.743C90.6148 108.743 89.9731 108.102 89.9731 107.313C89.9731 106.524 90.6148 105.882 91.4035 105.882C92.1923 105.882 92.8342 106.524 92.8342 107.313C92.8342 108.102 92.1925 108.743 91.4035 108.743ZM17.8177 73.8186V77.0572H19.9144C20.3533 77.0572 20.7743 77.2316 21.0847 77.5419C21.3951 77.8523 21.5694 78.2733 21.5694 78.7122C21.5694 79.1511 21.3951 79.5721 21.0847 79.8825C20.7743 80.1929 20.3533 80.3672 19.9144 80.3672H17.8177V83.6059H23.3935C23.8324 83.6059 24.2534 83.7802 24.5638 84.0906C24.8741 84.401 25.0485 84.8219 25.0485 85.2609C25.0485 85.6998 24.8741 86.1208 24.5638 86.4311C24.2534 86.7415 23.8324 86.9159 23.3935 86.9159H17.8177V90.1545H19.9144C20.3533 90.1545 20.7743 90.3289 21.0847 90.6393C21.3951 90.9496 21.5694 91.3706 21.5694 91.8095C21.5694 92.2485 21.3951 92.6694 21.0847 92.9798C20.7743 93.2902 20.3533 93.4646 19.9144 93.4646H17.8177V96.7032H23.3935C23.8324 96.7032 24.2534 96.8775 24.5638 97.1879C24.8741 97.4983 25.0485 97.9193 25.0485 98.3582C25.0485 98.7971 24.8741 99.2181 24.5638 99.5285C24.2534 99.8389 23.8324 100.013 23.3935 100.013H17.8177V103.252H19.9144C20.3533 103.252 20.7743 103.426 21.0847 103.736C21.3951 104.047 21.5694 104.468 21.5694 104.907C21.5694 105.346 21.3951 105.767 21.0847 106.077C20.7743 106.387 20.3533 106.562 19.9144 106.562H17.8177V109.8H22.575C23.0139 109.8 23.4349 109.975 23.7452 110.285C24.0556 110.595 24.23 111.016 24.23 111.455C24.23 111.894 24.0556 112.315 23.7452 112.626C23.4349 112.936 23.0139 113.11 22.575 113.11H16.1627C15.7238 113.11 15.3028 112.936 14.9924 112.626C14.6821 112.315 14.5077 111.894 14.5077 111.455V72.1638C14.5077 71.7248 14.6821 71.3039 14.9924 70.9935C15.3028 70.6831 15.7238 70.5088 16.1627 70.5088H23.3935C23.8324 70.5088 24.2534 70.6831 24.5638 70.9935C24.8741 71.3039 25.0485 71.7248 25.0485 72.1638C25.0485 72.6027 24.8741 73.0237 24.5638 73.3341C24.2534 73.6444 23.8324 73.8188 23.3935 73.8188H17.8177V73.8186ZM31.9416 36.9604C36.1064 36.9604 39.4947 33.5721 39.4947 29.4074C39.4947 25.2426 36.1064 21.8541 31.9416 21.8541C27.7769 21.8541 24.3886 25.2426 24.3886 29.4074C24.3886 33.5721 27.7769 36.9604 31.9416 36.9604ZM31.9416 25.1641C34.2814 25.1641 36.1846 27.0677 36.1846 29.4074C36.1846 31.7471 34.2811 33.6504 31.9416 33.6504C29.6022 33.6504 27.6987 31.7469 27.6987 29.4074C27.6987 27.0679 29.6022 25.1641 31.9416 25.1641ZM47.2971 46.8241C50.5473 46.8241 53.1916 44.1798 53.1916 40.9298C53.1916 37.6799 50.5473 35.0354 47.2971 35.0354C44.0469 35.0354 41.4029 37.6796 41.4029 40.9298C41.4029 44.1801 44.0471 46.8241 47.2971 46.8241ZM47.2971 38.3454C48.7221 38.3454 49.8815 39.5046 49.8815 40.9298C49.8815 42.355 48.7223 43.514 47.2971 43.514C45.8719 43.514 44.7129 42.3548 44.7129 40.9298C44.7129 39.5049 45.8722 38.3454 47.2971 38.3454ZM55.7051 23.2888C55.7051 22.8498 55.8794 22.4289 56.1898 22.1185C56.5002 21.8081 56.9212 21.6338 57.3601 21.6338H59.0934V19.9005C59.0934 19.6831 59.1362 19.4679 59.2193 19.2671C59.3025 19.0663 59.4244 18.8839 59.5781 18.7302C59.7318 18.5765 59.9142 18.4546 60.115 18.3714C60.3158 18.2883 60.531 18.2455 60.7484 18.2455C60.9657 18.2455 61.1809 18.2883 61.3817 18.3714C61.5825 18.4546 61.765 18.5765 61.9187 18.7302C62.0723 18.8839 62.1942 19.0663 62.2774 19.2671C62.3606 19.4679 62.4034 19.6831 62.4034 19.9005V21.6338H64.1367C64.5756 21.6338 64.9966 21.8081 65.3069 22.1185C65.6173 22.4289 65.7917 22.8498 65.7917 23.2888C65.7917 23.7277 65.6173 24.1487 65.3069 24.459C64.9966 24.7694 64.5756 24.9438 64.1367 24.9438H62.4034V26.6771C62.4034 27.116 62.229 27.537 61.9187 27.8473C61.6083 28.1577 61.1873 28.3321 60.7484 28.3321C60.3094 28.3321 59.8885 28.1577 59.5781 27.8473C59.2677 27.537 59.0934 27.116 59.0934 26.6771V24.9438H57.3601C56.9212 24.9438 56.5002 24.7694 56.1898 24.459C55.8794 24.1487 55.7051 23.7277 55.7051 23.2888ZM65.6312 102.894C65.6312 103.333 65.4568 103.754 65.1464 104.064C64.836 104.374 64.4151 104.549 63.9761 104.549H62.6597V105.865C62.6597 106.304 62.4853 106.725 62.1749 107.035C61.8646 107.346 61.4436 107.52 61.0047 107.52C60.5657 107.52 60.1448 107.346 59.8344 107.035C59.524 106.725 59.3497 106.304 59.3497 105.865V104.549H58.0332C57.5943 104.549 57.1733 104.374 56.8629 104.064C56.5526 103.754 56.3782 103.333 56.3782 102.894C56.3782 102.455 56.5526 102.034 56.8629 101.723C57.1733 101.413 57.5943 101.239 58.0332 101.239H59.3497V99.922C59.3497 99.483 59.524 99.0621 59.8344 98.7517C60.1448 98.4413 60.5657 98.2669 61.0047 98.2669C61.4436 98.2669 61.8646 98.4413 62.1749 98.7517C62.4853 99.0621 62.6597 99.483 62.6597 99.922V101.239H63.9761C64.4151 101.239 64.836 101.413 65.1464 101.723C65.4568 102.034 65.6312 102.455 65.6312 102.894Z" fill="black"/>
</svg>
