<svg width="407" height="136" viewBox="0 0 407 136" fill="none" xmlns="http://www.w3.org/2000/svg">
<path d="M1.36319 8.3497C0.914511 8.59235 0.354075 8.42533 0.111422 7.97665C-0.131231 7.52798 0.0357862 6.96754 0.484466 6.72488L0.923828 7.53729L1.36319 8.3497ZM406.071 116.995C406.574 117.076 406.917 117.55 406.836 118.054L405.515 126.261C405.434 126.764 404.96 127.107 404.456 127.026C403.952 126.945 403.61 126.471 403.691 125.967L404.865 118.672L397.57 117.498C397.067 117.417 396.724 116.943 396.805 116.439C396.886 115.936 397.36 115.593 397.864 115.674L406.071 116.995ZM10.8002 2.47617C11.2893 2.33128 11.8032 2.61032 11.9481 3.09941C12.093 3.5885 11.8139 4.10242 11.3248 4.2473L11.0625 3.36172L10.8002 2.47617ZM32.7228 1.84641C32.2131 1.82588 31.8166 1.39607 31.8371 0.886383C31.8576 0.376709 32.2874 -0.0198364 32.7971 0.000686646L32.76 0.923538L32.7228 1.84641ZM54.6691 3.26891C55.1647 3.38954 55.4687 3.88911 55.3481 4.38474C55.2274 4.88036 54.7279 5.18434 54.2323 5.06371L54.4507 4.16631L54.6691 3.26891ZM75.1394 11.5887C74.6613 11.4107 74.418 10.8789 74.596 10.4009C74.7739 9.92284 75.3057 9.67956 75.7838 9.85751L75.4616 10.7231L75.1394 11.5887ZM96.0775 18.3229C96.5415 18.5349 96.7458 19.0828 96.5339 19.5468C96.3219 20.0107 95.774 20.2151 95.31 20.0031L95.6938 19.163L96.0775 18.3229ZM115.046 29.612C114.592 29.3791 114.413 28.8224 114.646 28.3686C114.879 27.9147 115.435 27.7357 115.889 27.9686L115.467 28.7903L115.046 29.612ZM135.292 38.3067C135.739 38.5524 135.902 39.1139 135.657 39.561C135.411 40.008 134.85 40.1712 134.403 39.9256L134.847 39.1161L135.292 38.3067ZM153.584 50.689C153.141 50.4363 152.986 49.8722 153.239 49.4292C153.492 48.9861 154.056 48.8318 154.499 49.0845L154.041 49.8868L153.584 50.689ZM173.531 60.0362C173.973 60.2916 174.124 60.8566 173.868 61.2981C173.613 61.7397 173.048 61.8906 172.606 61.6352L173.069 60.8357L173.531 60.0362ZM191.641 72.6291C191.199 72.3749 191.046 71.8103 191.3 71.3681C191.555 70.9259 192.119 70.7735 192.562 71.0277L192.101 71.8284L191.641 72.6291ZM211.655 81.8829C212.1 82.1323 212.259 82.6952 212.009 83.1401C211.76 83.5851 211.197 83.7437 210.752 83.4944L211.203 82.6887L211.655 81.8829ZM230.048 94.0751C229.598 93.8347 229.428 93.2751 229.669 92.8252C229.909 92.3753 230.469 92.2055 230.919 92.446L230.483 93.2605L230.048 94.0751ZM250.413 102.512C250.87 102.739 251.057 103.293 250.83 103.75C250.603 104.207 250.049 104.393 249.592 104.167L250.003 103.339L250.413 102.512ZM269.503 113.544C269.036 113.338 268.826 112.792 269.033 112.326C269.24 111.859 269.785 111.649 270.251 111.856L269.877 112.7L269.503 113.544ZM290.549 120.171C291.027 120.349 291.27 120.881 291.092 121.359C290.914 121.837 290.382 122.08 289.904 121.902L290.227 121.036L290.549 120.171ZM310.826 128.767C310.335 128.63 310.048 128.12 310.185 127.629C310.322 127.138 310.832 126.851 311.323 126.988L311.074 127.878L310.826 128.767ZM332.672 131.681C333.176 131.759 333.522 132.231 333.444 132.735C333.366 133.239 332.894 133.585 332.39 133.507L332.531 132.594L332.672 131.681ZM354.434 135.15C353.924 135.157 353.505 134.749 353.498 134.239C353.491 133.729 353.899 133.31 354.409 133.303L354.422 134.227L354.434 135.15ZM375.941 130.696C376.436 130.576 376.935 130.881 377.055 131.377C377.174 131.873 376.869 132.372 376.373 132.491L376.157 131.593L375.941 130.696ZM397.047 124.584C396.599 124.827 396.038 124.661 395.795 124.212C395.552 123.764 395.719 123.203 396.167 122.96L396.607 123.772L397.047 124.584ZM0.923828 7.53729L0.484466 6.72488C3.77967 4.94278 7.22197 3.53607 10.8002 2.47617L11.0625 3.36172L11.3248 4.2473C7.86492 5.27217 4.54173 6.63069 1.36319 8.3497L0.923828 7.53729ZM32.76 0.923538L32.7971 0.000686646C39.7673 0.281311 47.0755 1.42056 54.6691 3.26891L54.4507 4.16631L54.2323 5.06371C46.7311 3.23788 39.5464 2.12111 32.7228 1.84641L32.76 0.923538ZM75.4616 10.7231L75.7838 9.85751C82.3894 12.3164 89.1631 15.1644 96.0775 18.3229L95.6938 19.163L95.31 20.0031C88.4278 16.8593 81.6957 14.0292 75.1394 11.5887L75.4616 10.7231ZM115.467 28.7903L115.889 27.9686C122.269 31.2433 128.743 34.7077 135.292 38.3067L134.847 39.1161L134.403 39.9256C127.865 36.3329 121.407 32.877 115.046 29.612L115.467 28.7903ZM154.041 49.8868L154.499 49.0845C160.797 52.6773 167.147 56.3434 173.531 60.0362L173.069 60.8357L172.606 61.6352C166.223 57.9426 159.877 54.2789 153.584 50.689L154.041 49.8868ZM192.101 71.8284L192.562 71.0277C198.912 74.6787 205.282 78.3116 211.655 81.8829L211.203 82.6887L210.752 83.4944C204.371 79.9186 197.995 76.2821 191.641 72.6291L192.101 71.8284ZM230.483 93.2605L230.919 92.446C237.435 95.9284 243.938 99.2993 250.413 102.512L250.003 103.339L249.592 104.167C243.098 100.944 236.577 97.5647 230.048 94.0751L230.483 93.2605ZM269.877 112.7L270.251 111.856C277.077 114.882 283.849 117.673 290.549 120.171L290.227 121.036L289.904 121.902C283.164 119.389 276.357 116.584 269.503 113.544L269.877 112.7ZM311.074 127.878L311.323 126.988C318.565 129.012 325.691 130.602 332.672 131.681L332.531 132.594L332.39 133.507C325.326 132.415 318.128 130.808 310.826 128.767L311.074 127.878ZM354.422 134.227L354.409 133.303C361.813 133.202 369.001 132.368 375.941 130.696L376.157 131.593L376.373 132.491C369.287 134.199 361.96 135.048 354.434 135.15L354.422 134.227ZM396.607 123.772L396.167 122.96C399.307 121.258 402.38 119.329 405.383 117.159L405.924 117.907L406.465 118.656C403.398 120.872 400.257 122.844 397.047 124.584L396.607 123.772Z" fill="#0E0E0E"/>
</svg>
