<svg width="383" height="75" viewBox="0 0 383 75" fill="none" xmlns="http://www.w3.org/2000/svg">
<path d="M0.921875 0.000472307C0.412998 0.000472307 0.000472307 0.412998 0.000472307 0.921875C0.000472307 1.43075 0.412998 1.84328 0.921875 1.84328V0.921875V0.000472307ZM382.812 50.4554C382.944 49.9639 382.652 49.4586 382.16 49.3269L374.15 47.1806C373.659 47.0489 373.154 47.3406 373.022 47.8322C372.89 48.3237 373.182 48.8289 373.673 48.9606L380.793 50.8685L378.886 57.9885C378.754 58.48 379.046 58.9853 379.537 59.117C380.029 59.2487 380.534 58.957 380.666 58.4655L382.812 50.4554ZM11.7924 2.32626C12.2994 2.36962 12.7456 1.99375 12.789 1.48672C12.8323 0.979699 12.4565 0.533519 11.9494 0.490154L11.8709 1.4082L11.7924 2.32626ZM33.7632 3.78053C33.2649 3.67725 32.7773 3.99747 32.674 4.49576C32.5707 4.99404 32.8909 5.48171 33.3892 5.58498L33.5762 4.68275L33.7632 3.78053ZM54.6535 10.8711C55.143 11.0102 55.6526 10.7261 55.7917 10.2366C55.9308 9.74716 55.6468 9.23757 55.1573 9.09846L54.9054 9.98477L54.6535 10.8711ZM76.198 15.617C75.715 15.4569 75.1936 15.7187 75.0335 16.2018C74.8734 16.6848 75.1352 17.2062 75.6183 17.3663L75.9081 16.4917L76.198 15.617ZM96.3858 24.5512C96.865 24.7225 97.3923 24.4729 97.5636 23.9937C97.7349 23.5145 97.4853 22.9872 97.0061 22.8159L96.696 23.6835L96.3858 24.5512ZM117.679 30.3312C117.201 30.1558 116.672 30.4009 116.497 30.8786C116.321 31.3563 116.566 31.8857 117.044 32.0611L117.362 31.1962L117.679 30.3312ZM137.677 39.619C138.156 39.7928 138.684 39.5459 138.858 39.0677C139.032 38.5894 138.785 38.0608 138.307 37.887L137.992 38.753L137.677 39.619ZM159.006 45.2652C158.525 45.0981 158 45.3523 157.833 45.8329C157.666 46.3136 157.92 46.8387 158.4 47.0058L158.703 46.1355L159.006 45.2652ZM179.267 54.0004C179.752 54.1559 180.271 53.8892 180.426 53.4047C180.582 52.9201 180.315 52.4013 179.831 52.2458L179.549 53.1231L179.267 54.0004ZM200.837 58.611C200.347 58.4723 199.838 58.7567 199.699 59.2463C199.561 59.7359 199.845 60.2453 200.335 60.384L200.586 59.4975L200.837 58.611ZM221.651 65.9231C222.146 66.0393 222.642 65.7319 222.758 65.2365C222.874 64.741 222.567 64.2452 222.072 64.129L221.861 65.026L221.651 65.9231ZM243.542 68.536C243.041 68.4487 242.563 68.7844 242.476 69.2858C242.389 69.7871 242.725 70.2643 243.226 70.3515L243.384 69.4437L243.542 68.536ZM265.069 73.3734C265.575 73.4243 266.027 73.0552 266.078 72.5488C266.128 72.0425 265.759 71.5908 265.253 71.5398L265.161 72.4566L265.069 73.3734ZM287.108 72.8082C286.599 72.8015 286.182 73.2086 286.175 73.7174C286.168 74.2262 286.575 74.6441 287.084 74.6508L287.096 73.7295L287.108 72.8082ZM309.13 73.8365C309.636 73.7911 310.01 73.3434 309.965 72.8365C309.919 72.3297 309.472 71.9557 308.965 72.0011L309.047 72.9188L309.13 73.8365ZM330.59 68.8083C330.092 68.9123 329.772 69.4004 329.876 69.8986C329.98 70.3967 330.468 70.7162 330.966 70.6123L330.778 69.7103L330.59 68.8083ZM352.243 64.7668C352.724 64.6012 352.98 64.0769 352.815 63.5957C352.649 63.1145 352.125 62.8587 351.643 63.0244L351.943 63.8956L352.243 64.7668ZM371.8 54.5976C371.344 54.8236 371.158 55.3765 371.384 55.8324C371.61 56.2883 372.163 56.4747 372.619 56.2486L372.21 55.4231L371.8 54.5976ZM0.921875 0.921875V1.84328C4.46287 1.84328 8.08773 2.0094 11.7924 2.32626L11.8709 1.4082L11.9494 0.490154C8.19779 0.169278 4.5203 0.000472307 0.921875 0.000472307V0.921875ZM33.5762 4.68275L33.3892 5.58498C40.2754 7.01222 47.3708 8.80141 54.6535 10.8711L54.9054 9.98477L55.1573 9.09846C47.8413 7.01935 40.7018 5.21863 33.7632 3.78053L33.5762 4.68275ZM75.9081 16.4917L75.6183 17.3663C82.4161 19.6194 89.3437 22.0338 96.3858 24.5512L96.696 23.6835L97.0061 22.8159C89.9555 20.2955 83.0137 17.876 76.198 15.617L75.9081 16.4917ZM117.362 31.1962L117.044 32.0611C123.84 34.5562 130.723 37.0922 137.677 39.619L137.992 38.753L138.307 37.887C131.357 35.3616 124.478 32.8273 117.679 30.3312L117.362 31.1962ZM158.703 46.1355L158.4 47.0058C165.304 49.4061 172.264 51.7527 179.267 54.0004L179.549 53.1231L179.831 52.2458C172.844 50.0035 165.898 47.6617 159.006 45.2652L158.703 46.1355ZM200.586 59.4975L200.335 60.384C207.413 62.3895 214.522 64.251 221.651 65.9231L221.861 65.026L222.072 64.129C214.974 62.4641 207.892 60.6098 200.837 58.611L200.586 59.4975ZM243.384 69.4437L243.226 70.3515C250.504 71.618 257.79 72.6413 265.069 73.3734L265.161 72.4566L265.253 71.5398C258.022 70.8126 250.781 69.7957 243.542 68.536L243.384 69.4437ZM287.096 73.7295L287.084 74.6508C294.458 74.7474 301.811 74.4928 309.13 73.8365L309.047 72.9188L308.965 72.0011C301.713 72.6514 294.423 72.904 287.108 72.8082L287.096 73.7295ZM330.778 69.7103L330.966 70.6123C338.111 69.1209 345.208 67.1886 352.243 64.7668L351.943 63.8956L351.643 63.0244C344.684 65.4201 337.662 67.3322 330.59 68.8083L330.778 69.7103ZM372.21 55.4231L372.619 56.2486C375.891 54.6262 379.146 52.8834 382.383 51.0149L381.922 50.2169L381.461 49.419C378.259 51.268 375.038 52.9925 371.8 54.5976L372.21 55.4231Z" fill="#0E0E0E"/>
</svg>
