<svg width="100" height="100" viewBox="0 0 100 100" fill="none" xmlns="http://www.w3.org/2000/svg">
<g clip-path="url(#clip0_1245_43)">
<path d="M57.9688 27.9204V64.1111M57.9688 66.1035V68.0957C57.9688 72.4777 54.3828 76.0644 50 76.0644C45.6172 76.0644 42.0312 72.4785 42.0312 68.0957V27.9204" stroke="black" stroke-width="2" stroke-miterlimit="22.9256"/>
<path d="M50.9961 23.936H57.9688C59.0645 23.936 59.9609 24.8325 59.9609 25.9282C59.9609 27.0239 59.0643 27.9204 57.9688 27.9204H42.0312C40.9357 27.9204 40.0391 27.0239 40.0391 25.9282C40.0391 24.8325 40.9355 23.936 42.0312 23.936H49.0039" stroke="black" stroke-width="2" stroke-miterlimit="22.9256"/>
<path d="M48.769 71.3188C49.8693 71.3188 50.7612 70.4269 50.7612 69.3267C50.7612 68.2264 49.8693 67.3345 48.769 67.3345C47.6688 67.3345 46.7769 68.2264 46.7769 69.3267C46.7769 70.4269 47.6688 71.3188 48.769 71.3188Z" stroke="black" stroke-width="2" stroke-miterlimit="22.9256"/>
<path d="M42.0312 35.8892H57.9688" stroke="black" stroke-width="2" stroke-miterlimit="22.9256"/>
<path d="M53.9844 40.8696V38.8774M53.9844 44.8541V42.8619" stroke="black" stroke-width="2" stroke-miterlimit="22.9256"/>
<path fill-rule="evenodd" clip-rule="evenodd" d="M80.0155 47.0117C81.6658 47.0117 83.0038 48.3497 83.0038 50C83.0038 51.6503 81.6658 52.9883 80.0155 52.9883C78.3652 52.9883 77.0272 51.6503 77.0272 50C77.0272 48.3497 78.365 47.0117 80.0155 47.0117ZM75.2222 36.7974C76.8725 36.7974 78.2104 35.4594 78.2104 33.8091C78.2104 32.1588 76.8725 30.8208 75.2222 30.8208C73.5718 30.8208 72.2339 32.1588 72.2339 33.8091C72.2339 35.4594 73.5717 36.7974 75.2222 36.7974ZM75.2222 63.2026C76.8725 63.2026 78.2104 64.5406 78.2104 66.1909C78.2104 67.8412 76.8725 69.1792 75.2222 69.1792C73.5718 69.1792 72.2339 67.8412 72.2339 66.1909C72.2339 64.5406 73.5717 63.2026 75.2222 63.2026Z" stroke="black" stroke-width="2" stroke-miterlimit="22.9256"/>
<path d="M77.0273 50.0004H60.957M73.1092 35.9224L71.273 37.7587C68.537 40.4947 64.8263 42.0317 60.957 42.0317M73.1092 64.0782L71.273 62.242C68.5371 59.506 64.8263 57.969 60.957 57.969" stroke="black" stroke-width="2" stroke-miterlimit="22.9256"/>
<path fill-rule="evenodd" clip-rule="evenodd" d="M19.9844 47.0117C18.334 47.0117 16.9961 48.3497 16.9961 50C16.9961 51.6503 18.334 52.9883 19.9844 52.9883C21.6347 52.9883 22.9727 51.6503 22.9727 50C22.9727 48.3497 21.6347 47.0117 19.9844 47.0117ZM24.7777 36.7974C23.1274 36.7974 21.7894 35.4594 21.7894 33.8091C21.7894 32.1588 23.1274 30.8208 24.7777 30.8208C26.428 30.8208 27.766 32.1588 27.766 33.8091C27.766 35.4594 26.428 36.7974 24.7777 36.7974ZM24.7777 63.2026C23.1274 63.2026 21.7894 64.5406 21.7894 66.1909C21.7894 67.8412 23.1274 69.1792 24.7777 69.1792C26.428 69.1792 27.766 67.8412 27.766 66.1909C27.766 64.5406 26.428 63.2026 24.7777 63.2026Z" stroke="black" stroke-width="2" stroke-miterlimit="22.9256"/>
<path d="M22.9727 50.0004H39.043M26.8908 35.9224L28.727 37.7587C31.463 40.4947 35.1737 42.0317 39.043 42.0317M26.8908 64.0782L28.727 62.242C31.4629 59.506 35.1737 57.969 39.043 57.969" stroke="black" stroke-width="2" stroke-miterlimit="22.9256"/>
<path d="M47.7729 63.3501H45.7808M49.7653 59.3657H47.7731" stroke="black" stroke-width="2" stroke-miterlimit="22.9256"/>
</g>
<defs>
<clipPath id="clip0_1245_43">
<rect width="68" height="68" fill="white" transform="translate(16 16)"/>
</clipPath>
</defs>
</svg>
