<svg width="48" height="48" viewBox="0 0 48 48" fill="none" xmlns="http://www.w3.org/2000/svg">
<g clip-path="url(#clip0_376_59)">
<path d="M37.9354 29.7343C36.9527 28.7111 35.7674 28.164 34.5112 28.164C33.2651 28.164 32.0697 28.7009 31.0465 29.7242L27.8452 32.9153C27.5818 32.7735 27.3184 32.6418 27.0651 32.5101C26.7004 32.3277 26.356 32.1555 26.0622 31.9732C23.0635 30.0686 20.3383 27.5866 17.7246 24.3751C16.4582 22.7745 15.6072 21.4271 14.9893 20.0594C15.82 19.2996 16.5899 18.5094 17.3396 17.7496C17.6233 17.466 17.9069 17.1722 18.1906 16.8885C20.318 14.7611 20.318 12.0055 18.1906 9.87805L15.4249 7.11236C15.1108 6.79831 14.7867 6.47413 14.4827 6.14994C13.8749 5.52184 13.2367 4.87347 12.5782 4.26563C11.5955 3.29308 10.4203 2.77641 9.18437 2.77641C7.94842 2.77641 6.75299 3.29308 5.73992 4.26563L5.71966 4.28589L2.27521 7.76073C0.978477 9.05746 0.238934 10.6379 0.0768427 12.4715C-0.166295 15.4297 0.704948 18.1852 1.37358 19.9885C3.01475 24.4156 5.46639 28.5186 9.12358 32.9153C13.5608 38.2137 18.8997 42.3977 24.9984 45.3457C27.3285 46.45 30.4386 47.7568 33.9135 47.9797C34.1262 47.9899 34.3491 48 34.5517 48C36.8919 48 38.8573 47.1591 40.3971 45.4876C40.4073 45.4673 40.4275 45.4572 40.4377 45.4369C40.9645 44.7987 41.5723 44.2212 42.2105 43.6032C42.6462 43.1879 43.0919 42.7523 43.5275 42.2964C44.5305 41.2529 45.0573 40.0372 45.0573 38.7912C45.0573 37.5349 44.5203 36.3294 43.4971 35.3163L37.9354 29.7343ZM41.5622 40.4019C41.552 40.4121 41.552 40.4019 41.5622 40.4019C41.1671 40.8274 40.7618 41.2124 40.3262 41.6379C39.6677 42.266 38.9991 42.9245 38.371 43.664C37.3478 44.7582 36.1422 45.2748 34.5618 45.2748C34.4099 45.2748 34.2478 45.2748 34.0958 45.2647C31.087 45.0722 28.2909 43.897 26.1939 42.8941C20.4599 40.1183 15.4249 36.1774 11.2409 31.183C7.78633 27.0192 5.47652 23.1696 3.94678 19.0362C3.00462 16.5137 2.66018 14.5483 2.81214 12.6944C2.91345 11.5091 3.36933 10.5264 4.21018 9.68557L7.66476 6.23099C8.16116 5.76497 8.68796 5.51171 9.20463 5.51171C9.84287 5.51171 10.3595 5.89667 10.6837 6.22086L10.7141 6.25125C11.3321 6.8287 11.9197 7.42641 12.5376 8.06465C12.8517 8.38883 13.1759 8.71302 13.5001 9.04733L16.2657 11.813C17.3396 12.8869 17.3396 13.8797 16.2657 14.9535C15.972 15.2473 15.6883 15.5411 15.3945 15.8248C14.5435 16.696 13.7331 17.5065 12.8517 18.2967C12.8314 18.3169 12.8112 18.3271 12.801 18.3473C11.9298 19.2186 12.0919 20.0696 12.2742 20.647L12.3046 20.7382C13.0239 22.4807 14.037 24.1219 15.5769 26.0771L15.587 26.0872C18.3831 29.5317 21.3311 32.2163 24.5831 34.2728C24.9984 34.5362 25.4239 34.749 25.8292 34.9516C26.1939 35.134 26.5383 35.3062 26.8321 35.4885C26.8726 35.5088 26.9131 35.5392 26.9537 35.5595C27.2981 35.7317 27.6223 35.8127 27.9566 35.8127C28.7975 35.8127 29.3243 35.2859 29.4965 35.1137L32.9612 31.649C33.3056 31.3045 33.8527 30.8892 34.4909 30.8892C35.119 30.8892 35.6357 31.2843 35.9498 31.6287L35.97 31.649L41.552 37.231C42.5955 38.2644 42.5955 39.3281 41.5622 40.4019ZM25.9406 11.4179C28.5948 11.8637 31.006 13.1199 32.9308 15.0447C34.8556 16.9696 36.1017 19.3807 36.5576 22.0349C36.669 22.7036 37.2465 23.1696 37.905 23.1696C37.986 23.1696 38.0569 23.1594 38.138 23.1493C38.8877 23.0277 39.3841 22.3186 39.2625 21.5689C38.7154 18.3575 37.1958 15.4297 34.8759 13.1098C32.556 10.7898 29.6282 9.27021 26.4167 8.72315C25.6671 8.60158 24.968 9.09798 24.8363 9.83753C24.7046 10.5771 25.1909 11.2964 25.9406 11.4179ZM47.9445 21.1738C47.0429 15.8856 44.5507 11.0735 40.7213 7.24406C36.8919 3.41464 32.0798 0.922485 26.7916 0.0208505C26.052 -0.110849 25.353 0.395688 25.2213 1.13523C25.0997 1.8849 25.5961 2.58393 26.3458 2.71562C31.0667 3.51595 35.3723 5.75484 38.7965 9.1689C42.2207 12.5931 44.4494 16.8986 45.2498 21.6196C45.3612 22.2882 45.9387 22.7542 46.5971 22.7542C46.6782 22.7542 46.7491 22.7441 46.8302 22.7339C47.5697 22.6225 48.0762 21.9134 47.9445 21.1738Z" fill="white"/>
</g>
<defs>
<clipPath id="clip0_376_59">
<rect width="48" height="48" fill="white"/>
</clipPath>
</defs>
</svg>
