<svg width="48" height="48" viewBox="0 0 48 48" fill="none" xmlns="http://www.w3.org/2000/svg">
<path fill-rule="evenodd" clip-rule="evenodd" d="M10.0002 35.1725C9.62489 35.5478 9.41406 36.0567 9.41406 36.5875C9.41406 37.1182 9.62489 37.6272 10.0002 38.0025C10.3755 38.3778 10.8844 38.5886 11.4152 38.5886C11.9459 38.5886 12.4549 38.3778 12.8302 38.0025L24.0002 26.8285L35.1722 38.0005C35.5494 38.3648 36.0546 38.5664 36.579 38.5618C37.1034 38.5573 37.605 38.3469 37.9758 37.9761C38.3466 37.6053 38.557 37.1037 38.5615 36.5793C38.5661 36.0549 38.3645 35.5497 38.0002 35.1725L26.8282 24.0005L38.0002 12.8285C38.3752 12.4532 38.5858 11.9443 38.5856 11.4138C38.5854 10.8832 38.3745 10.3745 37.9992 9.99947C37.6239 9.62445 37.115 9.41388 36.5845 9.41406C36.0539 9.41425 35.5452 9.62519 35.1702 10.0005L24.0002 21.1725L12.8282 10.0005C12.451 9.63615 11.9458 9.43456 11.4214 9.43912C10.897 9.44368 10.3954 9.65401 10.0245 10.0248C9.65372 10.3956 9.44338 10.8973 9.43883 11.4217C9.43427 11.9461 9.63586 12.4513 10.0002 12.8285L21.1722 24.0005L10.0002 35.1725Z" fill="black"/>
</svg>
