<svg width="128" height="40" viewBox="0 0 128 40" fill="none" xmlns="http://www.w3.org/2000/svg">
<g clip-path="url(#clip0_2693_2484)">
<g clip-path="url(#clip1_2693_2484)">
<path d="M5.17 38.7504V23.7104H16.34V22.4604H5.17V4.65039H19.2V3.40039H0V40.0004H21.29V38.7504H5.17Z" fill="#231F20"/>
<path d="M31.8502 0V40H26.6802V3L31.8502 0Z" fill="#231F20"/>
<path d="M42.38 0V40H37.21V3L42.38 0Z" fill="#231F20"/>
<path d="M47.77 40.0006V16.8906L52.88 13.8906V40.0006H47.77Z" fill="#231F20"/>
<path d="M96.5399 26.8391L76.6099 26.9491C76.7199 29.0391 77.1599 30.9991 77.9399 32.8291C78.7199 34.6491 79.8299 36.1391 81.2499 37.2691C82.6699 38.3991 84.3399 38.9691 86.2499 38.9691C88.4799 38.9691 90.3799 38.3291 91.9599 37.0391C93.5499 35.7391 94.7199 34.1591 95.4799 32.2891L96.1599 32.3391C95.4199 34.4591 94.1199 36.2691 92.2199 37.7791C90.3199 39.2691 87.8899 40.0191 84.9399 40.0191C81.9899 40.0191 79.4799 39.4191 77.4599 38.1891C75.4199 36.9591 73.8999 35.3791 72.8999 33.3991C71.8999 31.4291 71.3799 29.3191 71.3799 27.0491C71.3799 24.7791 71.9099 22.5091 72.9699 20.4191C74.0299 18.3291 75.5799 16.6291 77.6199 15.3291C79.6599 14.0191 82.0799 13.3691 84.8999 13.3691C87.7199 13.3691 89.8899 14.0091 91.6299 15.3091C93.3699 16.5991 94.6199 18.1991 95.3899 20.1191C96.1599 22.0291 96.5399 23.9891 96.5399 25.9691V26.8591V26.8391ZM80.5299 15.7591C79.1999 16.8791 78.2199 18.3491 77.5599 20.1791C76.8899 22.0091 76.5899 23.9691 76.6199 26.0591L92.0599 25.9491C92.0599 22.2591 91.5899 19.3591 90.6499 17.2491C89.7099 15.1491 87.9599 14.0891 85.3799 14.0891C83.4699 14.0891 81.8499 14.6491 80.5299 15.7591Z" fill="#231F20"/>
<path d="M126.55 26.8391L106.62 26.9491C106.73 29.0391 107.17 30.9991 107.95 32.8291C108.73 34.6491 109.84 36.1391 111.26 37.2691C112.68 38.3991 114.35 38.9691 116.26 38.9691C118.49 38.9691 120.38 38.3291 121.97 37.0391C123.56 35.7391 124.73 34.1591 125.49 32.2891L126.17 32.3391C125.43 34.4591 124.13 36.2691 122.23 37.7791C120.33 39.2691 117.9 40.0191 114.95 40.0191C112 40.0191 109.49 39.4191 107.47 38.1891C105.43 36.9591 103.91 35.3791 102.91 33.3991C101.9 31.4291 101.39 29.3191 101.39 27.0491C101.39 24.7791 101.92 22.5091 102.98 20.4191C104.04 18.3291 105.59 16.6291 107.63 15.3291C109.67 14.0191 112.09 13.3691 114.91 13.3691C117.73 13.3691 119.9 14.0091 121.64 15.3091C123.38 16.5991 124.63 18.1991 125.4 20.1191C126.17 22.0291 126.55 23.9891 126.55 25.9691V26.8591V26.8391ZM110.54 15.7591C109.21 16.8791 108.23 18.3491 107.57 20.1791C106.9 22.0091 106.6 23.9691 106.63 26.0591L122.07 25.9491C122.07 22.2591 121.6 19.3591 120.66 17.2491C119.72 15.1491 117.97 14.0891 115.39 14.0891C113.48 14.0891 111.86 14.6491 110.54 15.7591Z" fill="#231F20"/>
<path d="M50.3298 3.66992C50.2498 6.27992 48.1298 8.37992 45.5098 8.42992C48.1298 8.47992 50.2498 10.5899 50.3298 13.2099C50.4098 10.5999 52.5198 8.49992 55.1298 8.44992C52.5098 8.38992 50.3998 6.28992 50.3298 3.66992Z" fill="#F6967F"/>
<path d="M70.13 39.8405L70.08 39.2705C69.43 39.3805 68.8 39.4305 68.21 39.4305C66.3 39.4305 65 38.8305 64.3 37.6205C63.6 36.4205 63.36 34.4305 63.4 31.6405V14.0805H69.5V12.8305H63.4V2.81055L58.23 5.81055V31.8505C58.23 34.5705 59.05 36.6105 60.69 37.9705C62.32 39.3405 64.59 40.0105 67.47 40.0105C68.29 40.0105 69.19 39.9705 70.12 39.8605H70.13V39.8405Z" fill="#231F20"/>
</g>
</g>
<defs>
<clipPath id="clip0_2693_2484">
<rect width="128" height="40" fill="white"/>
</clipPath>
<clipPath id="clip1_2693_2484">
<rect width="126.56" height="40" fill="white"/>
</clipPath>
</defs>
</svg>
