<svg width="120" height="120" viewBox="0 0 120 120" fill="none" xmlns="http://www.w3.org/2000/svg">
<g clip-path="url(#clip0_1590_1331)">
<path d="M1.875 26.25C2.37228 26.25 2.84919 26.0525 3.20083 25.7008C3.55246 25.3492 3.75 24.8723 3.75 24.375V5.625C3.75 5.12772 3.94754 4.65081 4.29917 4.29917C4.65081 3.94754 5.12772 3.75 5.625 3.75H24.375C24.8723 3.75 25.3492 3.55246 25.7008 3.20083C26.0525 2.84919 26.25 2.37228 26.25 1.875C26.25 1.37772 26.0525 0.900806 25.7008 0.549175C25.3492 0.197544 24.8723 0 24.375 0L5.625 0C4.13361 0.00148915 2.70374 0.5946 1.64917 1.64917C0.5946 2.70374 0.00148915 4.13361 0 5.625L0 24.375C0 24.8723 0.197544 25.3492 0.549175 25.7008C0.900806 26.0525 1.37772 26.25 1.875 26.25ZM24.375 116.25H5.625C5.12772 116.25 4.65081 116.052 4.29917 115.701C3.94754 115.349 3.75 114.872 3.75 114.375V95.625C3.75 95.1277 3.55246 94.6508 3.20083 94.2992C2.84919 93.9475 2.37228 93.75 1.875 93.75C1.37772 93.75 0.900806 93.9475 0.549175 94.2992C0.197544 94.6508 0 95.1277 0 95.625L0 114.375C0.00148915 115.866 0.5946 117.296 1.64917 118.351C2.70374 119.405 4.13361 119.999 5.625 120H24.375C24.8723 120 25.3492 119.802 25.7008 119.451C26.0525 119.099 26.25 118.622 26.25 118.125C26.25 117.628 26.0525 117.151 25.7008 116.799C25.3492 116.448 24.8723 116.25 24.375 116.25ZM118.125 93.75C117.628 93.75 117.151 93.9475 116.799 94.2992C116.448 94.6508 116.25 95.1277 116.25 95.625V114.375C116.25 114.872 116.052 115.349 115.701 115.701C115.349 116.052 114.872 116.25 114.375 116.25H95.625C95.1277 116.25 94.6508 116.448 94.2992 116.799C93.9475 117.151 93.75 117.628 93.75 118.125C93.75 118.622 93.9475 119.099 94.2992 119.451C94.6508 119.802 95.1277 120 95.625 120H114.375C115.866 119.999 117.296 119.405 118.351 118.351C119.405 117.296 119.999 115.866 120 114.375V95.625C120 95.1277 119.802 94.6508 119.451 94.2992C119.099 93.9475 118.622 93.75 118.125 93.75ZM114.375 0H95.625C95.1277 0 94.6508 0.197544 94.2992 0.549175C93.9475 0.900806 93.75 1.37772 93.75 1.875C93.75 2.37228 93.9475 2.84919 94.2992 3.20083C94.6508 3.55246 95.1277 3.75 95.625 3.75H114.375C114.872 3.75 115.349 3.94754 115.701 4.29917C116.052 4.65081 116.25 5.12772 116.25 5.625V24.375C116.25 24.8723 116.448 25.3492 116.799 25.7008C117.151 26.0525 117.628 26.25 118.125 26.25C118.622 26.25 119.099 26.0525 119.451 25.7008C119.802 25.3492 120 24.8723 120 24.375V5.625C119.999 4.13361 119.405 2.70374 118.351 1.64917C117.296 0.5946 115.866 0.00148915 114.375 0ZM118.125 58.125H83.3494C84.6962 56.7808 85.6438 55.0893 86.0869 53.2387L86.1562 52.8713C86.4611 51.4038 86.4361 49.8869 86.083 48.4303C85.7298 46.9736 85.0574 45.6137 84.1144 44.4487L83.0869 43.1606C83.1244 42.4744 83.1356 41.7863 83.1356 41.0981C83.1356 24.9281 74.6981 15.6544 59.9794 15.6544C45.2775 15.6544 36.8419 24.93 36.8419 41.0981C36.8419 41.7806 36.8531 42.4613 36.8906 43.1419L35.8519 44.4431C34.9208 45.5949 34.2544 46.9374 33.8999 48.3754C33.5455 49.8134 33.5116 51.3118 33.8006 52.7644C33.8148 52.8826 33.8368 52.9997 33.8662 53.115C33.8719 53.1581 33.8813 53.2031 33.8906 53.2463C34.3244 55.0966 35.2705 56.7874 36.6206 58.125H1.875C1.37772 58.125 0.900806 58.3225 0.549175 58.6742C0.197544 59.0258 0 59.5027 0 60C0 60.4973 0.197544 60.9742 0.549175 61.3258C0.900806 61.6775 1.37772 61.875 1.875 61.875H118.125C118.622 61.875 119.099 61.6775 119.451 61.3258C119.802 60.9742 120 60.4973 120 60C120 59.5027 119.802 59.0258 119.451 58.6742C119.099 58.3225 118.622 58.125 118.125 58.125ZM43.0913 57.6825L41.1263 56.7638C40.2509 56.3617 39.4768 55.7687 38.8606 55.0283C38.2445 54.2878 37.802 53.4188 37.5656 52.485L37.5581 52.44C37.5581 52.4269 37.5394 52.3519 37.5262 52.2956C37.5192 52.2358 37.5092 52.1763 37.4963 52.1175C37.3009 51.1904 37.3146 50.2314 37.5365 49.3102C37.7583 48.3891 38.1827 47.529 38.7787 46.7925L40.2788 44.9175C40.5795 44.5422 40.7239 44.0654 40.6819 43.5863C40.6184 42.7591 40.5896 41.9296 40.5956 41.1C40.5956 27.1125 47.4806 19.4062 59.9831 19.4062C72.4969 19.4062 79.3894 27.1125 79.3894 41.1C79.3894 41.9287 79.3706 42.7575 79.2956 43.7625C79.2956 44.1875 79.4397 44.6 79.7044 44.9325L81.1969 46.8037C81.7929 47.5403 82.2174 48.4003 82.4396 49.3214C82.6617 50.2425 82.676 51.2015 82.4813 52.1287L82.44 52.3613C82.2141 53.3171 81.775 54.2094 81.1555 54.9715C80.5359 55.7336 79.7521 56.3456 78.8625 56.7619L77.0062 57.6244C76.7621 57.743 76.547 57.9139 76.3763 58.125H43.6875C43.5202 57.9393 43.3175 57.7888 43.0913 57.6825ZM102.356 97.4681L103.144 102.737C103.21 103.182 103.434 103.588 103.774 103.882C104.115 104.175 104.55 104.337 105 104.336C105.093 104.336 105.186 104.33 105.277 104.318C105.521 104.281 105.755 104.197 105.967 104.07C106.178 103.943 106.362 103.776 106.508 103.577C106.655 103.379 106.761 103.154 106.82 102.915C106.879 102.676 106.891 102.427 106.854 102.184L106.067 96.915C105.454 92.8256 103.763 88.9733 101.167 85.7544C98.572 82.5354 95.1658 80.0659 91.2994 78.6L73.4381 71.8406C74.1675 70.8056 74.8875 69.6881 75.6094 68.4394C75.8422 68.0102 75.8985 67.5072 75.7662 67.0372C75.634 66.5672 75.3236 66.1673 74.9011 65.9226C74.4786 65.6779 73.9773 65.6077 73.5038 65.7268C73.0303 65.846 72.622 66.1451 72.3656 66.5606C71.3775 68.3072 70.2442 69.9674 68.9775 71.5238C65.9775 75.1687 62.7844 77.175 59.9813 77.175C57.2869 77.175 54.1369 75.1537 51.1219 71.49C49.8686 69.9378 48.7401 68.2889 47.7469 66.5588C47.6256 66.3414 47.4624 66.1505 47.2666 65.9969C47.0708 65.8433 46.8464 65.7303 46.6064 65.6643C46.3665 65.5984 46.1158 65.5808 45.869 65.6128C45.6223 65.6447 45.3843 65.7254 45.169 65.8502C44.9538 65.975 44.7655 66.1414 44.6152 66.3397C44.4649 66.538 44.3555 66.7643 44.2936 67.0052C44.2316 67.2462 44.2182 67.4972 44.2542 67.7434C44.2901 67.9896 44.3748 68.2262 44.5031 68.4394C45.1894 69.6244 45.9225 70.7325 46.6762 71.7956L28.7006 78.6C24.8338 80.0659 21.4274 82.5356 18.8319 85.755C16.2363 88.9743 14.5454 92.8271 13.9331 96.9169L13.1456 102.186C13.0726 102.677 13.1979 103.178 13.4939 103.578C13.79 103.977 14.2326 104.242 14.7244 104.316C14.8163 104.329 14.909 104.336 15.0019 104.336C15.4508 104.336 15.8846 104.174 16.2245 103.881C16.5644 103.588 16.7879 103.183 16.8544 102.739L17.6419 97.47C18.1556 94.0399 19.5739 90.8087 21.7509 88.1087C23.9279 85.4087 26.785 83.3375 30.0281 82.1081L49.1156 74.8819C52.6594 78.8269 56.3906 80.925 59.9813 80.925C63.6731 80.925 67.455 78.8363 70.9781 74.9194L89.9737 82.1081C93.2162 83.3378 96.0726 85.4089 98.2492 88.1084C100.426 90.808 101.842 94.0387 102.356 97.4681Z" fill="#1E1E1E"/>
</g>
<defs>
<clipPath id="clip0_1590_1331">
<rect width="120" height="120" fill="white"/>
</clipPath>
</defs>
</svg>
