<svg width="120" height="120" viewBox="0 0 120 120" fill="none" xmlns="http://www.w3.org/2000/svg">
<g clip-path="url(#clip0_1597_1018)">
<path d="M42.9698 24.9701C43.7396 25.4158 44.6134 25.6504 45.5029 25.6501C46.2754 25.6501 47.039 25.4738 47.7323 25.1382L102.202 56.5859C103.925 57.5808 105.841 58.089 107.787 58.089C108.769 58.089 109.758 57.9596 110.733 57.6983C113.643 56.9187 116.069 55.0615 117.566 52.4691C120.667 47.0982 118.82 40.2057 113.449 37.1049L58.9776 5.65599C58.9539 5.3345 58.9003 5.01593 58.8173 4.70443C58.4653 3.39052 57.6255 2.29388 56.4529 1.61701C54.0253 0.215444 50.9104 1.05005 49.5091 3.47747L41.1091 18.0265C39.7078 20.4537 40.5426 23.5688 42.9698 24.9701ZM114.724 50.8287C113.665 52.6622 111.947 53.9764 109.884 54.5293C108.568 54.8818 107.219 54.8944 105.939 54.5839L107.451 51.9643C107.56 51.7776 107.632 51.5712 107.661 51.3568C107.691 51.1424 107.677 50.9244 107.622 50.7152C107.567 50.506 107.47 50.3098 107.339 50.138C107.208 49.9661 107.043 49.8219 106.856 49.7137C106.669 49.6055 106.462 49.5355 106.247 49.5076C106.033 49.4797 105.815 49.4945 105.606 49.5512C105.397 49.6079 105.202 49.7053 105.031 49.8379C104.86 49.9705 104.716 50.1356 104.609 50.3237L102.936 53.2217L99.4371 51.2014L101.11 48.3033C101.22 48.1167 101.291 47.9102 101.32 47.6959C101.35 47.4815 101.336 47.2634 101.281 47.0543C101.226 46.8451 101.13 46.6489 100.998 46.477C100.867 46.3052 100.703 46.161 100.515 46.0528C100.328 45.9446 100.121 45.8745 99.9064 45.8467C99.6918 45.8188 99.4739 45.8336 99.2651 45.8903C99.0562 45.947 98.8607 46.0444 98.6897 46.177C98.5187 46.3095 98.3756 46.4746 98.2687 46.6627L96.5955 49.5608L93.0965 47.5407L94.7697 44.6426C94.8791 44.456 94.9506 44.2495 94.9799 44.0352C95.0092 43.8208 94.9958 43.6027 94.9405 43.3935C94.8852 43.1844 94.7891 42.9882 94.6576 42.8163C94.5262 42.6444 94.3621 42.5003 94.1747 42.3921C93.9873 42.2839 93.7804 42.2138 93.5658 42.186C93.3513 42.1581 93.1333 42.1729 92.9245 42.2296C92.7157 42.2863 92.5202 42.3837 92.3492 42.5163C92.1782 42.6488 92.0351 42.8139 91.9281 43.002L90.2549 45.9001L86.756 43.88L88.4292 40.9819C88.5386 40.7953 88.61 40.5888 88.6393 40.3744C88.6686 40.1601 88.6553 39.942 88.6 39.7328C88.5447 39.5237 88.4485 39.3275 88.3171 39.1556C88.1857 38.9837 88.0215 38.8396 87.8342 38.7314C87.6468 38.6232 87.4399 38.5531 87.2253 38.5253C87.0107 38.4974 86.7928 38.5122 86.584 38.5689C86.3752 38.6256 86.1796 38.723 86.0086 38.8556C85.8376 38.9881 85.6945 39.1532 85.5876 39.3413L83.9144 42.2393L80.4154 40.2193L82.0886 37.3212C82.198 37.1346 82.2695 36.9281 82.2988 36.7137C82.3281 36.4994 82.3147 36.2813 82.2594 36.0721C82.2041 35.863 82.108 35.6668 81.9765 35.4949C81.8451 35.323 81.681 35.1789 81.4936 35.0707C81.3062 34.9625 81.0993 34.8924 80.8847 34.8645C80.6702 34.8367 80.4522 34.8515 80.2434 34.9082C80.0346 34.9649 79.8391 35.0623 79.6681 35.1949C79.4971 35.3274 79.354 35.4925 79.2471 35.6806L77.5739 38.5787L74.0749 36.5586L75.7481 33.6605C75.8575 33.4739 75.9289 33.2674 75.9582 33.053C75.9875 32.8387 75.9742 32.6206 75.9189 32.4114C75.8636 32.2023 75.7674 32.0061 75.636 31.8342C75.5046 31.6623 75.3404 31.5182 75.1531 31.41C74.9657 31.3018 74.7588 31.2317 74.5442 31.2038C74.3296 31.176 74.1117 31.1908 73.9029 31.2475C73.6941 31.3042 73.4985 31.4016 73.3275 31.5342C73.1565 31.6667 73.0135 31.8318 72.9065 32.0199L71.2333 34.9179L61.7453 29.4401H93.6103L111.809 39.9469C115.612 42.1433 116.92 47.0246 114.724 50.8287ZM58.0966 8.93607L87.9267 26.1584H56.0617L50.1304 22.734L58.0966 8.93607ZM43.9507 19.6669L52.3507 5.11787C52.4689 4.91307 52.6265 4.73376 52.8145 4.59034C53.0025 4.44691 53.2171 4.34222 53.4459 4.28232C53.674 4.21986 53.9121 4.20325 54.1467 4.23347C54.3812 4.26368 54.6074 4.34012 54.8122 4.45835C55.017 4.57658 55.1963 4.73425 55.3397 4.92225C55.4832 5.11025 55.5879 5.32483 55.6478 5.55357C55.7103 5.78165 55.727 6.01986 55.6968 6.25441C55.6665 6.48896 55.5901 6.71518 55.4718 6.91997L47.0721 21.469C46.9539 21.6738 46.7962 21.8531 46.6082 21.9966C46.4202 22.14 46.2056 22.2447 45.9768 22.3046C45.7487 22.367 45.5105 22.3836 45.276 22.3534C45.0415 22.3232 44.8152 22.2468 44.6104 22.1286C43.75 21.6317 43.4538 20.5273 43.9507 19.6669ZM47.4651 68.7936C46.0954 66.586 45.4575 64.3477 45.4575 61.7497V46.8964H45.7342C47.541 46.8964 49.0113 45.4264 49.0113 43.6193V39.3833C49.0113 37.5765 47.5413 36.1062 45.7342 36.1062H25.6743C23.8675 36.1062 22.3973 37.5762 22.3973 39.3833V43.6193C22.3973 45.4261 23.8673 46.8964 25.6743 46.8964H25.9511V61.7497C25.9511 64.3477 25.3132 66.586 23.9432 68.7936L2.52253 103.313C0.490735 106.588 0.399797 110.397 2.27339 113.764C4.14675 117.132 7.43151 119.063 11.2851 119.063H60.1232C63.9768 119.063 67.2616 117.132 69.1347 113.765C71.0083 110.397 70.9176 106.588 68.8858 103.313L47.4651 68.7936ZM25.6809 39.3875L45.7298 39.3833L45.734 43.6151L25.6783 43.6193L25.6809 39.3875ZM26.7309 70.5237C28.4371 67.7738 29.2319 64.9859 29.2319 61.7497V46.8964H42.176V61.7497C42.176 64.9859 42.9707 67.7738 44.677 70.5237L56.1867 89.0719C49.057 89.6522 43.4606 87.7941 37.5719 85.8366C32.1082 84.0202 26.482 82.1513 19.469 82.2265L26.7309 70.5237ZM66.2671 112.169C64.9898 114.465 62.7503 115.782 60.123 115.782H11.2849C8.65753 115.782 6.41784 114.466 5.1405 112.169C3.86292 109.873 3.9248 107.276 5.31042 105.044L17.3793 85.5945C24.8409 85.0636 30.5285 86.9532 36.5369 88.9505C41.7468 90.6823 47.0953 92.4603 53.572 92.4603C55.0235 92.4603 56.5328 92.3689 58.1088 92.1699L66.0974 105.044C67.4828 107.276 67.5447 109.873 66.2671 112.169ZM43.5004 101.117C40.9092 101.117 38.8012 103.225 38.8012 105.816C38.8012 108.407 40.9092 110.515 43.5004 110.515C46.0917 110.515 48.1999 108.407 48.1999 105.816C48.1999 103.225 46.0917 101.117 43.5004 101.117ZM43.5004 107.234C42.7185 107.234 42.0825 106.598 42.0825 105.816C42.0825 105.034 42.7185 104.398 43.5004 104.398C44.2823 104.398 44.9186 105.034 44.9186 105.816C44.9186 106.598 44.2825 107.234 43.5004 107.234ZM26.5628 26.859C26.5628 29.8292 28.9795 32.2458 31.9497 32.2458C34.92 32.2458 37.3366 29.8292 37.3366 26.859C37.3366 23.8887 34.92 21.4723 31.9497 21.4723C28.9795 21.4723 26.5628 23.889 26.5628 26.859ZM31.9497 24.7536C33.1108 24.7536 34.0553 25.6981 34.0553 26.859C34.0553 28.0198 33.1108 28.9646 31.9497 28.9646C30.7886 28.9646 29.8441 28.0201 29.8441 26.859C29.8441 25.6979 30.7886 24.7536 31.9497 24.7536ZM24.5067 17.7652C28.0317 17.7652 30.8995 14.8974 30.8995 11.3724C30.8995 7.8474 28.0317 4.97958 24.5067 4.97958C20.9817 4.97958 18.1139 7.8474 18.1139 11.3724C18.1139 14.8974 20.9817 17.7652 24.5067 17.7652ZM24.5067 8.26083C26.2223 8.26083 27.6182 9.65677 27.6182 11.3724C27.6182 13.088 26.2223 14.484 24.5067 14.484C22.791 14.484 21.3951 13.088 21.3951 11.3724C21.3951 9.65677 22.791 8.26083 24.5067 8.26083ZM24.7914 91.2312C21.8271 91.2312 19.4153 93.6429 19.4153 96.6073C19.4153 99.5717 21.8271 101.983 24.7914 101.983C27.7558 101.983 30.1675 99.5717 30.1675 96.6073C30.1675 93.6429 27.7558 91.2312 24.7914 91.2312ZM24.7914 98.7022C23.6362 98.7022 22.6966 97.7626 22.6966 96.6073C22.6966 95.4521 23.6362 94.5125 24.7914 94.5125C25.9467 94.5125 26.8863 95.4521 26.8863 96.6073C26.8863 97.7626 25.9464 98.7022 24.7914 98.7022ZM113.996 61.8804C111.201 61.8804 108.927 64.1546 108.927 66.9497C108.927 67.284 108.96 67.6107 109.022 67.9271L101.472 72.286L92.9524 67.3669C92.7029 67.223 92.42 67.1472 92.1321 67.1472C91.8441 67.1472 91.5612 67.223 91.3117 67.3669L82.792 72.286L75.2371 67.9243C75.299 67.6088 75.3323 67.283 75.3323 66.9497C75.3323 64.1574 73.0605 61.8856 70.2682 61.8856C67.4758 61.8856 65.204 64.1574 65.204 66.9497C65.204 69.7421 67.4758 72.0139 70.2682 72.0139C71.5401 72.0139 72.7033 71.5414 73.5937 70.764L81.1514 75.1273V84.0179L72.6316 88.9367C72.3822 89.0807 72.1751 89.2878 72.0311 89.5372C71.8871 89.7866 71.8113 90.0695 71.8113 90.3575V101.142C71.8113 101.43 71.8871 101.713 72.0311 101.963C72.1751 102.212 72.3822 102.419 72.6316 102.563L81.9717 107.956C82.2211 108.1 82.504 108.176 82.792 108.176C83.08 108.176 83.3629 108.1 83.6123 107.956L92.1321 103.037L99.6862 107.398C99.623 107.72 99.5912 108.046 99.591 108.373C99.591 111.166 101.863 113.438 104.656 113.438C107.449 113.438 109.721 111.166 109.721 108.373C109.721 105.581 107.449 103.309 104.656 103.309C103.432 103.308 102.25 103.752 101.33 104.559L93.7727 100.196V91.3051L102.292 86.3862C102.542 86.2423 102.749 86.0352 102.893 85.7858C103.037 85.5364 103.113 85.2534 103.113 84.9654V75.1276L110.666 70.7668C111.557 71.5456 112.722 72.019 113.996 72.019C116.791 72.019 119.065 69.7449 119.065 66.9497C119.065 64.1546 116.791 61.8804 113.996 61.8804ZM70.2682 68.7329C69.2849 68.7329 68.4853 67.933 68.4853 66.95C68.4853 65.967 69.2852 65.1671 70.2682 65.1671C71.2511 65.1671 72.051 65.967 72.051 66.95C72.051 67.933 71.2511 68.7329 70.2682 68.7329ZM90.4914 100.196L82.792 104.641L75.0925 100.196V91.3051L82.792 86.8597L90.4914 91.3051V100.196ZM104.656 106.59C105.639 106.59 106.439 107.39 106.439 108.374C106.439 109.357 105.639 110.157 104.656 110.157C103.672 110.157 102.872 109.357 102.872 108.374C102.872 107.39 103.672 106.59 104.656 106.59ZM99.8315 84.0183L92.1321 88.4637L84.4326 84.0183V75.1278L92.1321 70.6824L99.8315 75.1278V84.0183ZM113.996 68.738C113.01 68.738 112.208 67.936 112.208 66.95C112.208 65.964 113.01 65.1619 113.996 65.1619C114.982 65.1619 115.784 65.964 115.784 66.95C115.784 67.936 114.982 68.738 113.996 68.738Z" fill="#1E1E1E"/>
</g>
<defs>
<clipPath id="clip0_1597_1018">
<rect width="120" height="120" fill="white"/>
</clipPath>
</defs>
</svg>
