<svg width="120" height="120" viewBox="0 0 120 120" fill="none" xmlns="http://www.w3.org/2000/svg">
<path d="M115.826 72.3127H67.9379C67.1818 68.2057 65.6042 65.4439 63.2349 64.1032C61.6367 63.1988 60.0329 63.1545 58.8861 63.3099C58.3484 61.3376 56.9122 58.0315 53.1577 56.2714C49.8392 54.7156 47.2426 55.5066 45.6423 56.6651C43.7403 54.1271 39.9959 51.1545 34.7089 51.9432C31.344 52.4452 28.9637 54.5539 28.3417 57.5841C27.6132 61.1339 29.3556 65.0499 32.7425 67.7513C31.8852 68.8688 31.2006 70.4527 31.483 72.3127H4.17407C2.62837 72.3127 1.36673 73.5685 1.36157 75.1121C1.34516 79.9603 2.13993 92.1935 9.85251 101.055C15.1534 107.145 22.6393 110.362 32.1144 110.631C32.7898 115.39 36.8893 119.062 41.8323 119.062H78.1686C83.1113 119.062 87.2108 115.39 87.8863 110.631C97.3613 110.362 104.847 107.145 110.148 101.055C117.861 92.1935 118.655 79.9603 118.639 75.1121C118.634 73.5685 117.372 72.3127 115.826 72.3127ZM35.7303 68.7096C35.9197 68.5752 36.0728 68.396 36.176 68.188C36.2792 67.98 36.3293 67.7496 36.3218 67.5176C36.3143 67.2855 36.2495 67.0588 36.133 66.8579C36.0166 66.657 35.8522 66.488 35.6546 66.3661C31.8465 64.0165 30.6226 60.4596 31.0967 58.1492C31.4823 56.2707 32.9124 55.0543 35.1238 54.7247C41.1716 53.8203 44.0082 59.2871 44.124 59.5156C44.3471 59.9651 44.7889 60.2682 45.2898 60.3C45.5348 60.3171 45.78 60.269 46.0004 60.1606C46.2208 60.0523 46.4087 59.8876 46.5449 59.6832C46.7286 59.4204 48.4414 57.1664 51.9641 58.8178C55.9266 60.6753 56.3769 64.9657 56.3935 65.1413C56.4322 65.5911 56.6788 65.9972 57.0662 66.2295C57.2559 66.3442 57.4702 66.4121 57.6913 66.4275C57.9125 66.443 58.1341 66.4055 58.3379 66.3183C58.4122 66.2881 60.1785 65.5859 61.8791 66.5675C63.3709 67.4286 64.461 69.4025 65.0727 72.3127H55.5917C53.9291 71.4539 45.5459 67.0257 40.3339 62.4148C40.1956 62.2924 40.0346 62.1984 39.86 62.1382C39.6854 62.078 39.5006 62.0529 39.3163 62.0642C39.132 62.0754 38.9516 62.1229 38.7857 62.2039C38.6197 62.2849 38.4713 62.3978 38.349 62.5362C38.2266 62.6745 38.1327 62.8355 38.0725 63.0102C38.0124 63.1848 37.9873 63.3695 37.9985 63.5538C38.0098 63.7381 38.0573 63.9184 38.1382 64.0844C38.2192 64.2504 38.3321 64.3988 38.4704 64.5211C41.8424 67.5043 46.3461 70.3458 49.7434 72.3127H34.3649C33.7773 70.2244 35.5154 68.8674 35.7303 68.7096ZM78.1681 116.25H41.832C38.4512 116.25 35.6218 113.842 34.9691 110.651H85.0313C84.3786 113.842 81.5492 116.25 78.1681 116.25ZM108.026 99.2082C103.042 104.935 95.8257 107.839 86.5794 107.839H33.4208C24.1742 107.839 16.9585 104.935 11.9738 99.2082C7.89056 94.5169 5.93095 88.628 4.99884 83.7357H102.844C103.216 83.7357 103.574 83.5875 103.838 83.3238C104.102 83.0601 104.25 82.7024 104.25 82.3294C104.25 81.9564 104.102 81.5988 103.838 81.335C103.574 81.0713 103.216 80.9232 102.844 80.9232H4.55329C4.2254 78.3582 4.17009 76.2786 4.17384 75.1252L115.826 75.1214C115.83 76.2762 115.775 78.357 115.446 80.9232H102.248C101.875 80.9232 101.518 81.0713 101.254 81.335C100.99 81.5988 100.842 81.9564 100.842 82.3294C100.842 82.7024 100.99 83.0601 101.254 83.3238C101.518 83.5875 101.875 83.7357 102.248 83.7357H115.001C114.069 88.6285 112.109 94.5171 108.026 99.2082ZM85.4181 63.1109C86.191 63.0996 89.0727 62.6728 93.2551 60.4596C98.3113 57.6493 101.236 53.3996 101.714 48.1695L101.714 48.1632L101.717 48.1418C102.686 37.3418 96.4932 30.1285 96.2291 29.8266C96.2237 29.8205 96.2174 29.8151 96.212 29.8093C96.1894 29.7847 96.1661 29.7609 96.1419 29.738C95.829 29.434 95.4006 29.2732 94.967 29.3403C94.5273 29.4082 94.1588 29.6621 93.9531 30.0481L93.9514 30.0511C93.9371 30.0778 93.9217 30.1036 93.909 30.1318C93.808 30.311 92.4146 32.6625 86.679 37.0055C85.9262 37.5741 85.204 38.1821 84.5152 38.8268C76.1401 36.0326 66.5706 40.3681 66.1534 40.5603C65.6724 40.7794 65.3438 41.2817 65.3366 41.8102C65.3328 42.0007 65.2749 46.5336 67.7181 51.4325C69.9835 55.9746 74.8927 61.6873 85.4181 63.1109ZM75.0191 40.9622L75.9022 45.6176C73.6998 44.4326 71.5037 43.1295 69.9085 42.155C71.2581 41.7216 73.0391 41.2453 75.0191 40.9622ZM70.2852 50.277C69.2138 48.1608 68.6799 46.0955 68.4132 44.5404C71.1634 46.2232 75.6955 48.8796 79.1558 50.3335C79.2465 53.3182 80.327 56.4373 82.3827 59.6539C76.7516 58.1714 72.6903 55.028 70.2852 50.277ZM91.9592 57.9621C90.7388 58.6472 89.5264 59.1476 88.4804 59.5081C89.5075 57.5774 90.4396 55.5977 91.2735 53.5761C92.5405 53.24 95.2576 52.4117 98.2988 50.8264C97.2957 53.7633 95.1751 56.1565 91.9592 57.9621ZM98.9656 47.2102C96.6113 48.6762 94.266 49.6446 92.5555 50.2364C94.7694 44.0051 95.7683 38.4809 96.2162 34.924C97.6649 37.6573 99.2757 41.9567 98.9656 47.2102ZM88.3768 39.2478C90.557 37.5968 92.1617 36.203 93.3413 35.0651C92.6127 40.3798 90.6549 49.8216 85.4546 59.18C82.7963 55.4171 81.6441 51.8895 82.0363 48.675C82.449 45.2928 84.582 42.121 88.3768 39.2478ZM82.3768 41.145C80.8318 43.1077 79.8369 45.1885 79.4031 47.3721C79.292 47.3218 79.1816 47.2721 79.0688 47.2196L77.8358 40.7185C79.3337 40.6789 80.8749 40.7942 82.3768 41.145Z" fill="#1E1E1E"/>
<path d="M12.0015 67.1871C17.765 67.1871 22.4541 62.4979 22.4541 56.7344C22.4541 50.9709 17.7652 46.2817 12.0015 46.2817C6.23773 46.2817 1.54883 50.9709 1.54883 56.7344C1.54883 62.4979 6.23797 67.1871 12.0015 67.1871ZM12.0015 49.0942C16.2144 49.0942 19.6416 52.5215 19.6416 56.7344C19.6416 60.9473 16.2144 64.3746 12.0015 64.3746C7.78859 64.3746 4.36133 60.9471 4.36133 56.7344C4.36133 52.5217 7.78883 49.0942 12.0015 49.0942Z" fill="#1E1E1E"/>
<path d="M12.002 60.953C14.3281 60.953 16.2207 59.0604 16.2207 56.7343C16.2207 54.4081 14.3281 52.5155 12.002 52.5155C9.67578 52.5155 7.7832 54.4081 7.7832 56.7343C7.7832 59.0604 9.67578 60.953 12.002 60.953ZM12.002 55.328C12.7773 55.328 13.4082 55.9587 13.4082 56.7343C13.4082 57.5098 12.7775 58.1405 12.002 58.1405C11.2264 58.1405 10.5957 57.5098 10.5957 56.7343C10.5957 55.9587 11.2266 55.328 12.002 55.328ZM51.7393 48.8539C54.0655 48.8539 55.9578 46.9613 55.9578 44.6351C55.9578 42.309 54.0655 40.4164 51.7393 40.4164C49.4131 40.4164 47.5205 42.309 47.5205 44.6351C47.5205 46.9613 49.4131 48.8539 51.7393 48.8539ZM51.7393 43.2289C52.5146 43.2289 53.1453 43.8596 53.1453 44.6351C53.1453 45.4107 52.5146 46.0414 51.7393 46.0414C50.964 46.0414 50.333 45.4107 50.333 44.6351C50.333 43.8596 50.9638 43.2289 51.7393 43.2289ZM110.999 35.082C108.673 35.082 106.78 36.9746 106.78 39.3007C106.78 41.6269 108.673 43.5195 110.999 43.5195C113.325 43.5195 115.218 41.6269 115.218 39.3007C115.218 36.9746 113.325 35.082 110.999 35.082ZM110.999 40.707C110.224 40.707 109.593 40.0763 109.593 39.3007C109.593 38.5252 110.224 37.8945 110.999 37.8945C111.775 37.8945 112.405 38.5252 112.405 39.3007C112.405 40.0763 111.774 40.707 110.999 40.707ZM108.187 27.9582C113.95 27.9582 118.639 23.2693 118.639 17.5055C118.639 11.7418 113.95 7.05286 108.187 7.05286C102.423 7.05286 97.734 11.7418 97.734 17.5055C97.734 23.2693 102.423 27.9582 108.187 27.9582ZM108.187 9.86559C112.4 9.86559 115.827 13.2929 115.827 17.5057C115.827 21.7186 112.399 25.1459 108.187 25.1459C103.974 25.1459 100.546 21.7186 100.546 17.5057C100.546 13.2929 103.974 9.86559 108.187 9.86559Z" fill="#1E1E1E"/>
<path d="M108.186 21.7242C110.512 21.7242 112.405 19.8316 112.405 17.5055C112.405 15.1793 110.512 13.2867 108.186 13.2867C105.86 13.2867 103.967 15.1793 103.967 17.5055C103.967 19.8316 105.86 21.7242 108.186 21.7242ZM108.186 16.0992C108.962 16.0992 109.592 16.7299 109.592 17.5055C109.592 18.281 108.962 18.9117 108.186 18.9117C107.411 18.9117 106.78 18.281 106.78 17.5055C106.78 16.7299 107.411 16.0992 108.186 16.0992ZM29.2909 24.7418C24.5994 26.6599 23.0888 29.4745 22.6475 31.4979C21.9929 34.4995 23.2949 37.5438 24.8755 39.2294C26.8468 41.3318 29.7282 40.7529 31.723 39.9991C31.9639 42.6565 32.2492 46.7203 36.1909 46.7306C37.5484 46.7276 38.8496 46.1876 39.8103 45.2285C42.5612 42.442 39.9188 39.393 38.2447 37.3326C40.1952 36.4732 42.6578 34.8668 42.5914 31.9859C42.5382 29.6759 41.3342 26.5912 38.7643 24.9082C37.0321 23.7738 33.9826 22.8234 29.2909 24.7418ZM37.2235 27.2609C38.9298 28.3784 39.7447 30.5271 39.7796 32.0505C39.8089 33.3204 38.4214 34.3978 35.5377 35.344C35.531 35.3461 35.5244 35.3484 35.5178 35.3508C35.5163 35.3508 35.5142 35.3519 35.5128 35.3524C35.1935 35.4626 34.9247 35.6845 34.756 35.9773C34.4828 36.4315 34.5081 37.0659 34.8315 37.5028C35.2536 38.1169 35.7458 38.7194 36.222 39.3023C38.2224 41.7504 38.5358 42.5238 37.8188 43.2429C37.3845 43.6783 36.7909 43.9205 36.1677 43.9179C35.1526 43.9071 34.8343 43.1358 34.5463 39.9876C34.4767 39.2264 34.4047 38.4391 34.2716 37.6952C34.1938 37.26 33.9132 36.8878 33.5183 36.6886C33.1234 36.4894 32.6553 36.4887 32.259 36.6846C29.54 38.0285 27.7958 38.2319 26.927 37.3055C25.8847 36.1938 24.9608 34.0898 25.3953 32.0969C25.8282 30.1125 27.4967 28.5136 30.3552 27.345C33.2134 26.1762 35.5243 26.1478 37.2235 27.2609ZM76.0958 18.263L75.9498 18.4605C74.4149 20.5312 72.095 23.6609 74.904 26.2242C75.9139 27.1469 77.2813 27.6307 78.6432 27.5512C82.4396 27.3319 82.6117 23.4403 82.7253 20.8652L82.7366 20.6191C83.6289 20.9091 84.6901 21.1577 85.76 21.1577C87.1206 21.1577 88.4928 20.7562 89.54 19.5284C91.0393 17.7703 92.1964 14.6679 91.4012 11.7005C90.8652 9.70007 89.2234 6.95999 84.4471 5.26499C79.6705 3.56999 76.6686 4.66218 74.9917 5.87742C72.5038 7.67976 71.4465 10.8173 71.5023 13.1276C71.5719 16.0099 74.1081 17.497 76.0958 18.263ZM76.6417 8.15484C78.2865 6.96304 80.5963 6.88265 83.5065 7.91531C86.4167 8.9482 88.1588 10.4665 88.6846 12.4284C89.2124 14.3986 88.3888 16.5438 87.4002 17.703C86.5752 18.6698 84.822 18.5484 82.0398 17.332C81.2045 16.9418 80.1495 17.5542 80.0778 18.4748C79.9836 19.2134 79.9487 19.9896 79.9156 20.741C79.7762 23.8992 79.4947 24.6848 78.481 24.7434C78.1753 24.76 77.8694 24.7158 77.5809 24.6134C77.2924 24.511 77.027 24.3525 76.8001 24.1469C76.0503 23.4626 76.3269 22.6753 78.2096 20.1356C78.6648 19.5216 79.1354 18.8866 79.532 18.2435C80.0296 17.463 79.5969 16.3812 78.7044 16.1489C75.781 15.3398 74.345 14.3292 74.3143 13.0594C74.2775 11.5359 74.9903 9.35156 76.6421 8.15484H76.6417ZM23.6345 17.565C28.0283 17.5971 32.3073 15.0187 34.2906 11.0719C35.7629 8.22351 36.0378 4.97202 35.0649 1.91671C35.0089 1.74075 34.9187 1.57755 34.7996 1.43643C34.6805 1.29532 34.5348 1.17904 34.3707 1.09425C34.2066 1.00946 34.0275 0.95781 33.8435 0.942254C33.6595 0.926698 33.4742 0.947539 33.2982 1.00359L13.1014 7.43577C12.9255 7.49182 12.7623 7.58198 12.6211 7.7011C12.48 7.82022 12.3638 7.96596 12.279 8.13002C12.1942 8.29407 12.1425 8.47322 12.127 8.65724C12.1114 8.84125 12.1323 9.02653 12.1883 9.20249C13.8128 14.3027 18.5469 17.565 23.6345 17.565ZM27.5108 5.79843C27.4784 6.33876 27.3333 6.86632 27.0847 7.34718C26.8511 7.80212 26.5296 8.20621 26.1388 8.53606C25.748 8.86591 25.2957 9.11497 24.808 9.26882C23.2356 9.76992 21.5781 9.21257 20.5986 7.99968L27.5108 5.79843ZM17.8107 8.88749C19.0081 10.9809 21.2481 12.2655 23.631 12.2655C24.3034 12.2655 24.9873 12.1634 25.6613 11.9487C27.3678 11.4051 28.7607 10.2295 29.5831 8.63859C30.1857 7.47257 30.4278 6.18585 30.301 4.90968L32.7106 4.14234C33.0142 6.06187 32.7013 8.02148 31.7924 9.78023C30.6648 11.9613 28.7556 13.5726 26.4163 14.3177C22.0421 15.7106 17.3806 13.6458 15.3976 9.65601L17.811 8.88749H17.8107ZM110.031 52.8021C109.799 52.7157 109.548 52.6921 109.304 52.7336C109.06 52.7751 108.831 52.8803 108.641 53.0386C106.72 54.6358 105.786 57.1535 106.204 59.6086C106.622 62.0637 108.336 64.1304 110.677 65.0025C110.909 65.0888 111.16 65.1124 111.404 65.0709C111.648 65.0293 111.877 64.9242 112.067 64.766C113.988 63.1685 114.922 60.6511 114.504 58.196C114.087 55.7409 112.373 53.6742 110.031 52.8021H110.031ZM110.878 61.9798C109.88 61.3488 109.177 60.3176 108.977 59.1368C108.776 57.956 109.098 56.7504 109.83 55.8251C110.828 56.456 111.531 57.4873 111.732 58.668C111.933 59.8488 111.61 61.0544 110.878 61.9798ZM51.7332 29.201C52.2008 29.298 52.677 29.3468 53.1545 29.3468C55.1312 29.3468 57.051 28.5119 58.3904 27.0136C60.0505 25.1571 60.5989 22.5286 59.822 20.1537C59.745 19.9184 59.6073 19.7076 59.4228 19.5426C59.2383 19.3776 59.0134 19.2643 58.771 19.2141C56.3239 18.7062 53.7737 19.5448 52.1136 21.4015C50.4538 23.258 49.9053 25.8867 50.6823 28.2614C50.7592 28.4967 50.8969 28.7075 51.0815 28.8725C51.266 29.0374 51.4908 29.1508 51.7332 29.201ZM54.2103 23.276C55.0088 22.383 56.1526 21.8841 57.3327 21.8803C57.4604 23.0534 57.0922 24.2461 56.2939 25.1388C55.4954 26.0318 54.3517 26.5308 53.1716 26.5345C53.0438 25.3615 53.412 24.169 54.2103 23.276ZM12.0348 37.8628C12.2821 37.8729 12.5277 37.8175 12.7467 37.7023C12.9658 37.5871 13.1506 37.4161 13.2824 37.2066C14.6127 35.0916 14.7186 32.4087 13.5592 30.2046C12.3995 28.0005 10.1284 26.5683 7.63182 26.4663C7.38441 26.456 7.13866 26.5113 6.91952 26.6266C6.70037 26.7418 6.51562 26.9131 6.384 27.1228C5.05393 29.2378 4.94799 31.9209 6.10744 34.1248C7.26689 36.3288 9.53822 37.7611 12.0348 37.8628ZM8.37994 29.4019C9.52393 29.692 10.5125 30.4537 11.0701 31.5138C11.6277 32.5739 11.6956 33.8201 11.2867 34.927C10.1429 34.6371 9.15432 33.8751 8.5965 32.8153C8.03869 31.7552 7.97096 30.5091 8.37971 29.4021L8.37994 29.4019ZM112.297 108C112.033 107.739 111.676 107.594 111.305 107.596C110.934 107.597 110.579 107.745 110.317 108.008C110.054 108.27 109.906 108.625 109.905 108.996C109.903 109.367 110.049 109.724 110.309 109.988L111.97 111.65C112.245 111.924 112.605 112.062 112.965 112.062C113.325 112.062 113.685 111.924 113.959 111.65C114.223 111.386 114.371 111.029 114.371 110.656C114.371 110.283 114.223 109.925 113.959 109.661L112.298 108H112.297ZM115.659 102.746H113.309C112.936 102.746 112.578 102.894 112.315 103.157C112.051 103.421 111.903 103.779 111.903 104.152C111.903 104.525 112.051 104.882 112.315 105.146C112.578 105.41 112.936 105.558 113.309 105.558H115.659C116.032 105.558 116.389 105.41 116.653 105.146C116.917 104.882 117.065 104.525 117.065 104.152C117.065 103.779 116.917 103.421 116.653 103.157C116.389 102.894 116.032 102.746 115.659 102.746ZM106.339 109.716C105.966 109.716 105.608 109.864 105.344 110.127C105.081 110.391 104.932 110.749 104.932 111.122V113.472C104.932 113.845 105.081 114.203 105.344 114.466C105.608 114.73 105.966 114.878 106.339 114.878C106.712 114.878 107.069 114.73 107.333 114.466C107.597 114.203 107.745 113.845 107.745 113.472V111.122C107.745 110.749 107.597 110.391 107.333 110.127C107.069 109.864 106.712 109.716 106.339 109.716Z" fill="#1E1E1E"/>
</svg>
