<svg width="127" height="40" viewBox="0 0 127 40" fill="none" xmlns="http://www.w3.org/2000/svg">
<g clip-path="url(#clip0_1245_692)">
<path d="M5.17 38.75V23.71H16.34V22.46H5.17V4.65H19.2V3.4H0V40H21.29V38.75H5.17Z" fill="#231F20"/>
<path d="M31.8499 0V40H26.6799V3L31.8499 0Z" fill="#231F20"/>
<path d="M42.38 0V40H37.21V3L42.38 0Z" fill="#231F20"/>
<path d="M47.77 40V20.89L52.88 17.89V40H47.77Z" fill="#231F20"/>
<path d="M96.5399 26.84L76.6099 26.95C76.7199 29.04 77.1599 31 77.9399 32.83C78.7199 34.65 79.8299 36.14 81.2499 37.27C82.6699 38.4 84.3399 38.97 86.2499 38.97C88.4799 38.97 90.3799 38.33 91.9599 37.04C93.5499 35.74 94.7199 34.16 95.4799 32.29L96.1599 32.34C95.4199 34.46 94.1199 36.27 92.2199 37.78C90.3199 39.27 87.8899 40.02 84.9399 40.02C81.9899 40.02 79.4799 39.42 77.4599 38.19C75.4199 36.96 73.8999 35.38 72.8999 33.4C71.8999 31.43 71.3799 29.32 71.3799 27.05C71.3799 24.78 71.9099 22.51 72.9699 20.42C74.0299 18.33 75.5799 16.63 77.6199 15.33C79.6599 14.02 82.0799 13.37 84.8999 13.37C87.7199 13.37 89.8899 14.01 91.6299 15.31C93.3699 16.6 94.6199 18.2 95.3899 20.12C96.1599 22.03 96.5399 23.99 96.5399 25.97V26.86V26.84ZM80.5299 15.76C79.1999 16.88 78.2199 18.35 77.5599 20.18C76.8899 22.01 76.5899 23.97 76.6199 26.06L92.0599 25.95C92.0599 22.26 91.5899 19.36 90.6499 17.25C89.7099 15.15 87.9599 14.09 85.3799 14.09C83.4699 14.09 81.8499 14.65 80.5299 15.76Z" fill="#231F20"/>
<path d="M126.55 26.84L106.62 26.95C106.73 29.04 107.17 31 107.95 32.83C108.73 34.65 109.84 36.14 111.26 37.27C112.68 38.4 114.35 38.97 116.26 38.97C118.49 38.97 120.38 38.33 121.97 37.04C123.56 35.74 124.73 34.16 125.49 32.29L126.17 32.34C125.43 34.46 124.13 36.27 122.23 37.78C120.33 39.27 117.9 40.02 114.95 40.02C112 40.02 109.49 39.42 107.47 38.19C105.43 36.96 103.91 35.38 102.91 33.4C101.9 31.43 101.39 29.32 101.39 27.05C101.39 24.78 101.92 22.51 102.98 20.42C104.04 18.33 105.59 16.63 107.63 15.33C109.67 14.02 112.09 13.37 114.91 13.37C117.73 13.37 119.9 14.01 121.64 15.31C123.38 16.6 124.63 18.2 125.4 20.12C126.17 22.03 126.55 23.99 126.55 25.97V26.86V26.84ZM110.54 15.76C109.21 16.88 108.23 18.35 107.57 20.18C106.9 22.01 106.6 23.97 106.63 26.06L122.07 25.95C122.07 22.26 121.6 19.36 120.66 17.25C119.72 15.15 117.97 14.09 115.39 14.09C113.48 14.09 111.86 14.65 110.54 15.76Z" fill="#231F20"/>
<path d="M63.4 10.81V1.81L58.23 4.81V10.81H63.4Z" fill="#231F20"/>
<path d="M70.08 39.26C69.43 39.37 68.8 39.42 68.21 39.42C66.3 39.42 65 38.82 64.3 37.61C63.6 36.41 63.36 34.42 63.4 31.63V14.06H58.23V31.85C58.23 34.57 59.05 36.61 60.69 37.97C62.32 39.34 64.59 40.01 67.47 40.01C68.29 40.01 69.19 39.97 70.12 39.86H70.13L70.08 39.28V39.26Z" fill="#231F20"/>
<path d="M69.5 13.06L68.5 11.81H53.5801C53.3501 11.81 53.12 11.76 52.92 11.64C51.41 10.72 50.3801 9.09 50.3301 7.21C50.2501 10.08 47.92 12.38 45.05 12.43C47.93 12.48 50.2501 14.79 50.3301 17.67C50.3901 15.78 51.4301 14.15 52.9501 13.23C53.1501 13.11 53.3801 13.06 53.6101 13.06H69.5101H69.5Z" fill="#FF977D"/>
</g>
<defs>
<clipPath id="clip0_1245_692">
<rect width="126.56" height="40" fill="white"/>
</clipPath>
</defs>
</svg>
