<svg width="100" height="100" viewBox="0 0 100 100" fill="none" xmlns="http://www.w3.org/2000/svg">
<g clip-path="url(#clip0_2382_1917)">
<path d="M50.0002 40.6588L33.8219 31.3184L17.6436 40.6588V59.34L33.8219 68.6805L50.0002 59.34M50.0002 40.6588V59.34M50.0002 40.6588L66.1785 31.3184L82.3568 40.6588V59.34L66.1785 68.6805L50.0002 59.34" stroke="#1E1E1E" stroke-width="3" stroke-miterlimit="22.9256"/>
<path d="M33.8217 31.3186V12.6373M33.8217 12.6373L50 3.29688L66.1783 12.6373M33.8217 12.6373L17.6432 3.29688L10.8229 7.23457L8.28535 8.69961L1.46484 12.6373V31.3184L17.6432 40.659M66.1783 12.6373V31.3186M66.1783 12.6373L82.3566 3.29688L98.5352 12.6373V31.3184L82.3566 40.659M33.8217 68.6807V87.3619M33.8217 87.3619L50 96.7023L66.1783 87.3619M33.8217 87.3619L17.6432 96.7023L1.46484 87.3619V68.6807L17.6432 59.3402M66.1783 87.3619V68.6807M66.1783 87.3619L82.3566 96.7023L89.1771 92.7646L91.7147 91.2996L98.5352 87.3619V68.6807L82.3568 59.3402M92.6758 20.5131V17.5834M92.6758 26.3725V23.4428" stroke="#1E1E1E" stroke-width="3" stroke-miterlimit="22.9256"/>
<path d="M82.3564 26.373C84.7835 26.373 86.751 24.4055 86.751 21.9785C86.751 19.5515 84.7835 17.584 82.3564 17.584C79.9294 17.584 77.9619 19.5515 77.9619 21.9785C77.9619 24.4055 79.9294 26.373 82.3564 26.373Z" stroke="#1E1E1E" stroke-width="3" stroke-miterlimit="22.9256"/>
<path d="M50 26.373C52.427 26.373 54.3945 24.4055 54.3945 21.9785C54.3945 19.5515 52.427 17.584 50 17.584C47.573 17.584 45.6055 19.5515 45.6055 21.9785C45.6055 24.4055 47.573 26.373 50 26.373Z" stroke="#1E1E1E" stroke-width="3" stroke-miterlimit="22.9256"/>
<path d="M17.6436 26.373C20.0706 26.373 22.0381 24.4055 22.0381 21.9785C22.0381 19.5515 20.0706 17.584 17.6436 17.584C15.2165 17.584 13.249 19.5515 13.249 21.9785C13.249 24.4055 15.2165 26.373 17.6436 26.373Z" stroke="#1E1E1E" stroke-width="3" stroke-miterlimit="22.9256"/>
<path d="M82.3564 82.416C84.7835 82.416 86.751 80.4485 86.751 78.0215C86.751 75.5945 84.7835 73.627 82.3564 73.627C79.9294 73.627 77.9619 75.5945 77.9619 78.0215C77.9619 80.4485 79.9294 82.416 82.3564 82.416Z" stroke="#1E1E1E" stroke-width="3" stroke-miterlimit="22.9256"/>
<path d="M50 82.416C52.427 82.416 54.3945 80.4485 54.3945 78.0215C54.3945 75.5945 52.427 73.627 50 73.627C47.573 73.627 45.6055 75.5945 45.6055 78.0215C45.6055 80.4485 47.573 82.416 50 82.416Z" stroke="#1E1E1E" stroke-width="3" stroke-miterlimit="22.9256"/>
<path d="M17.6436 82.416C20.0706 82.416 22.0381 80.4485 22.0381 78.0215C22.0381 75.5945 20.0706 73.627 17.6436 73.627C15.2165 73.627 13.249 75.5945 13.249 78.0215C13.249 80.4485 15.2165 82.416 17.6436 82.416Z" stroke="#1E1E1E" stroke-width="3" stroke-miterlimit="22.9256"/>
<path d="M33.8213 54.3945C36.2483 54.3945 38.2158 52.427 38.2158 50C38.2158 47.573 36.2483 45.6055 33.8213 45.6055C31.3943 45.6055 29.4268 47.573 29.4268 50C29.4268 52.427 31.3943 54.3945 33.8213 54.3945Z" stroke="#1E1E1E" stroke-width="3" stroke-miterlimit="22.9256"/>
<path d="M66.1787 54.3945C68.6057 54.3945 70.5732 52.427 70.5732 50C70.5732 47.573 68.6057 45.6055 66.1787 45.6055C63.7517 45.6055 61.7842 47.573 61.7842 50C61.7842 52.427 63.7517 54.3945 66.1787 54.3945Z" stroke="#1E1E1E" stroke-width="3" stroke-miterlimit="22.9256"/>
</g>
<defs>
<clipPath id="clip0_2382_1917">
<rect width="100" height="100" fill="white"/>
</clipPath>
</defs>
</svg>
