<svg width="56" height="56" viewBox="0 0 56 56" fill="none" xmlns="http://www.w3.org/2000/svg">
<rect width="56" height="56" rx="28" fill="#007BFF" fill-opacity="0.1"/>
<path d="M30.0002 35V23C30.0002 22.4696 29.7895 21.9609 29.4144 21.5858C29.0393 21.2107 28.5306 21 28.0002 21H25.0002" fill="#007BFF"/>
<path d="M31.0002 35H25.0002H31.0002Z" fill="#007BFF"/>
<path d="M35.0002 35H37.0002C37.2654 35 37.5197 34.8946 37.7073 34.7071C37.8948 34.5196 38.0002 34.2652 38.0002 34V30.35C37.9989 30.1244 37.9213 29.9059 37.7802 29.73L34.3002 25.38C34.207 25.2621 34.0886 25.1668 33.9535 25.101C33.8185 25.0352 33.6704 25.0007 33.5202 25H30.0002" fill="#007BFF"/>
<path d="M18.0002 29V34C18.0002 34.2652 18.1055 34.5196 18.2931 34.7071C18.4806 34.8946 18.735 35 19.0002 35H21.0002" fill="#007BFF"/>
<path d="M20.0002 19L18.1502 21.15C18.0755 21.2183 18.0236 21.3077 18.0014 21.4064C17.9791 21.5051 17.9876 21.6082 18.0258 21.7018C18.0639 21.7955 18.1298 21.8753 18.2146 21.9304C18.2994 21.9855 18.3991 22.0133 18.5002 22.01H20.6502C20.7592 21.9845 20.8737 21.9987 20.9731 22.0501C21.0726 22.1016 21.1504 22.1868 21.1926 22.2905C21.2348 22.3942 21.2386 22.5095 21.2033 22.6157C21.168 22.722 21.096 22.8121 21.0002 22.87L19.0002 25.02" fill="#007BFF"/>
<path d="M33.0002 37C34.1047 37 35.0002 36.1046 35.0002 35C35.0002 33.8954 34.1047 33 33.0002 33C31.8956 33 31.0002 33.8954 31.0002 35C31.0002 36.1046 31.8956 37 33.0002 37Z" fill="#007BFF"/>
<path d="M23.0002 37C24.1047 37 25.0002 36.1046 25.0002 35C25.0002 33.8954 24.1047 33 23.0002 33C21.8956 33 21.0002 33.8954 21.0002 35C21.0002 36.1046 21.8956 37 23.0002 37Z" fill="#007BFF"/>
<path d="M30.0002 35V23C30.0002 22.4696 29.7895 21.9609 29.4144 21.5858C29.0393 21.2107 28.5306 21 28.0002 21H25.0002M31.0002 35H25.0002M31.0002 35C31.0002 36.1046 31.8956 37 33.0002 37C34.1047 37 35.0002 36.1046 35.0002 35M31.0002 35C31.0002 33.8954 31.8956 33 33.0002 33C34.1047 33 35.0002 33.8954 35.0002 35M25.0002 35C25.0002 36.1046 24.1047 37 23.0002 37C21.8956 37 21.0002 36.1046 21.0002 35M25.0002 35C25.0002 33.8954 24.1047 33 23.0002 33C21.8956 33 21.0002 33.8954 21.0002 35M35.0002 35H37.0002C37.2654 35 37.5197 34.8946 37.7073 34.7071C37.8948 34.5196 38.0002 34.2652 38.0002 34V30.35C37.9989 30.1244 37.9213 29.9059 37.7802 29.73L34.3002 25.38C34.207 25.2621 34.0886 25.1668 33.9535 25.101C33.8185 25.0352 33.6704 25.0007 33.5202 25H30.0002M18.0002 29V34C18.0002 34.2652 18.1055 34.5196 18.2931 34.7071C18.4806 34.8946 18.735 35 19.0002 35H21.0002M20.0002 19L18.1502 21.15C18.0755 21.2183 18.0236 21.3077 18.0014 21.4064C17.9791 21.5051 17.9876 21.6082 18.0258 21.7018C18.0639 21.7955 18.1298 21.8753 18.2146 21.9304C18.2994 21.9855 18.3991 22.0133 18.5002 22.01H20.6502C20.7592 21.9845 20.8737 21.9987 20.9731 22.0501C21.0726 22.1016 21.1504 22.1868 21.1926 22.2905C21.2348 22.3942 21.2386 22.5095 21.2033 22.6157C21.168 22.722 21.096 22.8121 21.0002 22.87L19.0002 25.02" stroke="#007BFF" stroke-width="1.5" stroke-linecap="round" stroke-linejoin="round"/>
</svg>
