<svg width="100" height="100" viewBox="0 0 100 100" fill="none" xmlns="http://www.w3.org/2000/svg">
<g clip-path="url(#clip0_2359_2129)">
<path fill-rule="evenodd" clip-rule="evenodd" d="M50 98.5352C23.1947 98.5352 1.46484 76.8053 1.46484 50C1.46484 39.5896 4.74453 29.9467 10.3248 22.0436L6.03301 17.7518L22.0062 13.9939L17.752 29.4705L14.5357 26.2543C9.98144 33.0426 7.32422 41.2104 7.32422 50C7.32422 73.5711 26.4289 92.6758 50 92.6758C56.7334 92.6758 63.1012 91.1145 68.7645 88.3377L71.3426 93.5998C64.901 96.7588 57.6584 98.5352 50 98.5352ZM50 1.46484C76.8053 1.46484 98.5352 23.1947 98.5352 50C98.5352 60.4104 95.2555 70.0533 89.6752 77.9564L93.967 82.2482L77.9938 86.0061L82.2482 70.5295L85.4645 73.7457C90.0186 66.9572 92.6758 58.7895 92.6758 50C92.6758 26.4289 73.5711 7.32422 50 7.32422C43.2666 7.32422 36.8988 8.88555 31.2355 11.6623L28.6574 6.4002C35.0988 3.24102 42.3416 1.46484 50 1.46484Z" stroke="#1E1E1E" stroke-width="3" stroke-miterlimit="22.9256"/>
<path d="M49.9996 50.7121L37.3826 43.4277L24.7656 50.7121V65.2809L37.3826 72.5652L49.9996 65.2809M49.9996 50.7121V65.2809M49.9996 50.7121L62.6166 43.4277L75.2336 50.7121V65.2809L70.1939 68.1904L67.6562 69.6557L62.6166 72.5652L49.9996 65.2809" stroke="#1E1E1E" stroke-width="3" stroke-miterlimit="22.9256"/>
<path d="M37.3828 43.4273V37.6078V34.6779V28.8584L49.9998 21.5742L62.6168 28.8586V43.4275M50.8982 30.951V28.0213M56.7574 33.8807V30.951" stroke="#1E1E1E" stroke-width="3" stroke-miterlimit="22.9256"/>
</g>
<defs>
<clipPath id="clip0_2359_2129">
<rect width="100" height="100" fill="white"/>
</clipPath>
</defs>
</svg>
