<svg width="100" height="100" viewBox="0 0 100 100" fill="none" xmlns="http://www.w3.org/2000/svg">
<g clip-path="url(#clip0_2359_29)">
<path d="M52.8271 28.217L51.8551 26.5336C51.5875 26.0701 51.4467 25.5444 51.4467 25.0093C51.4467 24.4741 51.5875 23.9484 51.8551 23.485L62.1027 5.73553C62.3703 5.27208 62.7551 4.88723 63.2186 4.61964C63.682 4.35206 64.2078 4.21117 64.7429 4.21113H65.2347L72.464 4.21094H85.2383C85.7735 4.21091 86.2992 4.35178 86.7627 4.61937C87.2262 4.88696 87.611 5.27185 87.8786 5.73534L98.1261 23.4848C98.3937 23.9482 98.5346 24.4739 98.5346 25.0091C98.5346 25.5442 98.3937 26.0699 98.1261 26.5334L87.8786 44.2828C87.611 44.7463 87.2261 45.1311 86.7626 45.3987C86.2992 45.6663 85.7735 45.8072 85.2383 45.8072H72.5066M46.6043 70.798H60.2477C60.7828 70.798 61.3086 70.6571 61.772 70.3895C62.2355 70.1219 62.6203 69.7371 62.8879 69.2736L73.1355 51.5242C73.4031 51.0607 73.5439 50.535 73.5439 49.9999C73.5439 49.4647 73.4031 48.939 73.1355 48.4756L62.8879 30.7262C62.6204 30.2627 62.2355 29.8778 61.7721 29.6102C61.3086 29.3426 60.7828 29.2017 60.2477 29.2018H39.7523C39.2171 29.2018 38.6914 29.3427 38.228 29.6103C37.7645 29.8778 37.3796 30.2627 37.1121 30.7262L26.8645 48.4756C26.5969 48.939 26.4561 49.4647 26.4561 49.9999C26.4561 50.535 26.5969 51.0607 26.8645 51.5242L27.8736 53.2721" stroke="black" stroke-width="3" stroke-miterlimit="10" stroke-linecap="round" stroke-linejoin="round"/>
<path d="M14.8944 66.0883H17.3786M14.8944 74.9899H17.3786M14.8944 83.8916H17.3786M23.7673 66.0883H26.2514M23.7673 74.9899H26.2514M23.7673 83.8916H26.2514M32.6402 66.0883H35.1243M32.6402 74.9899H35.1243M32.6402 83.8916H35.1243M39.8851 41.0977H42.3692M39.8851 58.901H42.3692M48.7579 49.9992H51.2421M57.6308 41.0977H60.1149M57.6308 58.901H60.1149M23.7673 95.7881H35.2572C35.7923 95.7881 36.318 95.6472 36.7815 95.3796C37.2449 95.112 37.6298 94.7271 37.8974 94.2637L48.145 76.5143C48.4125 76.0508 48.5534 75.5251 48.5534 74.99C48.5534 74.4548 48.4125 73.9291 48.145 73.4657L37.8974 55.7162C37.6299 55.2527 37.245 54.8678 36.7815 54.6003C36.3181 54.3327 35.7923 54.1918 35.2572 54.1918H14.7618C14.2266 54.1919 13.7009 54.3327 13.2374 54.6003C12.774 54.8679 12.3891 55.2528 12.1215 55.7162L1.87374 73.4657C1.60619 73.9291 1.46533 74.4548 1.46533 74.99C1.46533 75.5251 1.60619 76.0508 1.87374 76.5143L12.1213 94.2637C12.3889 94.7272 12.7737 95.1121 13.2372 95.3797C13.7007 95.6472 14.2264 95.7881 14.7616 95.7881H16.1922H23.7673Z" stroke="black" stroke-width="3" stroke-miterlimit="10" stroke-linecap="round" stroke-linejoin="round"/>
</g>
<defs>
<clipPath id="clip0_2359_29">
<rect width="100" height="100" fill="white"/>
</clipPath>
</defs>
</svg>
