<svg width="24" height="24" viewBox="0 0 24 24" fill="none" xmlns="http://www.w3.org/2000/svg">
<path d="M19 17V11C19 8.172 19 6.757 18.121 5.879C17.243 5 15.828 5 13 5H10M10 5C10 4.3 11.994 2.992 12.5 2.5M10 5C10 5.7 11.994 7.008 12.5 7.5M5 7.5V13.5C5 16.328 5 17.743 5.879 18.621C6.757 19.5 8.172 19.5 11 19.5H14M14 19.5C14 20.2 12.006 21.509 11.5 22M14 19.5C14 18.8 12.006 17.491 11.5 17" stroke="black" stroke-width="1.5" stroke-linecap="round" stroke-linejoin="round"/>
<path d="M19 21C20.1046 21 21 20.1046 21 19C21 17.8954 20.1046 17 19 17C17.8954 17 17 17.8954 17 19C17 20.1046 17.8954 21 19 21Z" stroke="black" stroke-width="1.5"/>
<path d="M5 7C6.10457 7 7 6.10457 7 5C7 3.89543 6.10457 3 5 3C3.89543 3 3 3.89543 3 5C3 6.10457 3.89543 7 5 7Z" stroke="black" stroke-width="1.5"/>
</svg>
