<svg width="32" height="37" viewBox="0 0 32 37" fill="none" xmlns="http://www.w3.org/2000/svg">
<path d="M18.5807 31.4839V35.0968C18.5807 35.5956 18.1763 36 17.6775 36H14.0646C13.5657 36 13.1614 35.5956 13.1614 35.0968V31.4839M18.5807 34.1935H15.871H14.0681M13.1613 34.1935H14.0645M21.5162 9.80648H19.4839H17.6775H10.2258M10 8.45161V9.28439C10 9.63183 10.0304 9.97797 10.0878 10.3206C11.5145 18.8225 11.7568 27.7925 11.798 30.595C11.8053 31.0883 12.2078 31.4839 12.7011 31.4839H19.0408C19.5341 31.4839 19.9366 31.0883 19.9439 30.595C19.9851 27.7925 20.2274 18.8225 21.6541 10.3206C21.7121 9.97825 21.7414 9.63164 21.7419 9.28439V8.45161C21.7419 8.3923 21.7302 8.33357 21.7075 8.27878C21.6848 8.22399 21.6516 8.17421 21.6096 8.13227C21.5677 8.09034 21.5179 8.05707 21.4631 8.03438C21.4083 8.01168 21.3496 8 21.2903 8H10.4516C10.3318 8 10.217 8.04758 10.1323 8.13227C10.0476 8.21696 10 8.33183 10 8.45161Z" stroke="#1E1E1E" stroke-miterlimit="10" stroke-linecap="round" stroke-linejoin="round"/>
<path d="M15.8705 17.032C16.3693 17.032 16.7737 16.6276 16.7737 16.1288C16.7737 15.63 16.3693 15.2256 15.8705 15.2256C15.3717 15.2256 14.9673 15.63 14.9673 16.1288C14.9673 16.6276 15.3717 17.032 15.8705 17.032Z" stroke="#1E1E1E" stroke-miterlimit="10" stroke-linecap="round" stroke-linejoin="round"/>
<path d="M15.8708 12.5166V13.4199M15.8708 18.8392V19.7424M12.7419 17.936L13.5241 17.4844M18.2174 14.7747L18.9996 14.3231M18.9996 17.936L18.2174 17.4844M13.5241 14.7747L12.7419 14.3231M20.36 21.2028C19.1647 22.2612 17.5928 22.9037 15.8708 22.9037C14.1505 22.9037 12.58 22.2625 11.3853 21.206M14.0643 26.065H17.6773M14.516 27.8715H17.2256" stroke="#1E1E1E" stroke-miterlimit="10" stroke-linecap="round" stroke-linejoin="round"/>
</svg>
