<svg width="30" height="40" viewBox="0 0 30 40" fill="none" xmlns="http://www.w3.org/2000/svg">
<g clip-path="url(#clip0_2049_2429)">
<path d="M6.1358 22.1562H5.72955C4.69399 22.1562 3.85455 22.9957 3.85455 24.0312V24.1941C3.85455 26.0049 5.30199 27.4776 7.10299 27.5182M22.1462 22.1562H22.5421C23.5776 22.1562 24.4171 22.9957 24.4171 24.0312V24.1941C24.4171 24.3499 24.4063 24.5055 24.3847 24.6597M11.1804 32.5V34.4468C11.1804 35.3059 10.5568 36.0379 9.70862 36.1745L5.43449 36.8627C4.81602 36.9623 4.23258 37.216 3.73799 37.6005C3.2434 37.9849 2.85358 38.4877 2.60449 39.0625M21.5043 36.6472L22.842 36.8626C23.4605 36.9622 24.0439 37.2159 24.5385 37.6004C25.0331 37.9848 25.4229 38.4877 25.672 39.0624M12.9483 26.875C13.6287 27.1281 14.3091 27.1451 14.9895 26.9258M10.2372 15.7172C11.4617 15.0203 12.8273 14.625 14.1383 14.625C17.6071 14.625 21.4761 17.3738 22.0727 21.1917C22.1453 21.6566 22.1519 22.1292 22.1099 22.5978C22.0869 22.8556 22.0557 23.1621 22.0254 23.3288L21.9634 23.6707" stroke="#1E1E1E" stroke-width="0.703125" stroke-miterlimit="10" stroke-linecap="round" stroke-linejoin="round"/>
<path d="M15.0712 33.4762C14.7462 33.5814 14.4326 33.6406 14.1384 33.6406C12.6951 33.6406 10.7855 32.2161 9.34238 30.9151C8.01182 29.7155 7.11801 28.1078 6.79832 26.3452L6.25132 23.3292C6.22051 23.1593 6.19026 22.8442 6.16844 22.5833C6.12969 22.1194 6.13757 21.6518 6.21113 21.1921C6.47101 19.5673 7.32401 18.1312 8.48669 17.0195M19.5092 21.1878C18.3724 20.8337 17.0364 20.5628 15.7609 21.1878" stroke="#1E1E1E" stroke-width="0.703125" stroke-miterlimit="10" stroke-linecap="round" stroke-linejoin="round"/>
<path d="M8.76758 21.1874C9.90433 20.8333 11.2404 20.5625 12.5158 21.1874M14.1359 29.3124C13.5446 29.7499 12.6946 29.7157 12.064 29.4032M9.29352 23.8328C10.1474 24.1556 11.0013 24.1556 11.8551 23.8328M18.3159 24.0194C17.6845 24.1338 17.053 24.0716 16.4216 23.8328M26.0034 34.0704L29.395 37.462C29.7611 37.8281 29.7611 38.4217 29.395 38.7878C29.212 38.9709 28.972 39.0625 28.7321 39.0625C28.4923 39.0625 28.2523 38.971 28.0693 38.7878L24.6736 35.3922" stroke="#1E1E1E" stroke-width="0.703125" stroke-miterlimit="10" stroke-linecap="round" stroke-linejoin="round"/>
<path d="M16.5326 35.1682C15.0885 33.9644 14.1694 32.1521 14.1694 30.125C14.1694 26.5006 17.1076 23.5625 20.7319 23.5625C24.3563 23.5625 27.2944 26.5006 27.2944 30.125C27.2944 33.7494 24.3563 36.6875 20.7319 36.6875C19.9077 36.6875 19.1189 36.5356 18.3921 36.2581" stroke="#1E1E1E" stroke-width="0.703125" stroke-miterlimit="10" stroke-linecap="round" stroke-linejoin="round"/>
<path d="M20.7319 34.8125C23.3208 34.8125 25.4194 32.7138 25.4194 30.125C25.4194 27.5362 23.3208 25.4375 20.7319 25.4375C18.1431 25.4375 16.0444 27.5362 16.0444 30.125C16.0444 32.7138 18.1431 34.8125 20.7319 34.8125Z" stroke="#1E1E1E" stroke-width="0.703125" stroke-miterlimit="10" stroke-linecap="round" stroke-linejoin="round"/>
<path d="M17.2989 33.3162L18.9458 32.0724C19.03 32.0088 19.098 31.9261 19.1442 31.8312C19.1904 31.7363 19.2136 31.6318 19.2117 31.5262L19.1869 30.125M21.8869 30.0118L22.7656 28.947C22.8413 28.8553 22.9401 28.7853 23.0518 28.7444C23.1635 28.7035 23.2841 28.6931 23.4012 28.7143L25.2973 29.0569M22.1833 32.1888L23.5958 33.836M20.38 25.4506L20.6317 28.6183M18.9576 28.1083L20.4808 27.2188M26.1444 36.8498L27.4569 35.5373M3.62625 30.6992C3.9443 30.8136 4.27575 30.8866 4.61244 30.9164C5.89244 31.0308 7.16538 30.6912 8.09788 29.6396M28.2554 21.0006C28.1496 19.9395 27.6593 18.9918 26.926 18.2984C26.6365 18.0246 26.5123 17.6151 26.6099 17.2289C26.6855 16.9296 26.7237 16.6221 26.7235 16.3134C26.7235 15.0051 26.0514 13.8543 25.0339 13.1861C24.7907 13.0263 24.624 12.777 24.5598 12.4932C24.1829 10.8266 22.6933 9.58219 20.9128 9.58219C20.8846 9.58219 20.8564 9.5825 20.8284 9.58313C20.5194 9.59 20.2248 9.4625 20.0078 9.2425C19.2516 8.47569 18.2012 8 17.0392 8C16.1934 8 15.4069 8.25212 14.7498 8.68494C14.3806 8.92813 13.8963 8.92813 13.5271 8.68494C12.8699 8.25212 12.0834 8 11.2376 8C10.0756 8 9.02519 8.47569 8.269 9.24244C8.05206 9.46244 7.75731 9.58994 7.44844 9.58306C7.42038 9.58244 7.39225 9.58213 7.36406 9.58213C5.5835 9.58213 4.094 10.8266 3.717 12.4931C3.65281 12.7769 3.48613 13.0263 3.24288 13.186C2.22538 13.8542 1.55331 15.0051 1.55331 16.3133C1.55331 16.6293 1.59281 16.9359 1.66688 17.2288C1.7645 17.6151 1.64031 18.0246 1.35081 18.2983C0.519063 19.0848 0 20.1985 0 21.4336C0 22.6119 0.472563 23.6794 1.23825 24.4579C1.56119 24.7863 1.64231 25.2771 1.45869 25.6995C1.23481 26.2146 1.12344 26.7899 1.15625 27.3946C1.19756 28.1564 1.4615 28.8494 1.88544 29.4161M25.6071 25.75C26.9073 25.0802 27.6291 24.1253 27.9851 23.1418M14.1384 14.5781V8.87369" stroke="#1E1E1E" stroke-width="0.703125" stroke-miterlimit="10" stroke-linecap="round" stroke-linejoin="round"/>
<path d="M4.25183 22.8124C3.32596 18.4144 5.28052 13.9891 9.25196 12.0416C10.6866 11.338 12.4015 11.4574 13.7065 12.3795C13.8641 12.4909 14.0138 12.5624 14.1383 12.5624C14.2483 12.5624 14.3785 12.5036 14.5165 12.4094C15.8494 11.4998 17.5559 11.3259 19.0063 12.0336C22.9901 13.9772 24.9522 18.4076 24.0249 22.8124" stroke="#1E1E1E" stroke-width="0.703125" stroke-miterlimit="10" stroke-linecap="round" stroke-linejoin="round"/>
</g>
<defs>
<clipPath id="clip0_2049_2429">
<rect width="29.6697" height="39.0626" fill="white"/>
</clipPath>
</defs>
</svg>
