<svg width="33" height="33" viewBox="0 0 33 33" fill="none" xmlns="http://www.w3.org/2000/svg">
<g clip-path="url(#clip0_2049_2458)">
<path d="M16.5562 14.5869V3.31063C16.5562 2.04283 15.5187 0.978579 14.2511 1.00045C13.0199 1.02177 12.0254 2.02945 12.0254 3.26551V14.536" stroke="#1E1E1E" stroke-width="1.2" stroke-miterlimit="10" stroke-linecap="round"/>
<path d="M7.51711 14.5871V9.48039C7.51711 8.51202 6.72937 7.72427 5.75606 7.72427C4.78768 7.72427 4 8.51202 4 9.48039L4.001 23.1259C4.48669 30.1416 8.78998 31.0879 12.9358 31.0879C16.3706 31.0879 19.4558 29.384 20.9771 26.6606C21.1727 26.3445 21.7021 25.5122 22.3298 24.5263C23.2201 23.1274 24.0286 21.8755 24.5967 20.9869C25.3617 19.7906 26.177 18.6277 27.0449 17.504C27.2595 17.2262 27.4352 17.0053 27.5224 16.9102C27.778 16.6313 27.9464 16.284 27.9967 15.9091C28.1766 14.5656 26.5866 13.6044 25.3056 14.0476C25.1354 14.1059 24.975 14.1896 24.8297 14.2959C24.1257 14.8138 22.0924 16.9171 21.2987 18.3043L21.2937 18.313C21.0936 18.6557 20.5658 18.5084 20.5624 18.1116L20.5621 18.0775V7.01165C20.5621 5.88846 19.643 4.94572 18.52 4.96509C17.4294 4.9839 16.5483 5.87665 16.5483 6.97171L16.556 14.5871" stroke="#1E1E1E" stroke-width="1.2" stroke-miterlimit="10" stroke-linecap="round"/>
<path d="M12.0252 14.536L12.0146 6.08188C12.0146 4.88301 11.0763 3.86838 9.87802 3.83288C8.6329 3.79601 7.53884 4.79807 7.53884 6.03506L7.51709 14.5869" stroke="#1E1E1E" stroke-width="1.2" stroke-miterlimit="10" stroke-linecap="round"/>
</g>
<defs>
<clipPath id="clip0_2049_2458">
<rect width="32.0107" height="32.0878" fill="white"/>
</clipPath>
</defs>
</svg>
