<svg width="32" height="32" viewBox="0 0 32 32" fill="none" xmlns="http://www.w3.org/2000/svg">
<path d="M16.5123 15.2309C16.6403 15.1029 16.7683 15.0069 16.9283 15.0069C17.0883 15.0069 17.2163 15.0709 17.3443 15.2309C17.4403 15.3589 17.5683 15.3909 17.7283 15.3909C17.8243 15.3909 17.9523 15.3589 18.0483 15.2949C18.2403 15.1349 18.2723 14.8149 18.1123 14.6229C17.8243 14.2709 17.4083 14.0469 16.9603 14.0469C16.5123 14.0469 16.0963 14.2389 15.8083 14.6229C15.6483 14.8149 15.6803 15.1349 15.8723 15.2949C16.0323 15.4549 16.3523 15.4229 16.5123 15.2309ZM13.4723 15.2949C13.6643 15.1349 13.6963 14.8149 13.5363 14.6229C13.2483 14.2709 12.8003 14.0469 12.3843 14.0469C11.9363 14.0469 11.5203 14.2389 11.2323 14.6229C11.0723 14.8149 11.1043 15.1349 11.2963 15.2949C11.4883 15.4549 11.8083 15.4229 11.9683 15.2309C12.0963 15.1029 12.2243 15.0069 12.3843 15.0069C12.5443 15.0069 12.6723 15.0709 12.8003 15.2309C12.8963 15.3589 13.0243 15.3909 13.1523 15.3909C13.2803 15.3909 13.3763 15.3589 13.4723 15.2949ZM16.3523 17.9189C16.1603 17.7269 15.8723 17.7269 15.6803 17.9189C15.3923 18.2069 15.0403 18.3669 14.6563 18.3669C14.2723 18.3669 13.8883 18.2069 13.6323 17.9189C13.4403 17.7269 13.1523 17.7269 12.9603 17.9189C12.7683 18.1109 12.7683 18.3989 12.9603 18.5909C13.4083 19.0709 14.0163 19.3269 14.6883 19.3269C15.3603 19.3269 15.9363 19.0709 16.4163 18.5909C16.5443 18.3989 16.5443 18.1109 16.3523 17.9189Z" fill="#1E1E1E"/>
<path d="M26.1758 23.6156H25.9838C26.1758 23.2316 26.2398 22.8156 26.2078 22.5276C26.1118 21.4396 25.2798 20.4796 24.7358 20.2236C24.5118 20.0956 24.2238 20.1916 24.0958 20.4156C23.6158 21.2796 23.1038 21.3116 22.4638 21.3436C22.3038 21.3436 22.1758 21.3756 22.0478 21.3756C21.0238 21.5036 19.9998 22.2396 19.8078 23.5836C19.6478 23.5836 19.5198 23.6156 19.3918 23.6796L17.2478 22.7836V21.5676C19.3278 20.6076 20.7678 18.5276 20.7998 16.0956C22.6238 13.5356 23.0718 10.7196 21.9838 8.54361C21.6318 7.83961 21.1518 7.26361 20.5438 6.75161C20.1598 3.80761 17.6638 1.59961 14.6558 1.59961C11.6158 1.59961 9.11982 3.80761 8.76782 6.78361C8.15982 7.26361 7.67982 7.87161 7.32782 8.57561C6.23982 10.7516 6.68782 13.5676 8.51182 16.1276C8.54382 18.5596 10.0158 20.6396 12.0638 21.5996V22.8156L7.74382 24.6076C6.11182 25.2796 5.21582 26.4956 5.21582 28.0636V29.9196C5.21582 30.1756 5.43982 30.3996 5.69582 30.3996H25.0238C26.3038 30.3996 27.3278 29.3436 27.3278 28.0956V24.7676C27.3278 24.1276 26.8158 23.6156 26.1758 23.6156ZM22.1758 22.3356C22.3038 22.3356 22.3998 22.3036 22.5278 22.3036C23.1358 22.2716 23.9678 22.2076 24.6398 21.3436C24.8958 21.6316 25.1838 22.0796 25.2478 22.5596C25.2798 22.9436 25.1198 23.2956 24.7678 23.5836H20.7678C20.9598 22.7836 21.5998 22.3996 22.1758 22.3356ZM19.1358 29.4396H9.69582V28.0636C9.69582 27.8716 9.85582 27.6796 10.0798 27.6796H18.7198V28.0636C18.6878 28.5756 18.8478 29.0556 19.1358 29.4396ZM21.1518 9.02361C21.9198 10.5276 21.7918 12.4156 20.8318 14.3036V13.8236C20.8318 12.1276 19.0398 11.1676 16.7998 10.7836C17.5038 10.2716 18.0478 9.53561 18.3678 8.89561C18.7198 8.15961 18.8478 7.45561 18.7838 6.81561C19.8398 7.32761 20.6718 8.06361 21.1518 9.02361ZM14.6558 2.55961C16.8638 2.55961 18.7838 4.03161 19.4238 6.07961C18.1438 5.43961 16.5438 5.08761 14.6558 5.08761C12.7678 5.08761 11.1678 5.43961 9.88782 6.07961C10.5278 3.99961 12.4158 2.55961 14.6558 2.55961ZM8.15982 8.99161C9.11982 7.07161 11.4238 6.01561 14.6558 6.01561C15.7758 6.01561 16.7998 6.14361 17.6638 6.39961C17.9518 6.84761 17.8878 7.64761 17.4718 8.44761C16.9918 9.43961 15.9358 10.5916 14.4638 10.5916C11.4558 10.6236 8.44782 11.6156 8.44782 13.7916V14.2396C7.55182 12.4156 7.39182 10.4956 8.15982 8.99161ZM9.43982 15.9996V13.7916C9.43982 12.3516 12.1278 11.5516 14.6558 11.5516C16.0638 11.5516 17.4078 11.7756 18.3678 12.1916C19.0398 12.4796 19.8398 12.9916 19.8398 13.7916V15.9996C19.8398 18.8796 17.5038 21.2156 14.6238 21.2156C11.7438 21.2156 9.43982 18.8796 9.43982 15.9996ZM6.17582 28.0636C6.17582 26.8796 6.81582 26.0156 8.09582 25.5036L12.7358 23.5836C12.9278 23.5196 13.0238 23.3276 13.0238 23.1356V21.9516C13.5358 22.1116 14.0798 22.1756 14.6558 22.1756C15.2318 22.1756 15.7758 22.0796 16.2878 21.9516V23.1356C16.2878 23.3276 16.4158 23.5196 16.5758 23.5836L18.7198 24.4796C18.6878 24.5756 18.6878 24.6716 18.6878 24.7676V26.7516H10.0478C9.31182 26.7516 8.70382 27.3596 8.70382 28.0956V29.4396H6.14382V28.0636H6.17582ZM26.3678 28.0956C26.3678 28.8316 25.7598 29.4396 25.0238 29.4396H21.0238C20.2878 29.4396 19.6798 28.8316 19.6798 28.0956V24.7676C19.6798 24.6716 19.7758 24.5756 19.8718 24.5756H26.2078C26.3038 24.5756 26.3998 24.6716 26.3998 24.7676V28.0956H26.3678Z" fill="#1E1E1E"/>
<path d="M23.6159 26.5278H22.3999C22.1439 26.5278 21.9199 26.7518 21.9199 27.0078C21.9199 27.2638 22.1439 27.4878 22.3999 27.4878H23.6159C23.8719 27.4878 24.0959 27.2638 24.0959 27.0078C24.0959 26.7518 23.8719 26.5278 23.6159 26.5278ZM6.01587 19.7438V20.4798C6.01587 20.7358 6.23987 20.9598 6.49587 20.9598C6.75187 20.9598 6.97587 20.7358 6.97587 20.4798V19.7438H7.71187C7.96788 19.7438 8.19187 19.5198 8.19187 19.2638C8.19187 19.0078 7.96788 18.7838 7.71187 18.7838H6.97587V18.0478C6.97587 17.7918 6.75187 17.5678 6.49587 17.5678C6.23987 17.5678 6.01587 17.7918 6.01587 18.0478V18.7838H5.27987C5.02387 18.7838 4.79987 19.0078 4.79987 19.2638C4.79987 19.5198 5.02387 19.7438 5.27987 19.7438H6.01587ZM23.6159 15.3918H24.3519V16.1278C24.3519 16.3838 24.5759 16.6078 24.8319 16.6078C25.0879 16.6078 25.3119 16.3838 25.3119 16.1278V15.3918H26.0479C26.3039 15.3918 26.5279 15.1678 26.5279 14.9118C26.5279 14.6558 26.3039 14.4318 26.0479 14.4318H25.3119V13.6958C25.3119 13.4398 25.0879 13.2158 24.8319 13.2158C24.5759 13.2158 24.3519 13.4398 24.3519 13.6958V14.4318H23.6159C23.3599 14.4318 23.1359 14.6558 23.1359 14.9118C23.1359 15.1678 23.3599 15.3918 23.6159 15.3918ZM5.15187 15.5838C5.40788 15.5838 5.63187 15.3598 5.63187 15.1038C5.63187 14.8478 5.40788 14.6238 5.15187 14.6238C4.89587 14.6238 4.67188 14.8478 4.67188 15.1038C4.67188 15.3598 4.89587 15.5838 5.15187 15.5838Z" fill="#1E1E1E"/>
</svg>
