<svg width="32" height="32" viewBox="0 0 32 32" fill="none" xmlns="http://www.w3.org/2000/svg">
<path d="M19.1367 18.994L22.0785 25.9375L25.0203 18.994" stroke="#1E1E1E" stroke-width="1.3" stroke-miterlimit="10" stroke-linecap="round" stroke-linejoin="round"/>
<mask id="mask0_2049_2466" style="mask-type:luminance" maskUnits="userSpaceOnUse" x="0" y="0" width="32" height="32">
<path d="M31.3496 31.3496V0.650391H0.650391V31.3496H31.3496Z" fill="white" stroke="white" stroke-width="1.3"/>
</mask>
<g mask="url(#mask0_2049_2466)">
<path d="M26.4532 2.18755H27.9353C30.0115 2.18755 31.5104 4.17473 30.9401 6.17104L28.4518 14.8799C27.6388 17.7256 25.0378 19.6875 22.0782 19.6875C19.1187 19.6875 16.5177 17.7256 15.7046 14.8799L13.2164 6.17104C12.646 4.17473 14.145 2.18755 16.2212 2.18755H17.7032" stroke="#1E1E1E" stroke-width="1.3" stroke-miterlimit="10" stroke-linecap="round" stroke-linejoin="round"/>
<path d="M4.6875 23.4375V20.375C4.6875 17.9243 6.67424 15.9375 9.12499 15.9375C11.5757 15.9375 13.5625 17.9243 13.5625 20.375V26.8045C13.5625 29.1561 15.4688 31.0625 17.8205 31.0625C20.1721 31.0625 22.0784 29.1561 22.0784 26.8045V25.9375" stroke="#1E1E1E" stroke-width="1.3" stroke-miterlimit="10" stroke-linecap="round" stroke-linejoin="round"/>
<path d="M0.9375 27.1875C0.9375 29.2586 2.61643 30.9375 4.68749 30.9375C6.75855 30.9375 8.43748 29.2586 8.43748 27.1875C8.43748 25.1165 6.75855 23.4375 4.68749 23.4375C2.61643 23.4375 0.9375 25.1165 0.9375 27.1875Z" stroke="#1E1E1E" stroke-width="1.3" stroke-miterlimit="10" stroke-linecap="round" stroke-linejoin="round"/>
<path d="M4.6875 27.4746C4.84626 27.4746 4.97461 27.3463 4.97461 27.1875C4.97461 27.0287 4.84626 26.9004 4.6875 26.9004C4.52874 26.9004 4.40039 27.0287 4.40039 27.1875C4.40039 27.3463 4.52874 27.4746 4.6875 27.4746Z" fill="#1E1E1E" stroke="#1E1E1E" stroke-width="1.3"/>
</g>
</svg>
