<svg width="32" height="37" viewBox="0 0 32 37" fill="none" xmlns="http://www.w3.org/2000/svg">
<path d="M27.4502 8C27.6533 7.99999 27.8544 8.04114 28.041 8.12109C28.2277 8.20109 28.396 8.31874 28.5361 8.46582C28.6763 8.61291 28.7856 8.78714 28.8564 8.97754C28.9272 9.1678 28.9581 9.3705 28.9482 9.57324L28 29.0127V32.5C28 32.8977 27.8417 33.2793 27.5605 33.5605C27.2792 33.8418 26.8978 34 26.5 34H24C23.8674 34 23.7403 33.9473 23.6465 33.8535C23.5528 33.7598 23.5 33.6325 23.5 33.5C23.5001 33.3675 23.5528 33.2402 23.6465 33.1465C23.7402 33.0528 23.8675 33 24 33H26.5C26.6326 33 26.7598 32.9473 26.8535 32.8535C26.9472 32.7598 27 32.6325 27 32.5V29.5H24.5C24.3674 29.5 24.2403 29.4473 24.1465 29.3535C24.0528 29.2598 24 29.1325 24 29C24.0001 28.8675 24.0528 28.7402 24.1465 28.6465C24.2402 28.5528 24.3675 28.5 24.5 28.5H27.0244L27.8525 11.5H26.0312L20.8574 16.6729L21.0869 21.9316C21.0913 22.0633 21.0426 22.1914 20.9531 22.2881C20.8636 22.3846 20.7399 22.4425 20.6084 22.4482C20.4768 22.4539 20.3485 22.4068 20.251 22.3184C20.1536 22.2299 20.095 22.107 20.0879 21.9756L19.8975 17.6328L14.0312 23.5H22C22.2651 23.5 22.5195 23.6055 22.707 23.793C22.8945 23.9804 22.9999 24.2349 23 24.5V32C23 32.5304 22.789 33.039 22.4141 33.4141C22.039 33.7891 21.5304 34 21 34H11C10.4696 34 9.96101 33.7891 9.58594 33.4141C9.21095 33.039 9 32.5304 9 32V28.5312L5.99609 31.5342C5.9879 31.6543 5.93912 31.7678 5.85352 31.8535C5.76789 31.9391 5.65421 31.9878 5.53418 31.9961L4.82812 32.7031C4.79535 32.7359 4.75665 32.7592 4.7168 32.7773C4.95086 32.9209 5.22093 33 5.5 33H8C8.13253 33 8.25977 33.0528 8.35352 33.1465C8.44721 33.2402 8.49992 33.3675 8.5 33.5C8.5 33.6325 8.44718 33.7598 8.35352 33.8535C8.25975 33.9473 8.1326 34 8 34H5.5C4.83712 34 4.20123 33.7372 3.73242 33.2686C3.26358 32.7997 3 32.163 3 31.5V22C3.00008 21.0694 3.28899 20.1613 3.82617 19.4014C4.3634 18.6416 5.12276 18.0663 6 17.7559V16.5C5.73478 16.5 5.48051 16.3946 5.29297 16.207C5.10552 16.0195 5 15.7651 5 15.5V13.5C5.00008 13.2349 5.10551 12.9804 5.29297 12.793C5.48049 12.6055 5.73487 12.5 6 12.5H6.5V9.75C6.50004 9.52047 6.54504 9.29313 6.63281 9.08105C6.72076 8.86873 6.85019 8.6752 7.0127 8.5127C7.1751 8.35034 7.36794 8.2217 7.58008 8.13379C7.7924 8.04584 8.02019 8 8.25 8C8.4798 8 8.70761 8.04585 8.91992 8.13379C9.13206 8.22171 9.32491 8.35034 9.4873 8.5127C9.64981 8.6752 9.77924 8.86873 9.86719 9.08105C9.95495 9.29313 9.99996 9.52048 10 9.75V12.5H10.5C10.7651 12.5 11.0195 12.6055 11.207 12.793C11.3945 12.9804 11.4999 13.2349 11.5 13.5V15.5C11.5 15.7651 11.3945 16.0195 11.207 16.207C11.0195 16.3946 10.7652 16.5 10.5 16.5V17.7559C11.3773 18.0663 12.1366 18.6415 12.6738 19.4014C13.211 20.1613 13.4999 21.0694 13.5 22C13.5 22.1325 13.4472 22.2598 13.3535 22.3535C13.2598 22.4473 13.1326 22.5 13 22.5C12.8674 22.5 12.7403 22.4473 12.6465 22.3535C12.5528 22.2598 12.5 22.1325 12.5 22C12.4999 21.0719 12.1309 20.1817 11.4746 19.5254C10.8183 18.8691 9.92818 18.5 9 18.5H7.5C6.57182 18.5 5.68175 18.8691 5.02539 19.5254C4.36909 20.1817 4.00008 21.0719 4 22V31.5C4 31.7785 4.07872 32.0485 4.22168 32.2822C4.23971 32.2427 4.26441 32.2054 4.29688 32.1729L5 31.4697V30.5C5.00008 30.3675 5.05279 30.2402 5.14648 30.1465C5.24024 30.0528 5.36747 30 5.5 30C5.63253 30 5.75977 30.0528 5.85352 30.1465C5.94048 30.2335 5.99004 30.3496 5.99707 30.4717L9 27.4697V24.5C9.00008 24.2349 9.10551 23.9804 9.29297 23.793C9.48049 23.6055 9.73487 23.5 10 23.5H12.9697L19.8535 16.6162L19.5459 9.56543C19.5371 9.3632 19.5693 9.16112 19.6406 8.97168C19.712 8.78226 19.821 8.6091 19.9609 8.46289C20.1008 8.31678 20.2691 8.20059 20.4551 8.12109C20.6413 8.04159 20.8425 8.00001 21.0449 8H27.4502ZM10 27.5312V32C10 32.2651 10.1055 32.5195 10.293 32.707C10.4805 32.8946 10.7348 33 11 33H21C21.2652 33 21.5195 32.8946 21.707 32.707C21.8945 32.5195 22 32.2651 22 32V27.5H10.0312L10 27.5312ZM11.5 28.5C11.6325 28.5 11.7598 28.5528 11.8535 28.6465C11.9472 28.7402 11.9999 28.8675 12 29V31.5C12 31.6325 11.9472 31.7598 11.8535 31.8535C11.7598 31.9473 11.6326 32 11.5 32C11.3674 32 11.2403 31.9473 11.1465 31.8535C11.0528 31.7598 11 31.6325 11 31.5V29C11.0001 28.8675 11.0528 28.7402 11.1465 28.6465C11.2402 28.5528 11.3675 28.5 11.5 28.5ZM5.5 21C5.63253 21 5.75977 21.0528 5.85352 21.1465C5.94721 21.2402 5.99992 21.3675 6 21.5V28.5C6 28.6325 5.94718 28.7598 5.85352 28.8535C5.75975 28.9473 5.6326 29 5.5 29C5.36739 29 5.24025 28.9473 5.14648 28.8535C5.05281 28.7598 5 28.6325 5 28.5V21.5C5.00008 21.3675 5.05279 21.2402 5.14648 21.1465C5.24024 21.0528 5.36747 21 5.5 21ZM26.1807 15.0479C26.2462 15.0511 26.3108 15.0667 26.3701 15.0947C26.4293 15.1227 26.4823 15.1625 26.5264 15.2109C26.5705 15.2596 26.6048 15.3171 26.627 15.3789C26.649 15.4407 26.6585 15.5067 26.6553 15.5723L26.124 26.4619C26.1176 26.5943 26.0591 26.7185 25.9609 26.8076C25.8627 26.8967 25.7331 26.9439 25.6006 26.9375C25.4682 26.931 25.344 26.8716 25.2549 26.7734C25.1658 26.6752 25.1186 26.5456 25.125 26.4131L25.6572 15.5225C25.6638 15.3902 25.7222 15.2657 25.8203 15.1768C25.9185 15.0877 26.0483 15.0415 26.1807 15.0479ZM11.0312 26.5H22V24.5H13.0312L11.0312 26.5ZM10 26.4697L11.9697 24.5H10V26.4697ZM15.0312 14.2676C15.1924 13.8325 15.8076 13.8325 15.9688 14.2676L16.126 14.6924C16.2261 14.9629 16.3839 15.2091 16.5879 15.4131C16.7918 15.6168 17.0373 15.774 17.3076 15.874L17.7334 16.0312C18.168 16.1924 18.168 16.8086 17.7334 16.9697L17.3076 17.126C17.0372 17.226 16.7918 17.384 16.5879 17.5879C16.3839 17.7919 16.2261 18.038 16.126 18.3086L15.9688 18.7334C15.8077 19.1682 15.1923 19.1682 15.0312 18.7334L14.874 18.3086C14.7739 18.038 14.6161 17.7919 14.4121 17.5879C14.2082 17.384 13.9628 17.2261 13.6924 17.126L13.2666 16.9697C12.8319 16.8087 12.832 16.1924 13.2666 16.0312L13.6924 15.874C13.9627 15.774 14.2083 15.6168 14.4121 15.4131C14.6161 15.2091 14.7739 14.963 14.874 14.6924L15.0312 14.2676ZM7 17.5273C7.16397 17.5093 7.33103 17.5 7.5 17.5H9C9.16703 17.5 9.33398 17.509 9.5 17.5273V16.5H7V17.5273ZM15.5 15.6543C15.2776 15.9903 14.9894 16.2776 14.6533 16.5C14.9895 16.7224 15.2776 17.0105 15.5 17.3467C15.7224 17.0106 16.0106 16.7224 16.3467 16.5C16.0107 16.2776 15.7224 15.9903 15.5 15.6543ZM20.8125 15.6572L24.9707 11.5H20.6318L20.8125 15.6572ZM6 15.5H10.5V13.5H6V15.5ZM26.3047 12.4844C26.437 12.4908 26.5623 12.5504 26.6514 12.6484C26.7404 12.7466 26.7867 12.8764 26.7803 13.0088L26.75 13.6504C26.7434 13.7828 26.6842 13.907 26.5859 13.9961C26.5372 14.0402 26.4799 14.0746 26.418 14.0967C26.3561 14.1187 26.2902 14.1283 26.2246 14.125C26.1591 14.1217 26.0944 14.1062 26.0352 14.0781C25.9758 14.05 25.923 14.0097 25.8789 13.9609C25.7899 13.8626 25.7434 13.7331 25.75 13.6006L25.7812 12.96C25.7877 12.8276 25.8471 12.7033 25.9453 12.6143C26.0434 12.5253 26.1724 12.4781 26.3047 12.4844ZM8.25 9C8.05117 9 7.86036 9.07918 7.71973 9.21973C7.57915 9.3603 7.50008 9.5512 7.5 9.75V12.5H9V9.75C8.99992 9.5512 8.92085 9.3603 8.78027 9.21973C8.63964 9.07917 8.44883 9.00001 8.25 9ZM21.0449 9C20.9775 8.99994 20.9107 9.01364 20.8486 9.04004C20.7866 9.0665 20.7303 9.10559 20.6836 9.1543C20.6369 9.20308 20.6 9.26099 20.5762 9.32422C20.5524 9.38741 20.542 9.45502 20.5449 9.52246L20.5879 10.5H25.9707L27.0791 9.3916C27.2256 9.24532 27.463 9.24521 27.6094 9.3916C27.7554 9.53802 27.7555 9.77553 27.6094 9.92188L27.0312 10.5H27.9023L27.9492 9.52441C27.9525 9.45695 27.9425 9.38949 27.9189 9.32617C27.8953 9.26271 27.8592 9.20431 27.8125 9.15527C27.7659 9.10636 27.7095 9.06769 27.6475 9.04102C27.5853 9.01437 27.5179 9.00002 27.4502 9H21.0449Z" fill="#1E1E1E"/>
</svg>
