<svg width="33" height="33" viewBox="0 0 33 33" fill="none" xmlns="http://www.w3.org/2000/svg">
<path d="M19.4171 18.0835C18.5644 19.5213 16.9081 20.278 15.2629 19.9813C13.6178 19.6846 12.3302 18.397 12.0335 16.7518C11.7368 15.1067 12.4934 13.4504 13.9313 12.5977" stroke="#1E1E1E" stroke-width="1.3" stroke-linecap="round" stroke-linejoin="round"/>
<path d="M24.0019 22.6686C21.7021 24.4129 18.8929 25.353 16.0064 25.3443C11.2236 25.4294 6.80451 22.8008 4.59636 18.5574C3.80317 16.9497 3.80317 15.0644 4.59636 13.4566C5.70069 11.2575 7.46109 9.45578 9.63408 8.30078" stroke="#1E1E1E" stroke-width="1.3" stroke-linecap="round" stroke-linejoin="round"/>
<path d="M27.2428 18.8532C27.2964 18.7518 27.366 18.6609 27.4166 18.5576C28.2098 16.9498 28.2098 15.0645 27.4166 13.4568C25.2085 9.21336 20.7893 6.5848 16.0065 6.66998C15.7066 6.66998 15.4152 6.70999 15.1191 6.7295" stroke="#1E1E1E" stroke-width="1.3" stroke-linecap="round" stroke-linejoin="round"/>
<path d="M28.0116 26.6781L5.33545 4.00195" stroke="#1E1E1E" stroke-width="1.3" stroke-linecap="round" stroke-linejoin="round"/>
</svg>
