<svg width="16" height="16" viewBox="0 0 16 16" fill="none" xmlns="http://www.w3.org/2000/svg">
<path d="M8.00075 0C5.82806 0 5.55539 0.00950015 4.70205 0.0483335C3.85037 0.0873335 3.26903 0.222167 2.76036 0.42C2.23419 0.624333 1.78785 0.897667 1.34318 1.3425C0.898176 1.78717 0.62484 2.2335 0.419838 2.7595C0.221502 3.26833 0.0865008 3.84983 0.0481671 4.70117C0.01 5.5545 0 5.82733 0 8C0 10.1727 0.00966692 10.4445 0.048334 11.2978C0.0875011 12.1495 0.222336 12.7308 0.420004 13.2395C0.624507 13.7657 0.897843 14.212 1.34268 14.6567C1.78719 15.1017 2.23352 15.3757 2.75936 15.58C3.26837 15.7778 3.84987 15.9127 4.70138 15.9517C5.55472 15.9905 5.82723 16 7.99975 16C10.1726 16 10.4444 15.9905 11.2978 15.9517C12.1495 15.9127 12.7315 15.7778 13.2405 15.58C13.7665 15.3757 14.2121 15.1017 14.6567 14.6567C15.1017 14.212 15.375 13.7657 15.58 13.2397C15.7767 12.7308 15.9117 12.1493 15.9517 11.298C15.99 10.4447 16 10.1727 16 8C16 5.82733 15.99 5.55467 15.9517 4.70133C15.9117 3.84967 15.7767 3.26833 15.58 2.75967C15.375 2.2335 15.1017 1.78717 14.6567 1.3425C14.2116 0.8975 13.7666 0.624167 13.24 0.42C12.73 0.222167 12.1483 0.0873335 11.2966 0.0483335C10.4433 0.00950015 10.1716 0 7.99825 0H8.00075ZM7.28308 1.44167C7.49608 1.44133 7.73375 1.44167 8.00075 1.44167C10.1368 1.44167 10.3899 1.44933 11.2335 1.48767C12.0135 1.52333 12.4368 1.65367 12.7188 1.76317C13.0921 1.90817 13.3583 2.0815 13.6381 2.3615C13.9181 2.6415 14.0915 2.90817 14.2368 3.2815C14.3463 3.56317 14.4768 3.9865 14.5123 4.7665C14.5507 5.60983 14.559 5.86317 14.559 7.99817C14.559 10.1332 14.5507 10.3865 14.5123 11.2298C14.4767 12.0098 14.3463 12.4332 14.2368 12.7148C14.0918 13.0882 13.9181 13.354 13.6381 13.6338C13.3581 13.9138 13.0923 14.0872 12.7188 14.2322C12.4371 14.3422 12.0135 14.4722 11.2335 14.5078C10.3901 14.5462 10.1368 14.5545 8.00075 14.5545C5.86456 14.5545 5.61139 14.5462 4.76805 14.5078C3.98804 14.4718 3.5647 14.3415 3.28253 14.232C2.9092 14.087 2.64253 13.9137 2.36252 13.6337C2.08252 13.3537 1.90919 13.0877 1.76385 12.7142C1.65435 12.4325 1.52385 12.0092 1.48835 11.2292C1.45002 10.3858 1.44235 10.1325 1.44235 7.99617C1.44235 5.85983 1.45002 5.60783 1.48835 4.7645C1.52402 3.9845 1.65435 3.56117 1.76385 3.27917C1.90885 2.90583 2.08252 2.63917 2.36252 2.35917C2.64253 2.07917 2.9092 1.90583 3.28253 1.7605C3.56454 1.6505 3.98804 1.5205 4.76805 1.48467C5.50606 1.45133 5.79206 1.44133 7.28308 1.43967V1.44167ZM12.2711 2.77C11.7411 2.77 11.3111 3.1995 11.3111 3.72967C11.3111 4.25967 11.7411 4.68967 12.2711 4.68967C12.8011 4.68967 13.2311 4.25967 13.2311 3.72967C13.2311 3.19967 12.8011 2.76967 12.2711 2.76967V2.77ZM8.00075 3.89167C5.73189 3.89167 3.89237 5.73117 3.89237 8C3.89237 10.2688 5.73189 12.1075 8.00075 12.1075C10.2696 12.1075 12.1085 10.2688 12.1085 8C12.1085 5.73117 10.2696 3.89167 8.00075 3.89167ZM8.00075 5.33333C9.47343 5.33333 10.6674 6.52717 10.6674 8C10.6674 9.47267 9.47343 10.6667 8.00075 10.6667C6.5279 10.6667 5.33406 9.47267 5.33406 8C5.33406 6.52717 6.5279 5.33333 8.00075 5.33333Z" fill="#0E0E0E"/>
</svg>
