<svg width="104" height="104" viewBox="0 0 104 104" fill="none" xmlns="http://www.w3.org/2000/svg">
<path fill-rule="evenodd" clip-rule="evenodd" d="M52.437 102.252C58.9788 102.252 65.4565 100.964 71.5004 98.4601C77.5442 95.9567 83.0358 92.2873 87.6616 87.6616C92.2873 83.0358 95.9567 77.5442 98.4601 71.5004C100.964 65.4565 102.252 58.9788 102.252 52.437C102.252 45.8951 100.964 39.4174 98.4601 33.3735C95.9567 27.3297 92.2873 21.8381 87.6616 17.2123C83.0358 12.5866 77.5442 8.91722 71.5004 6.41378C65.4565 3.91033 58.9788 2.62183 52.437 2.62183C39.2252 2.62183 26.5545 7.87019 17.2123 17.2123C7.87019 26.5545 2.62183 39.2252 2.62183 52.437C2.62183 65.6487 7.87019 78.3194 17.2123 87.6616C26.5545 97.0037 39.2252 102.252 52.437 102.252ZM45.7008 30.2415L76.9405 47.5994C77.8029 48.0789 78.5215 48.7802 79.0218 49.6308C79.5221 50.4813 79.7859 51.4502 79.7859 52.437C79.7859 53.4237 79.5221 54.3926 79.0218 55.2431C78.5215 56.0937 77.8029 56.7951 76.9405 57.2746L45.7008 74.6324C44.6893 75.1946 43.5484 75.4828 42.3912 75.4684C41.234 75.454 40.1007 75.1375 39.1035 74.5502C38.1063 73.963 37.2798 73.1254 36.706 72.1204C36.1321 71.1154 35.8308 69.9779 35.8319 68.8206V36.0533C35.8308 34.896 36.1321 33.7585 36.706 32.7535C37.2798 31.7486 38.1063 30.9109 39.1035 30.3237C40.1007 29.7364 41.234 29.4199 42.3912 29.4055C43.5484 29.3911 44.6893 29.6793 45.7008 30.2415Z" fill="#F5F5F5"/>
</svg>
