<svg width="20" height="20" viewBox="0 0 20 20" fill="none" xmlns="http://www.w3.org/2000/svg">
<path d="M16.6666 8.33317C16.6666 12.494 12.0508 16.8273 10.5008 18.1657C10.3564 18.2742 10.1806 18.333 9.99992 18.333C9.81925 18.333 9.64348 18.2742 9.49909 18.1657C7.94909 16.8273 3.33325 12.494 3.33325 8.33317C3.33325 6.56506 4.03563 4.86937 5.28587 3.61913C6.53612 2.36888 8.23181 1.6665 9.99992 1.6665C11.768 1.6665 13.4637 2.36888 14.714 3.61913C15.9642 4.86937 16.6666 6.56506 16.6666 8.33317Z" stroke="black" stroke-width="1.5" stroke-linecap="round" stroke-linejoin="round"/>
<path d="M9.99992 10.8332C11.3806 10.8332 12.4999 9.71388 12.4999 8.33317C12.4999 6.95246 11.3806 5.83317 9.99992 5.83317C8.61921 5.83317 7.49992 6.95246 7.49992 8.33317C7.49992 9.71388 8.61921 10.8332 9.99992 10.8332Z" stroke="black" stroke-width="1.5" stroke-linecap="round" stroke-linejoin="round"/>
</svg>
