<svg width="24" height="24" viewBox="0 0 24 24" fill="none" xmlns="http://www.w3.org/2000/svg">
<path fill-rule="evenodd" clip-rule="evenodd" d="M2.39306 15C2.39306 14.8011 2.47208 14.6103 2.61273 14.4697C2.75338 14.329 2.94415 14.25 3.14306 14.25H9.00006C9.19897 14.25 9.38974 14.329 9.53039 14.4697C9.67104 14.6103 9.75006 14.8011 9.75006 15V20.857C9.75006 21.0559 9.67104 21.2467 9.53039 21.3873C9.38974 21.528 9.19897 21.607 9.00006 21.607C8.80115 21.607 8.61038 21.528 8.46973 21.3873C8.32908 21.2467 8.25006 21.0559 8.25006 20.857V16.811L2.53006 22.531C2.38854 22.6676 2.19906 22.7431 2.00241 22.7413C1.80576 22.7395 1.61769 22.6605 1.4787 22.5214C1.33971 22.3822 1.26092 22.1941 1.2593 21.9975C1.25769 21.8008 1.33337 21.6114 1.47006 21.47L7.19006 15.75H3.14206C2.94315 15.75 2.75238 15.671 2.61173 15.5303C2.47108 15.3897 2.39306 15.1989 2.39306 15Z" fill="black"/>
<path fill-rule="evenodd" clip-rule="evenodd" d="M21.607 8.99994C21.607 9.19885 21.528 9.38962 21.3873 9.53027C21.2467 9.67093 21.0559 9.74994 20.857 9.74994H15C14.8011 9.74994 14.6103 9.67093 14.4697 9.53027C14.329 9.38962 14.25 9.19885 14.25 8.99994V3.14294C14.25 2.94403 14.329 2.75327 14.4697 2.61261C14.6103 2.47196 14.8011 2.39294 15 2.39294C15.1989 2.39294 15.3897 2.47196 15.5303 2.61261C15.671 2.75327 15.75 2.94403 15.75 3.14294V7.18894L21.47 1.46894C21.5392 1.39734 21.622 1.34025 21.7135 1.30098C21.805 1.26172 21.9035 1.24108 22.0031 1.24026C22.1026 1.23944 22.2014 1.25846 22.2935 1.29622C22.3857 1.33397 22.4694 1.3897 22.5398 1.46015C22.6102 1.53061 22.6658 1.61437 22.7035 1.70656C22.7412 1.79875 22.7601 1.89752 22.7592 1.9971C22.7583 2.09669 22.7375 2.19509 22.6982 2.28658C22.6588 2.37806 22.6017 2.46079 22.53 2.52994L16.81 8.24994H20.857C21.0559 8.24994 21.2467 8.32896 21.3873 8.46961C21.528 8.61027 21.607 8.80103 21.607 8.99994Z" fill="black"/>
</svg>
