<svg width="56" height="56" viewBox="0 0 56 56" fill="none" xmlns="http://www.w3.org/2000/svg">
<rect width="56" height="56" rx="28" fill="#28A745" fill-opacity="0.1"/>
<path d="M30 25.536V23C30 21.9391 30.4214 20.9217 31.1716 20.1716C31.9217 19.4214 32.9391 19 34 19H35.5C35.6326 19 35.7598 19.0527 35.8536 19.1464C35.9473 19.2402 36 19.3674 36 19.5V21C36 22.0609 35.5786 23.0783 34.8284 23.8284C34.0783 24.5786 33.0609 25 32 25C30.9391 25 29.9217 25.4214 29.1716 26.1716C28.4214 26.9217 28 27.9391 28 29C28 31 29 32 29 34C29 35.0819 28.6491 36.1345 28 37" fill="#28A745"/>
<path d="M20 25C20.7428 24.4429 21.6262 24.1036 22.551 24.0202C23.4758 23.9368 24.4055 24.1126 25.2361 24.5279C26.0666 24.9431 26.7651 25.5815 27.2533 26.3713C27.7414 27.1612 28 28.0714 28 29C27.2572 29.5571 26.3738 29.8964 25.449 29.9798C24.5242 30.0632 23.5945 29.8874 22.7639 29.4721C21.9334 29.0569 21.2349 28.4185 20.7467 27.6287C20.2586 26.8388 20 25.9286 20 25Z" fill="#28A745"/>
<path d="M21 37H35H21Z" fill="#28A745"/>
<path d="M30 25.536V23C30 21.9391 30.4214 20.9217 31.1716 20.1716C31.9217 19.4214 32.9391 19 34 19H35.5C35.6326 19 35.7598 19.0527 35.8536 19.1464C35.9473 19.2402 36 19.3674 36 19.5V21C36 22.0609 35.5786 23.0783 34.8284 23.8284C34.0783 24.5786 33.0609 25 32 25C30.9391 25 29.9217 25.4214 29.1716 26.1716C28.4214 26.9217 28 27.9391 28 29M28 29C28 31 29 32 29 34C29 35.0819 28.6491 36.1345 28 37M28 29C28 28.0714 27.7414 27.1612 27.2533 26.3713C26.7651 25.5815 26.0666 24.9431 25.2361 24.5279C24.4055 24.1126 23.4758 23.9368 22.551 24.0202C21.6262 24.1036 20.7428 24.4429 20 25C20 25.9286 20.2586 26.8388 20.7467 27.6287C21.2349 28.4185 21.9334 29.0569 22.7639 29.4721C23.5945 29.8874 24.5242 30.0632 25.449 29.9798C26.3738 29.8964 27.2572 29.5571 28 29ZM21 37H35" stroke="#28A745" stroke-width="1.5" stroke-linecap="round" stroke-linejoin="round"/>
</svg>
