<svg width="100" height="100" viewBox="0 0 100 100" fill="none" xmlns="http://www.w3.org/2000/svg">
<g clip-path="url(#clip0_1245_252)">
<path d="M49.4038 20.3892C50.2976 21.534 50.793 22.89 50.7399 24.3257C50.7226 24.7786 50.6523 25.2182 50.534 25.6432" stroke="black" stroke-width="2" stroke-miterlimit="10" stroke-linecap="round" stroke-linejoin="round"/>
<path d="M33.4651 25.7693C33.2327 25.1026 33.1198 24.4 33.1464 23.6749C33.2898 19.8127 37.3433 16.8284 42.2016 17.0077C43.4142 17.0528 44.5617 17.2906 45.6003 17.6824" stroke="black" stroke-width="2" stroke-miterlimit="10" stroke-linecap="round" stroke-linejoin="round"/>
<path d="M37.4205 61.6123V65.3418C37.4205 65.3664 37.4201 65.3928 37.4193 65.421C37.387 66.6215 36.527 67.6403 35.3527 67.8914C33.5961 68.267 30.978 68.8308 30.4599 68.9655C28.4391 69.4906 26.2506 69.8373 24.5231 71.0756C22.1669 72.7646 21 75.4327 21 78.2835V83.0082" stroke="black" stroke-width="2" stroke-miterlimit="10" stroke-linecap="round" stroke-linejoin="round"/>
<path d="M52.7309 68.7606C51.6185 68.5199 49.8429 68.1511 48.5428 67.8828C47.3599 67.6387 46.4867 66.6166 46.4583 65.409C46.4578 65.3853 46.4575 65.3628 46.4575 65.3418V61.6123" stroke="black" stroke-width="2" stroke-miterlimit="10" stroke-linecap="round" stroke-linejoin="round"/>
<path d="M30.0955 29.2293C32.8327 25.6885 37.1226 23.4095 41.9464 23.4121C50.2313 23.4161 56.9038 30.2334 56.9038 38.5183V42.7882M26.9744 43.0777V38.3748C26.9744 36.5951 27.2851 34.8872 27.8562 33.304" stroke="black" stroke-width="2" stroke-miterlimit="10" stroke-linecap="round" stroke-linejoin="round"/>
<path d="M41.939 30.8259V23.707" stroke="black" stroke-width="2" stroke-miterlimit="10" stroke-linecap="round" stroke-linejoin="round"/>
<path d="M29.6406 51.4824C26.9566 50.8278 24.9644 48.4078 24.9644 45.5228C24.9644 44.175 26.0571 43.0825 27.4052 43.0825H29.6407" stroke="black" stroke-width="2" stroke-miterlimit="10" stroke-linecap="round" stroke-linejoin="round"/>
<path d="M54.2048 43.083H56.4403C57.7884 43.083 58.8812 44.1755 58.8812 45.5233C58.8812 48.4084 56.889 50.8283 54.205 51.4829" stroke="black" stroke-width="2" stroke-miterlimit="10" stroke-linecap="round" stroke-linejoin="round"/>
<path d="M31.4132 55.5956C31.121 55.2131 30.8633 54.8053 30.6376 54.3777C29.9841 53.1306 29.6401 51.7427 29.6401 50.3335V43.0819H29.6415C30.3215 43.0819 30.9218 42.6476 31.1369 42.0035L32.0706 39.2025C32.7028 37.3059 33.9991 35.7002 35.7203 34.6828L41.9386 31.0039L48.2061 34.7134C49.9047 35.7307 51.1811 37.3245 51.8066 39.2025L52.7416 42.0035C52.8492 42.3249 53.0524 42.5945 53.3154 42.7831C53.577 42.9717 53.8984 43.0819 54.2384 43.0819V43.0833V50.3335C54.2384 51.7427 53.8945 53.1306 53.2397 54.3777C52.8559 55.1081 52.3698 55.7815 51.796 56.3739L47.3388 60.5641C45.8194 61.9852 43.879 62.6971 41.9386 62.6971C39.9996 62.6971 38.0578 61.9852 36.5398 60.5641L34.7282 58.8668" stroke="black" stroke-width="2" stroke-miterlimit="10" stroke-linecap="round" stroke-linejoin="round"/>
<path d="M43.1258 50.8413C42.3832 51.2196 41.5043 51.2196 40.7617 50.8413" stroke="black" stroke-width="2" stroke-miterlimit="10" stroke-linecap="round" stroke-linejoin="round"/>
<path d="M44.1997 55.335C42.7823 56.2369 41.1049 56.2369 39.6875 55.335" stroke="black" stroke-width="2" stroke-miterlimit="10" stroke-linecap="round" stroke-linejoin="round"/>
<path d="M39.1451 42.4988C37.9512 41.7595 36.0153 41.7595 34.8213 42.4988" stroke="black" stroke-width="2" stroke-miterlimit="10" stroke-linecap="round" stroke-linejoin="round"/>
<path d="M49.066 42.4988C47.8721 41.7595 45.9362 41.7595 44.7422 42.4988" stroke="black" stroke-width="2" stroke-miterlimit="10" stroke-linecap="round" stroke-linejoin="round"/>
<path d="M46.9041 47.1133V45.1953" stroke="black" stroke-width="2" stroke-miterlimit="10" stroke-linecap="round" stroke-linejoin="round"/>
<path d="M36.9832 47.1133V45.1953" stroke="black" stroke-width="2" stroke-miterlimit="10" stroke-linecap="round" stroke-linejoin="round"/>
<path d="M36.9832 66.7861C39.5629 69.3658 43.7456 69.3658 46.3252 66.7861L46.6489 66.4624" stroke="black" stroke-width="2" stroke-miterlimit="10" stroke-linecap="round" stroke-linejoin="round"/>
<path d="M33.1313 68.3687L34.5696 69.7734C38.6634 73.7719 45.2305 73.6703 49.1987 69.5472L50.3329 68.3687" stroke="black" stroke-width="2" stroke-miterlimit="10" stroke-linecap="round" stroke-linejoin="round"/>
<path d="M24.5229 71.0752L26.5073 73.7272C28.0684 75.8136 28.912 78.3491 28.912 80.9548V83.0076" stroke="black" stroke-width="2" stroke-miterlimit="10" stroke-linecap="round" stroke-linejoin="round"/>
<path d="M55.3959 77.7627C55.1122 78.7964 54.9658 79.8698 54.9658 80.9553V83.0081" stroke="black" stroke-width="2" stroke-miterlimit="10" stroke-linecap="round" stroke-linejoin="round"/>
<path d="M76.0435 78.5849C78.1446 76.2381 79.4209 73.1396 79.4209 69.7435C79.4209 62.4176 73.4828 56.4795 66.1569 56.4795C58.8309 56.4795 52.8928 62.4176 52.8928 69.7435C52.8928 77.0695 58.8309 83.0076 66.1569 83.0076C68.4054 83.0076 70.5237 82.4484 72.3791 81.4603" stroke="black" stroke-width="2" stroke-miterlimit="10" stroke-linecap="round" stroke-linejoin="round"/>
<path d="M61.4241 70.2277L63.6587 72.4623C65.1587 74.0381 65.7449 73.4518 66.8892 72.4606L72.6393 66.7104" stroke="black" stroke-width="2" stroke-miterlimit="10" stroke-linecap="round" stroke-linejoin="round"/>
</g>
<defs>
<clipPath id="clip0_1245_252">
<rect width="68" height="68" fill="white" transform="translate(16 16)"/>
</clipPath>
</defs>
</svg>
