<svg width="48" height="48" viewBox="0 0 48 48" fill="none" xmlns="http://www.w3.org/2000/svg">
<path d="M45.414 22.5849L31.414 8.58486C31.0368 8.22055 30.5316 8.01896 30.0072 8.02351C29.4828 8.02807 28.9812 8.23841 28.6104 8.60922C28.2395 8.98004 28.0292 9.48167 28.0247 10.0061C28.0201 10.5305 28.2217 11.0357 28.586 11.4129L39.172 21.9989H4C3.46957 21.9989 2.96086 22.2096 2.58579 22.5846C2.21071 22.9597 2 23.4684 2 23.9989C2 24.5293 2.21071 25.038 2.58579 25.4131C2.96086 25.7881 3.46957 25.9989 4 25.9989H39.172L28.586 36.5849C28.395 36.7694 28.2426 36.99 28.1378 37.2341C28.033 37.4781 27.9778 37.7405 27.9755 38.0061C27.9732 38.2716 28.0238 38.535 28.1244 38.7808C28.2249 39.0266 28.3734 39.2499 28.5612 39.4377C28.749 39.6254 28.9723 39.7739 29.2181 39.8745C29.4639 39.9751 29.7272 40.0257 29.9928 40.0234C30.2584 40.0211 30.5208 39.9659 30.7648 39.8611C31.0088 39.7562 31.2295 39.6039 31.414 39.4129L45.414 25.4129C45.7889 25.0378 45.9996 24.5292 45.9996 23.9989C45.9996 23.4685 45.7889 22.9599 45.414 22.5849Z" fill="black"/>
</svg>
