<svg width="100" height="100" viewBox="0 0 100 100" fill="none" xmlns="http://www.w3.org/2000/svg">
<g clip-path="url(#clip0_2027_6366)">
<path d="M98.5352 97.2273H78.4492M71.6133 97.2273H1.46484M66.9277 49.1797H98.5352M1.46484 49.1797H33.0715M39.1406 64.3992C42.5684 66.0262 44.2168 68.8797 49.998 68.8797C58.0879 68.8797 58.0879 63.2957 66.1777 63.2957C74.2656 63.2957 74.2656 68.8797 82.3555 68.8797C90.4453 68.8797 90.4453 63.2957 98.5352 63.2957M1.46484 63.2957C9.55469 63.2957 9.55469 68.8797 17.6426 68.8797C25.1934 68.8797 25.6973 64.0164 32.3047 63.368M1.46484 82.2145C9.55371 82.2145 9.55371 87.7998 17.6428 87.7998C25.7318 87.7998 25.7318 82.2145 33.8209 82.2145C41.9098 82.2145 41.9098 87.7998 49.9988 87.7998C58.0881 87.7998 58.0881 82.2145 66.1771 82.2145C74.2666 82.2145 74.2666 87.7998 82.3563 87.7998C90.4459 87.7998 90.4457 82.2145 98.5354 82.2145" stroke="#1E1E1E" stroke-width="3" stroke-miterlimit="10" stroke-linecap="round" stroke-linejoin="round"/>
<path d="M50 82.2461C52.1574 82.2461 53.9062 80.4972 53.9062 78.3398C53.9062 76.1825 52.1574 74.4336 50 74.4336C47.8426 74.4336 46.0938 76.1825 46.0938 78.3398C46.0938 80.4972 47.8426 82.2461 50 82.2461Z" stroke="#1E1E1E" stroke-width="3" stroke-miterlimit="10" stroke-linecap="round" stroke-linejoin="round"/>
<path d="M17.6426 82.2461C19.7999 82.2461 21.5488 80.4972 21.5488 78.3398C21.5488 76.1825 19.7999 74.4336 17.6426 74.4336C15.4852 74.4336 13.7363 76.1825 13.7363 78.3398C13.7363 80.4972 15.4852 82.2461 17.6426 82.2461Z" stroke="#1E1E1E" stroke-width="3" stroke-miterlimit="10" stroke-linecap="round" stroke-linejoin="round"/>
<path d="M82.356 82.2461C84.5133 82.2461 86.2622 80.4972 86.2622 78.3398C86.2622 76.1825 84.5133 74.4336 82.356 74.4336C80.1986 74.4336 78.4497 76.1825 78.4497 78.3398C78.4497 80.4972 80.1986 82.2461 82.356 82.2461Z" stroke="#1E1E1E" stroke-width="3" stroke-miterlimit="10" stroke-linecap="round" stroke-linejoin="round"/>
<path d="M33.8208 75.0977C35.4388 75.0977 36.7505 73.786 36.7505 72.168C36.7505 70.5499 35.4388 69.2383 33.8208 69.2383C32.2028 69.2383 30.8911 70.5499 30.8911 72.168C30.8911 73.786 32.2028 75.0977 33.8208 75.0977Z" stroke="#1E1E1E" stroke-width="3" stroke-miterlimit="10" stroke-linecap="round" stroke-linejoin="round"/>
<path d="M66.1768 75.0977C67.7948 75.0977 69.1064 73.786 69.1064 72.168C69.1064 70.5499 67.7948 69.2383 66.1768 69.2383C64.5587 69.2383 63.2471 70.5499 63.2471 72.168C63.2471 73.786 64.5587 75.0977 66.1768 75.0977Z" stroke="#1E1E1E" stroke-width="3" stroke-miterlimit="10" stroke-linecap="round" stroke-linejoin="round"/>
<path d="M98.5352 75.0979C96.9172 75.0979 95.6055 73.7861 95.6055 72.1682C95.6055 70.5502 96.9172 69.2385 98.5352 69.2385M1.46484 75.0979C3.08281 75.0979 4.39453 73.7861 4.39453 72.1682C4.39453 70.5502 3.08281 69.2385 1.46484 69.2385M34.3828 11.2148C32.4687 11.3535 30.3828 11.4238 28.0996 11.4238V33.4805C28.0996 42.2188 32.2871 50.4277 39.3574 55.5586L47.9219 61.7715C49.1602 62.6699 50.8359 62.6699 52.0762 61.7715L56.8887 58.2793M41.2187 10.3008C44.8418 9.54297 47.6523 8.42187 50 6.99414C54.6211 9.80469 61.0234 11.4238 71.9004 11.4238V33.4805C71.9004 41.4746 68.3945 49.0273 62.3809 54.1836" stroke="#1E1E1E" stroke-width="3" stroke-miterlimit="10" stroke-linecap="round" stroke-linejoin="round"/>
<path d="M18.8838 10.5859V2.77344M14.9775 6.67969H22.79M81.1162 10.5859V2.77344M85.0225 6.67969H77.21M62.1988 28.7943H53.5426V20.1381H46.4574V28.7943H37.8012V35.8793H46.4574V44.5357H53.5426V35.8793H62.1988V28.7943ZM1.46484 24.6289H5.95566V20.1381H11.5744V24.6289H16.0652V30.2477H11.5744V34.7385H5.95566V30.2477H1.46484V24.6289ZM98.5352 24.6289H94.0443V20.1381H88.4256V24.6289H83.9348V30.2477H88.4256V34.7385H94.0443V30.2477H98.5352V24.6289Z" stroke="#1E1E1E" stroke-width="3" stroke-miterlimit="10" stroke-linecap="round" stroke-linejoin="round"/>
</g>
<defs>
<clipPath id="clip0_2027_6366">
<rect width="100" height="100" fill="white"/>
</clipPath>
</defs>
</svg>
