<svg width="100" height="100" viewBox="0 0 100 100" fill="none" xmlns="http://www.w3.org/2000/svg">
<path d="M92.2154 48.5379C86.3295 48.5379 83.2936 51.4504 80.6186 54.0223C78.0389 56.4988 75.8107 58.6363 71.1779 58.6363C66.7217 58.6363 64.4889 56.6473 62.0154 54.2926C61.7986 52.9969 61.4435 51.7281 60.9561 50.5082C59.2273 45.6507 58.0822 40.6049 57.5451 35.4769C57.5037 35.0523 57.6141 34.6268 57.8567 34.2758C58.0992 33.9248 58.4583 33.6711 58.8701 33.5598H91.9357C92.3491 33.5598 92.7455 33.3955 93.0378 33.1032C93.3301 32.811 93.4943 32.4145 93.4943 32.0012C93.4943 31.5878 93.3301 31.1914 93.0378 30.8991C92.7455 30.6068 92.3491 30.4426 91.9357 30.4426H58.6936C57.4576 30.5951 56.3272 31.2155 55.5346 32.176C54.7421 33.1365 54.3477 34.3642 54.4326 35.6066C54.9782 41.0462 56.1839 46.3991 58.0232 51.5473C58.2014 51.9863 62.2982 62.3691 53.7951 65.8597C51.2724 66.8853 48.449 66.8853 45.9264 65.8597C37.7889 62.166 40.9764 53.8394 42.0904 50.2707C43.7664 45.5008 44.8419 40.5408 45.292 35.5051C45.3561 34.2775 44.9511 33.0714 44.159 32.1314C43.3669 31.1913 42.247 30.5876 41.0264 30.4426H7.78418C7.37081 30.4426 6.97438 30.6068 6.68209 30.8991C6.38979 31.1914 6.22559 31.5878 6.22559 32.0012C6.22559 32.4145 6.38979 32.811 6.68209 33.1032C6.97438 33.3955 7.37081 33.5598 7.78418 33.5598H40.8451C41.2448 33.6584 41.5973 33.8942 41.8411 34.2259C42.0849 34.5577 42.2047 34.9644 42.1795 35.3754C41.7306 40.148 40.6984 44.8476 39.1061 49.3691C38.4536 51.1532 37.9631 52.9924 37.6404 54.8644C36.5668 56.0634 35.2501 57.02 33.7781 57.6707C32.306 58.3213 30.7123 58.651 29.1029 58.6379C24.4811 58.6379 22.2561 56.5004 19.6811 54.0238C17.0029 51.4519 13.9701 48.5394 8.08105 48.5394C7.6679 48.5394 7.27166 48.7036 6.97951 48.9957C6.68737 49.2879 6.52324 49.6841 6.52324 50.0973C6.52324 50.5104 6.68737 50.9066 6.97951 51.1988C7.27166 51.4909 7.6679 51.6551 8.08105 51.6551C12.7154 51.6551 14.942 53.7957 17.5201 56.2723C22.2545 61.6988 30.8248 64.0316 37.5279 59.0285C37.6653 61.1712 38.4194 63.2284 39.6994 64.9522C40.9794 66.6761 42.7306 67.9929 44.742 68.7441C52.6951 72.1035 62.092 66.7863 62.2482 58.6441C68.8889 64.0301 77.8154 61.9691 82.7764 56.2691C85.3545 53.7926 87.5826 51.6551 92.2154 51.6551C92.6288 51.6551 93.0252 51.4909 93.3175 51.1986C93.6098 50.9063 93.774 50.5098 93.774 50.0965C93.774 49.6831 93.6098 49.2867 93.3175 48.9944C93.0252 48.7021 92.6288 48.5379 92.2154 48.5379ZM49.8592 72.9004C49.2367 72.9004 48.6398 73.1476 48.1997 73.5878C47.7596 74.0279 47.5123 74.6248 47.5123 75.2472C47.5123 75.8697 47.7596 76.4666 48.1997 76.9067C48.6398 77.3469 49.2367 77.5941 49.8592 77.5941C50.4816 77.5941 51.0785 77.3469 51.5187 76.9067C51.9588 76.4666 52.2061 75.8697 52.2061 75.2472C52.2061 74.6248 51.9588 74.0279 51.5187 73.5878C51.0785 73.1476 50.4816 72.9004 49.8592 72.9004ZM14.5545 64.3535C13.9319 64.3535 13.3347 64.6008 12.8944 65.0411C12.4542 65.4814 12.2068 66.0785 12.2068 66.7012C12.2068 67.3238 12.4542 67.9209 12.8944 68.3612C13.3347 68.8015 13.9319 69.0488 14.5545 69.0488C15.1771 69.0488 15.7743 68.8015 16.2145 68.3612C16.6548 67.9209 16.9021 67.3238 16.9021 66.7012C16.9021 66.0785 16.6548 65.4814 16.2145 65.0411C15.7743 64.6008 15.1771 64.3535 14.5545 64.3535ZM30.9998 69.0472C30.3772 69.0472 29.78 69.2946 29.3398 69.7349C28.8995 70.1751 28.6521 70.7723 28.6521 71.3949C28.6521 72.0175 28.8995 72.6147 29.3398 73.0549C29.78 73.4952 30.3772 73.7426 30.9998 73.7426C31.6222 73.7426 32.2192 73.4953 32.6593 73.0552C33.0994 72.6151 33.3467 72.0181 33.3467 71.3957C33.3467 70.7733 33.0994 70.1763 32.6593 69.7362C32.2192 69.2961 31.6222 69.0488 30.9998 69.0488V69.0472ZM85.1654 64.3535C84.5428 64.3535 83.9457 64.6008 83.5054 65.0411C83.0651 65.4814 82.8178 66.0785 82.8178 66.7012C82.8178 67.3238 83.0651 67.9209 83.5054 68.3612C83.9457 68.8015 84.5428 69.0488 85.1654 69.0488C85.7881 69.0488 86.3852 68.8015 86.8255 68.3612C87.2657 67.9209 87.5131 67.3238 87.5131 66.7012C87.5131 66.0785 87.2657 65.4814 86.8255 65.0411C86.3852 64.6008 85.7881 64.3535 85.1654 64.3535ZM68.7186 73.7426C69.341 73.7426 69.9379 73.4953 70.378 73.0552C70.8182 72.6151 71.0654 72.0181 71.0654 71.3957C71.0654 70.7733 70.8182 70.1763 70.378 69.7362C69.9379 69.2961 69.341 69.0488 68.7186 69.0488C68.0961 69.0488 67.4992 69.2961 67.0591 69.7362C66.6189 70.1763 66.3717 70.7733 66.3717 71.3957C66.3717 72.0181 66.6189 72.6151 67.0591 73.0552C67.4992 73.4953 68.0961 73.7426 68.7186 73.7426ZM49.8592 88.0707C49.2367 88.0707 48.6398 88.3179 48.1997 88.7581C47.7596 89.1982 47.5123 89.7951 47.5123 90.4176C47.5123 91.04 47.7596 91.6369 48.1997 92.077C48.6398 92.5172 49.2367 92.7644 49.8592 92.7644C50.4816 92.7644 51.0785 92.5172 51.5187 92.077C51.9588 91.6369 52.2061 91.04 52.2061 90.4176C52.2061 89.7951 51.9588 89.1982 51.5187 88.7581C51.0785 88.3179 50.4816 88.0707 49.8592 88.0707ZM14.5545 79.5238C13.9319 79.5238 13.3347 79.7711 12.8944 80.2114C12.4542 80.6517 12.2068 81.2488 12.2068 81.8715C12.2068 82.4941 12.4542 83.0912 12.8944 83.5315C13.3347 83.9718 13.9319 84.2191 14.5545 84.2191C15.1771 84.2191 15.7743 83.9718 16.2145 83.5315C16.6548 83.0912 16.9021 82.4941 16.9021 81.8715C16.9021 81.2488 16.6548 80.6517 16.2145 80.2114C15.7743 79.7711 15.1771 79.5238 14.5545 79.5238ZM30.9998 84.2191C30.3774 84.2191 29.7804 84.4664 29.3403 84.9065C28.9002 85.3466 28.6529 85.9436 28.6529 86.566C28.6529 87.1884 28.9002 87.7854 29.3403 88.2255C29.7804 88.6656 30.3774 88.9129 30.9998 88.9129C31.6222 88.9129 32.2192 88.6656 32.6593 88.2255C33.0994 87.7854 33.3467 87.1884 33.3467 86.566C33.3467 85.9436 33.0994 85.3466 32.6593 84.9065C32.2192 84.4664 31.6222 84.2191 30.9998 84.2191ZM85.1654 79.5238C84.5428 79.5238 83.9457 79.7711 83.5054 80.2114C83.0651 80.6517 82.8178 81.2488 82.8178 81.8715C82.8178 82.4941 83.0651 83.0912 83.5054 83.5315C83.9457 83.9718 84.5428 84.2191 85.1654 84.2191C85.7881 84.2191 86.3852 83.9718 86.8255 83.5315C87.2657 83.0912 87.5131 82.4941 87.5131 81.8715C87.5131 81.2488 87.2657 80.6517 86.8255 80.2114C86.3852 79.7711 85.7881 79.5238 85.1654 79.5238ZM68.7186 84.2191C68.0961 84.2191 67.4992 84.4664 67.0591 84.9065C66.6189 85.3466 66.3717 85.9436 66.3717 86.566C66.3717 87.1884 66.6189 87.7854 67.0591 88.2255C67.4992 88.6656 68.0961 88.9129 68.7186 88.9129C69.341 88.9129 69.9379 88.6656 70.378 88.2255C70.8182 87.7854 71.0654 87.1884 71.0654 86.566C71.0654 85.9436 70.8182 85.3466 70.378 84.9065C69.9379 84.4664 69.341 84.2191 68.7186 84.2191ZM44.7217 14.1238C45.0496 14.1241 45.3692 14.0201 45.6342 13.8269L48.3561 11.8551L48.267 19.6676C48.2622 20.0807 48.4218 20.4788 48.7106 20.7744C48.9993 21.0699 49.3937 21.2386 49.8068 21.2433C50.22 21.2481 50.6181 21.0886 50.9136 20.7998C51.2092 20.511 51.3778 20.1167 51.3826 19.7035L51.4732 11.8691L54.067 13.8113C54.3981 14.0493 54.8092 14.1481 55.2123 14.0863C55.6154 14.0246 55.9781 13.8073 56.2227 13.4811C56.4674 13.1548 56.5743 12.7457 56.5207 12.3415C56.467 11.9373 56.257 11.5702 55.9357 11.3191L50.8795 7.53162C50.6092 7.34213 50.2878 7.23918 49.9577 7.23639C49.6276 7.2336 49.3045 7.3311 49.0311 7.516L43.8045 11.3035C43.544 11.5002 43.3514 11.7733 43.2535 12.0846C43.1556 12.396 43.1572 12.7301 43.2581 13.0405C43.3591 13.3509 43.5543 13.622 43.8166 13.8162C44.079 14.0104 44.3953 14.1179 44.7217 14.1238ZM59.8826 27.2441C60.29 27.2444 60.6812 27.0845 60.9717 26.7988L66.5748 21.3222L67.0342 24.5316C67.0632 24.7343 67.1319 24.9292 67.2362 25.1053C67.3406 25.2814 67.4786 25.4352 67.6424 25.5579C67.9733 25.8058 68.389 25.9121 68.7982 25.8535C69.0009 25.8245 69.1958 25.7558 69.3719 25.6514C69.548 25.5471 69.7018 25.409 69.8245 25.2452C69.9473 25.0814 70.0366 24.895 70.0873 24.6967C70.138 24.4984 70.1491 24.2921 70.1201 24.0894L69.2232 17.8363C69.1657 17.5113 69.0109 17.2115 68.7794 16.9763C68.5478 16.7411 68.2504 16.5817 67.9264 16.5191L61.5529 15.5035C61.1472 15.4434 60.7341 15.5457 60.4033 15.7882C60.0725 16.0308 59.8507 16.3941 59.7861 16.7991C59.7215 17.2042 59.8193 17.6184 60.0582 17.9519C60.2972 18.2853 60.658 18.511 61.0623 18.5801L64.3826 19.1097L58.7936 24.5707C58.5774 24.7892 58.4302 25.0663 58.3702 25.3677C58.3102 25.6692 58.34 25.9816 58.456 26.2662C58.572 26.5508 58.7691 26.795 59.0227 26.9686C59.2763 27.1422 59.5753 27.2374 59.8826 27.2426V27.2441ZM30.9217 25.8535C31.3307 25.9111 31.746 25.8044 32.0765 25.5567C32.4071 25.309 32.6262 24.9404 32.6857 24.5316L33.1451 21.3222L38.7482 26.7988C39.0437 27.0876 39.4418 27.2473 39.855 27.2426C40.2681 27.2379 40.6625 27.0693 40.9514 26.7738C41.2402 26.4783 41.3998 26.0802 41.3952 25.6671C41.3905 25.2539 41.2218 24.8595 40.9264 24.5707L35.3373 19.1097L38.6592 18.5785C39.0672 18.5132 39.4325 18.2886 39.6748 17.9539C39.9172 17.6193 40.0166 17.2021 39.9514 16.7941C39.8861 16.3861 39.6614 16.0208 39.3268 15.7785C38.9922 15.5361 38.575 15.4367 38.167 15.5019L31.792 16.5191C31.5037 16.5702 31.2355 16.7013 31.0181 16.8975C30.8007 17.0936 30.6427 17.3469 30.5623 17.6285C30.5354 17.6961 30.5135 17.7655 30.4967 17.8363L29.5998 24.0894C29.5706 24.2922 29.5817 24.4987 29.6323 24.6971C29.683 24.8956 29.7722 25.0821 29.895 25.2461C30.0177 25.41 30.1716 25.5482 30.3478 25.6527C30.5239 25.7572 30.7189 25.826 30.9217 25.8551V25.8535Z" fill="#1E1E1E"/>
<path d="M49.859 58.8996C49.352 58.914 48.8706 59.1255 48.517 59.4892C48.1635 59.8528 47.9657 60.3401 47.9657 60.8473C47.9657 61.3545 48.1635 61.8417 48.517 62.2054C48.8706 62.5691 49.352 62.7806 49.859 62.7949C50.3757 62.7949 50.8713 62.5896 51.2367 62.2242C51.6021 61.8588 51.8074 61.3632 51.8074 60.8465C51.8074 60.3297 51.6021 59.8341 51.2367 59.4687C50.8713 59.1033 50.3757 58.8996 49.859 58.8996ZM42.6871 53.459C42.7015 53.966 42.913 54.4474 43.2767 54.8009C43.6403 55.1545 44.1276 55.3522 44.6348 55.3522C45.142 55.3522 45.6292 55.1545 45.9929 54.8009C46.3566 54.4474 46.5681 53.966 46.5824 53.459C46.5824 52.9422 46.3771 52.4466 46.0117 52.0812C45.6463 51.7158 45.1507 51.5105 44.634 51.5105C44.1172 51.5105 43.6216 51.7158 43.2562 52.0812C42.8908 52.4466 42.6871 52.9422 42.6871 53.459ZM55.0855 55.4074C55.5925 55.3931 56.074 55.1816 56.4275 54.8179C56.781 54.4542 56.9788 53.967 56.9788 53.4598C56.9788 52.9526 56.781 52.4653 56.4275 52.1017C56.074 51.738 55.5925 51.5265 55.0855 51.5121C54.5785 51.5265 54.0971 51.738 53.7436 52.1017C53.3901 52.4653 53.1923 52.9526 53.1923 53.4598C53.1923 53.967 53.3901 54.4542 53.7436 54.8179C54.0971 55.1816 54.5785 55.3931 55.0855 55.4074ZM49.859 44.5777C49.3422 44.5777 48.8466 44.783 48.4812 45.1484C48.1158 45.5138 47.9105 46.0094 47.9105 46.5262C47.9105 47.0429 48.1158 47.5385 48.4812 47.9039C48.8466 48.2693 49.3422 48.4746 49.859 48.4746C50.366 48.4602 50.8474 48.2487 51.2009 47.8851C51.5545 47.5214 51.7522 47.0342 51.7522 46.527C51.7522 46.0197 51.5545 45.5325 51.2009 45.1688C50.8474 44.8052 50.366 44.5921 49.859 44.5777ZM49.859 35.5449C49.352 35.5593 48.8706 35.7708 48.517 36.1345C48.1635 36.4982 47.9657 36.9854 47.9657 37.4926C47.9657 37.9998 48.1635 38.487 48.517 38.8507C48.8706 39.2144 49.352 39.4259 49.859 39.4402C50.366 39.4259 50.8474 39.2144 51.2009 38.8507C51.5545 38.487 51.7522 37.9998 51.7522 37.4926C51.7522 36.9854 51.5545 36.4982 51.2009 36.1345C50.8474 35.7708 50.366 35.5593 49.859 35.5449Z" fill="#1E1E1E"/>
</svg>
