<svg width="100" height="100" viewBox="0 0 100 100" fill="none" xmlns="http://www.w3.org/2000/svg">
<g clip-path="url(#clip0_2027_6331)">
<path d="M1.46484 98.5359H98.5352M84.5537 50.4883H98.5352M1.46484 50.4883H15.7871M73.0719 66.5922C75.5789 68.1969 77.5248 70.1891 82.3561 70.1891C90.4455 70.1891 90.4455 64.6037 98.5352 64.6037M1.46484 64.6039C9.55371 64.6039 9.55371 70.1893 17.6428 70.1893C22.6215 70.1893 24.5357 68.0734 27.1578 66.4463M25.0937 86.7547C27.3516 85.2273 29.3516 83.5223 33.8203 83.5223C41.9102 83.5223 41.9102 89.1082 49.998 89.1082C58.0879 89.1082 58.0879 83.5223 66.1777 83.5223C74.2656 83.5223 74.2656 89.1082 82.3555 89.1082C90.4453 89.1082 90.4453 83.5223 98.5352 83.5223M1.46484 83.5223C9.55469 83.5223 9.55469 89.1082 17.6426 89.1082C17.9961 89.1082 18.3359 89.0984 18.6602 89.077" stroke="#1E1E1E" stroke-width="3" stroke-miterlimit="10" stroke-linecap="round" stroke-linejoin="round"/>
<path d="M17.6426 83.5547C19.7999 83.5547 21.5488 81.8058 21.5488 79.6484C21.5488 77.4911 19.7999 75.7422 17.6426 75.7422C15.4852 75.7422 13.7363 77.4911 13.7363 79.6484C13.7363 81.8058 15.4852 83.5547 17.6426 83.5547Z" stroke="#1E1E1E" stroke-width="3" stroke-miterlimit="10" stroke-linecap="round" stroke-linejoin="round"/>
<path d="M82.356 83.5547C84.5133 83.5547 86.2622 81.8058 86.2622 79.6484C86.2622 77.4911 84.5133 75.7422 82.356 75.7422C80.1986 75.7422 78.4497 77.4911 78.4497 79.6484C78.4497 81.8058 80.1986 83.5547 82.356 83.5547Z" stroke="#1E1E1E" stroke-width="3" stroke-miterlimit="10" stroke-linecap="round" stroke-linejoin="round"/>
<path d="M33.8208 76.4062C35.4388 76.4062 36.7505 75.0946 36.7505 73.4766C36.7505 71.8585 35.4388 70.5469 33.8208 70.5469C32.2028 70.5469 30.8911 71.8585 30.8911 73.4766C30.8911 75.0946 32.2028 76.4062 33.8208 76.4062Z" stroke="#1E1E1E" stroke-width="3" stroke-miterlimit="10" stroke-linecap="round" stroke-linejoin="round"/>
<path d="M66.1768 76.4062C67.7948 76.4062 69.1064 75.0946 69.1064 73.4766C69.1064 71.8585 67.7948 70.5469 66.1768 70.5469C64.5587 70.5469 63.2471 71.8585 63.2471 73.4766C63.2471 75.0946 64.5587 76.4062 66.1768 76.4062Z" stroke="#1E1E1E" stroke-width="3" stroke-miterlimit="10" stroke-linecap="round" stroke-linejoin="round"/>
<path d="M98.5352 76.4064C96.9172 76.4064 95.6055 75.0947 95.6055 73.4768C95.6055 71.8588 96.9172 70.5471 98.5352 70.5471M1.46484 76.4064C3.08281 76.4064 4.39453 75.0947 4.39453 73.4768C4.39453 71.8588 3.08281 70.5471 1.46484 70.5471M17.084 22.4824C18.8281 18.7168 21.252 15.1914 24.3555 12.0879C38.5176 -2.07617 61.4824 -2.07617 75.6445 12.0879C79.0332 15.4766 81.6113 19.3672 83.377 23.5234M85.4473 30.041C87.9629 41.6855 84.6953 54.3262 75.6445 63.377C70.5156 68.5059 64.2305 71.7754 57.6289 73.1895C57.3965 73.2383 57.1914 73.3691 57.0488 73.5586L50 83L42.9512 73.5586C42.809 73.3692 42.6028 73.238 42.3711 73.1895C35.7695 71.7754 29.4844 68.5059 24.3555 63.377C15.0195 54.041 11.8379 40.8848 14.8086 28.9434" stroke="#1E1E1E" stroke-width="3" stroke-miterlimit="10" stroke-linecap="round" stroke-linejoin="round"/>
<path d="M69.3594 57.686C69.4609 57.5903 69.5605 57.4907 69.6602 57.3911C80.5176 46.5337 80.5176 28.9302 69.6602 18.0728C58.8027 7.21533 41.1973 7.21533 30.3398 18.0728C19.4824 28.9302 19.4824 46.5337 30.3398 57.3911C39.4395 66.4927 53.2773 67.9653 63.9102 61.813" stroke="#1E1E1E" stroke-width="3" stroke-miterlimit="10" stroke-linecap="round" stroke-linejoin="round"/>
<path d="M50.0001 10.5859V21.8609M50.0001 21.8609L39.7515 27.4932M50.0001 21.8609L59.0521 29.6799M39.7515 27.4932V35.8033M39.7515 27.4932L33.4937 24.2338M59.0521 29.6799H68.6054L76.8628 37.9373M59.0521 29.6799V39.4152M36.2855 61.6143L40.3175 55.0031L33.4937 49.668V39.975M58.2456 63.9805L51.98 54.1863M51.98 54.1863L61.9056 51.9529L64.511 46.1217M51.98 54.1863V44.6328" stroke="#1E1E1E" stroke-width="3" stroke-miterlimit="10" stroke-linecap="round" stroke-linejoin="round"/>
</g>
<defs>
<clipPath id="clip0_2027_6331">
<rect width="100" height="100" fill="white"/>
</clipPath>
</defs>
</svg>
