<svg width="100" height="100" viewBox="0 0 100 100" fill="none" xmlns="http://www.w3.org/2000/svg">
<path d="M57.0805 69.5668C71.8726 69.5668 83.8639 57.5754 83.8639 42.7834C83.8639 27.9913 71.8726 16 57.0805 16C42.2885 16 30.2971 27.9913 30.2971 42.7834C30.2971 57.5754 42.2885 69.5668 57.0805 69.5668Z" stroke="black" stroke-width="2" stroke-miterlimit="10" stroke-linecap="round" stroke-linejoin="round"/>
<path d="M42.7834 83.9999C57.5754 83.9999 69.5668 72.0086 69.5668 57.2165C69.5668 42.4244 57.5754 30.4331 42.7834 30.4331C27.9913 30.4331 16 42.4244 16 57.2165C16 72.0086 27.9913 83.9999 42.7834 83.9999Z" stroke="black" stroke-width="2" stroke-miterlimit="10" stroke-linecap="round" stroke-linejoin="round"/>
<path d="M32.9541 53.9462L46.6245 40.2756L68.1908 18.7095" stroke="black" stroke-width="2" stroke-miterlimit="10" stroke-linecap="round" stroke-linejoin="round"/>
<path d="M57.6343 16.3032L39.6692 34.2681L30.446 43.4914" stroke="black" stroke-width="2" stroke-miterlimit="10" stroke-linecap="round" stroke-linejoin="round"/>
<path d="M46.0769 66.7495L81.0739 31.7524" stroke="black" stroke-width="2" stroke-miterlimit="10" stroke-linecap="round" stroke-linejoin="round"/>
<path d="M53.6541 46.2094L76.0191 23.8442" stroke="black" stroke-width="2" stroke-miterlimit="10" stroke-linecap="round" stroke-linejoin="round"/>
<path d="M38.1421 61.7214L44.8557 55.0078" stroke="black" stroke-width="2" stroke-miterlimit="10" stroke-linecap="round" stroke-linejoin="round"/>
<path d="M56.3721 69.4172L83.5603 42.229" stroke="black" stroke-width="2" stroke-miterlimit="10" stroke-linecap="round" stroke-linejoin="round"/>
<ellipse cx="49.263" cy="50.6009" rx="1.38212" ry="1.38212" fill="black"/>
</svg>
